<svg version="1.1" viewBox="0.0 0.0 811.3648293963255 231.13648293963254" fill="none" stroke="none" stroke-linecap="square" stroke-miterlimit="10" xmlns:xlink="http://www.w3.org/1999/xlink" xmlns="http://www.w3.org/2000/svg"><clipPath id="p.0"><path d="m0 0l811.3648 0l0 231.13649l-811.3648 0l0 -231.13649z" clip-rule="nonzero"/></clipPath><g clip-path="url(#p.0)"><path fill="#000000" fill-opacity="0.0" d="m0 0l811.3648 0l0 231.13649l-811.3648 0z" fill-rule="evenodd"/><path fill="#000000" fill-opacity="0.0" d="m48.34646 198.59055l0 -188.31496" fill-rule="evenodd"/><path stroke="#000000" stroke-width="1.0" stroke-linejoin="round" stroke-linecap="butt" d="m48.34646 198.59055l0 -182.31496" fill-rule="evenodd"/><path fill="#000000" stroke="#000000" stroke-width="1.0" stroke-linecap="butt" d="m49.998188 16.27559l-1.6517296 -4.5380983l-1.6517334 4.5380983z" fill-rule="evenodd"/><path fill="#000000" fill-opacity="0.0" d="m45.086613 194.02887l225.44882 0" fill-rule="evenodd"/><path stroke="#000000" stroke-width="1.0" stroke-linejoin="round" stroke-linecap="butt" d="m45.086613 194.02887l219.44882 0" fill-rule="evenodd"/><path fill="#000000" stroke="#000000" stroke-width="1.0" stroke-linecap="butt" d="m264.53543 195.6806l4.538086 -1.6517334l-4.538086 -1.6517334z" fill-rule="evenodd"/><path fill="#000000" fill-opacity="0.0" d="m50.299213 192.08078c2.9321938 -4.190628 11.51181 -16.681992 17.593174 -25.143753c6.0813675 -8.461761 12.922134 -18.534973 18.895012 -25.6268c5.9728775 -7.0918274 9.014435 -10.154373 16.94226 -16.924164c7.9278183 -6.7697906 18.896324 -17.005646 30.624664 -23.69461c11.728348 -6.688965 25.627747 -12.248543 39.745407 -16.43917c14.117676 -4.1906204 30.951447 -6.367256 44.960632 -8.704575c14.009186 -2.337326 32.57875 -4.4328003 39.094482 -5.319359" fill-rule="evenodd"/><path stroke="#6aa84f" stroke-width="3.0" stroke-linejoin="round" stroke-linecap="butt" d="m50.299213 192.08078c2.9321938 -4.190628 11.51181 -16.681992 17.593174 -25.143753c6.0813675 -8.461761 12.922134 -18.534973 18.895012 -25.6268c5.9728775 -7.0918274 9.014435 -10.154373 16.94226 -16.924164c7.9278183 -6.7697906 18.896324 -17.005646 30.624664 -23.69461c11.728348 -6.688965 25.627747 -12.248543 39.745407 -16.43917c14.117676 -4.1906204 30.951447 -6.367256 44.960632 -8.704575c14.009186 -2.337326 32.57875 -4.4328003 39.094482 -5.319359" fill-rule="evenodd"/><path fill="#000000" fill-opacity="0.0" d="m10.3642 130.29134l0 -67.71654l29.984253 0l0 67.71654z" fill-rule="evenodd"/><path fill="#000000" d="m23.924824 111.08821l0 -1.765625l7.71875 0q2.015625 0 3.203125 0.453125q1.1875 0.453125 1.9375 1.640625q0.734375 1.1875 0.734375 3.125q0 1.875 -0.640625 3.078125q-0.65625 1.1875 -1.875 1.703125q-1.234375 0.5 -3.359375 0.5l-7.71875 0l0 -1.765625l7.71875 0q1.734375 0 2.5625 -0.3125q0.8125 -0.328125 1.265625 -1.109375q0.453125 -0.796875 0.453125 -1.9375q0 -1.953125 -0.890625 -2.78125q-0.890625 -0.828125 -3.390625 -0.828125l-7.71875 0zm11.890625 -8.082321l1.453125 -0.234375q0.140625 0.6875 0.140625 1.234375q0 0.890625 -0.28125 1.390625q-0.28125 0.484375 -0.734375 0.6875q-0.46875 0.203125 -1.9375 0.203125l-5.578125 0l0 1.203125l-1.265625 0l0 -1.203125l-2.390625 0l-0.984375 -1.625l3.375 0l0 -1.65625l1.265625 0l0 1.65625l5.671875 0q0.6875 0 0.890625 -0.078125q0.203125 -0.09375 0.328125 -0.28125q0.109375 -0.203125 0.109375 -0.578125q0 -0.265625 -0.0625 -0.71875zm-10.0 -1.6051788l-1.890625 0l0 -1.640625l1.890625 0l0 1.640625zm11.46875 0l-9.671875 0l0 -1.640625l9.671875 0l0 1.640625zm0 -4.097946l-13.359375 0l0 -1.640625l13.359375 0l0 1.640625zm-11.46875 -4.191696l-1.890625 0l0 -1.640625l1.890625 0l0 1.640625zm11.46875 0l-9.671875 0l0 -1.640625l9.671875 0l0 1.640625zm-1.46875 -7.722946l1.453125 -0.234375q0.140625 0.6875 0.140625 1.234375q0 0.890625 -0.28125 1.390625q-0.28125 0.484375 -0.734375 0.6875q-0.46875 0.203125 -1.9375 0.203125l-5.578125 0l0 1.203125l-1.265625 0l0 -1.203125l-2.390625 0l-0.984375 -1.625l3.375 0l0 -1.65625l1.265625 0l0 1.65625l5.671875 0q0.6875 0 0.890625 -0.078125q0.203125 -0.09375 0.328125 -0.28125q0.109375 -0.203125 0.109375 -0.578125q0 -0.265625 -0.0625 -0.71875zm5.1875 -1.5270538l-1.53125 0.1875q0.140625 -0.546875 0.140625 -0.9375q0 -0.546875 -0.1875 -0.875q-0.171875 -0.328125 -0.5 -0.546875q-0.25 -0.15625 -1.21875 -0.5q-0.140625 -0.046875 -0.40625 -0.140625l-9.6875 3.671875l0 -1.765625l5.59375 -2.015625q1.078125 -0.390625 2.25 -0.703125q-1.125 -0.28125 -2.203125 -0.671875l-5.640625 -2.078125l0 -1.640625l9.828125 3.6875q1.609375 0.59375 2.203125 0.921875q0.8125 0.4375 1.1875 1.0q0.375 0.5625 0.375 1.34375q0 0.484375 -0.203125 1.0625z" fill-rule="nonzero"/><path fill="#000000" fill-opacity="0.0" d="m117.147 187.97638l101.92125 0l0 29.984253l-101.92125 0z" fill-rule="evenodd"/><path fill="#000000" d="m137.7095 213.45888q1.234375 0.859375 2.265625 1.25l-0.515625 1.21875q-1.4375 -0.515625 -2.875 -1.625q-1.484375 0.828125 -3.28125 0.828125q-1.8125 0 -3.296875 -0.875q-1.46875 -0.875 -2.265625 -2.453125q-0.796875 -1.59375 -0.796875 -3.578125q0 -1.984375 0.796875 -3.59375q0.8125 -1.625 2.28125 -2.46875q1.484375 -0.859375 3.328125 -0.859375q1.84375 0 3.328125 0.890625q1.484375 0.875 2.265625 2.453125q0.78125 1.578125 0.78125 3.5625q0 1.65625 -0.5 2.96875q-0.5 1.3125 -1.515625 2.28125zm-3.890625 -2.25q1.53125 0.421875 2.515625 1.28125q1.5625 -1.421875 1.5625 -4.28125q0 -1.625 -0.546875 -2.828125q-0.546875 -1.21875 -1.609375 -1.875q-1.0625 -0.671875 -2.390625 -0.671875q-1.96875 0 -3.28125 1.359375q-1.296875 1.34375 -1.296875 4.03125q0 2.59375 1.28125 4.0q1.296875 1.390625 3.296875 1.390625q0.953125 0 1.78125 -0.359375q-0.828125 -0.53125 -1.75 -0.765625l0.4375 -1.28125zm14.402054 3.6875l0 -1.421875q-1.125 1.640625 -3.0625 1.640625q-0.859375 0 -1.609375 -0.328125q-0.734375 -0.328125 -1.09375 -0.828125q-0.359375 -0.5 -0.5 -1.21875q-0.109375 -0.46875 -0.109375 -1.53125l0 -5.984375l1.640625 0l0 5.359375q0 1.28125 0.109375 1.734375q0.15625 0.640625 0.65625 1.015625q0.5 0.375 1.234375 0.375q0.734375 0 1.375 -0.375q0.65625 -0.390625 0.921875 -1.03125q0.265625 -0.65625 0.265625 -1.890625l0 -5.1875l1.640625 0l0 9.671875l-1.46875 0zm10.360092 -1.1875q-0.921875 0.765625 -1.765625 1.09375q-0.828125 0.3125 -1.796875 0.3125q-1.59375 0 -2.453125 -0.78125q-0.859375 -0.78125 -0.859375 -1.984375q0 -0.71875 0.328125 -1.296875q0.328125 -0.59375 0.84375 -0.9375q0.53125 -0.359375 1.1875 -0.546875q0.46875 -0.125 1.453125 -0.25q1.984375 -0.234375 2.921875 -0.5625q0.015625 -0.34375 0.015625 -0.421875q0 -1.0 -0.46875 -1.421875q-0.625 -0.546875 -1.875 -0.546875q-1.15625 0 -1.703125 0.40625q-0.546875 0.40625 -0.8125 1.421875l-1.609375 -0.21875q0.21875 -1.015625 0.71875 -1.640625q0.5 -0.640625 1.453125 -0.984375q0.953125 -0.34375 2.1875 -0.34375q1.25 0 2.015625 0.296875q0.78125 0.28125 1.140625 0.734375q0.375 0.4375 0.515625 1.109375q0.078125 0.421875 0.078125 1.515625l0 2.1875q0 2.28125 0.109375 2.890625q0.109375 0.59375 0.40625 1.15625l-1.703125 0q-0.265625 -0.515625 -0.328125 -1.1875zm-0.140625 -3.671875q-0.890625 0.375 -2.671875 0.625q-1.015625 0.140625 -1.4375 0.328125q-0.421875 0.1875 -0.65625 0.53125q-0.21875 0.34375 -0.21875 0.78125q0 0.65625 0.5 1.09375q0.5 0.4375 1.453125 0.4375q0.9375 0 1.671875 -0.40625q0.75 -0.421875 1.09375 -1.140625q0.265625 -0.5625 0.265625 -1.640625l0 -0.609375zm4.203842 4.859375l0 -9.671875l1.46875 0l0 1.375q1.0625 -1.59375 3.078125 -1.59375q0.875 0 1.609375 0.3125q0.734375 0.3125 1.09375 0.828125q0.375 0.5 0.515625 1.203125q0.09375 0.453125 0.09375 1.59375l0 5.953125l-1.640625 0l0 -5.890625q0 -1.0 -0.203125 -1.484375q-0.1875 -0.5 -0.671875 -0.796875q-0.484375 -0.296875 -1.140625 -0.296875q-1.046875 0 -1.8125 0.671875q-0.75 0.65625 -0.75 2.515625l0 5.28125l-1.640625 0zm13.953842 -1.46875l0.234375 1.453125q-0.6875 0.140625 -1.234375 0.140625q-0.890625 0 -1.390625 -0.28125q-0.484375 -0.28125 -0.6875 -0.734375q-0.203125 -0.46875 -0.203125 -1.9375l0 -5.578125l-1.203125 0l0 -1.265625l1.203125 0l0 -2.390625l1.625 -0.984375l0 3.375l1.65625 0l0 1.265625l-1.65625 0l0 5.671875q0 0.6875 0.078125 0.890625q0.09375 0.203125 0.28125 0.328125q0.203125 0.109375 0.578125 0.109375q0.265625 0 0.71875 -0.0625zm1.6051788 -10.0l0 -1.890625l1.640625 0l0 1.890625l-1.640625 0zm0 11.46875l0 -9.671875l1.640625 0l0 9.671875l-1.640625 0zm7.722946 -1.46875l0.234375 1.453125q-0.6875 0.140625 -1.234375 0.140625q-0.890625 0 -1.390625 -0.28125q-0.484375 -0.28125 -0.6875 -0.734375q-0.203125 -0.46875 -0.203125 -1.9375l0 -5.578125l-1.203125 0l0 -1.265625l1.203125 0l0 -2.390625l1.625 -0.984375l0 3.375l1.65625 0l0 1.265625l-1.65625 0l0 5.671875q0 0.6875 0.078125 0.890625q0.09375 0.203125 0.28125 0.328125q0.203125 0.109375 0.578125 0.109375q0.265625 0 0.71875 -0.0625zm1.5270538 5.1875l-0.1875 -1.53125q0.546875 0.140625 0.9375 0.140625q0.546875 0 0.875 -0.1875q0.328125 -0.171875 0.546875 -0.5q0.15625 -0.25 0.5 -1.21875q0.046875 -0.140625 0.140625 -0.40625l-3.671875 -9.6875l1.765625 0l2.015625 5.59375q0.390625 1.078125 0.703125 2.25q0.28125 -1.125 0.671875 -2.203125l2.078125 -5.640625l1.640625 0l-3.6875 9.828125q-0.59375 1.609375 -0.921875 2.203125q-0.4375 0.8125 -1.0 1.1875q-0.5625 0.375 -1.34375 0.375q-0.484375 0 -1.0625 -0.203125z" fill-rule="nonzero"/><path fill="#000000" fill-opacity="0.0" d="m312.34647 198.59055l0 -188.31496" fill-rule="evenodd"/><path stroke="#000000" stroke-width="1.0" stroke-linejoin="round" stroke-linecap="butt" d="m312.34647 198.59055l0 -182.31496" fill-rule="evenodd"/><path fill="#000000" stroke="#000000" stroke-width="1.0" stroke-linecap="butt" d="m313.9982 16.27559l-1.6517334 -4.5380983l-1.6517334 4.5380983z" fill-rule="evenodd"/><path fill="#000000" fill-opacity="0.0" d="m309.0866 194.02887l225.44885 0" fill-rule="evenodd"/><path stroke="#000000" stroke-width="1.0" stroke-linejoin="round" stroke-linecap="butt" d="m309.0866 194.02887l219.44885 0" fill-rule="evenodd"/><path fill="#000000" stroke="#000000" stroke-width="1.0" stroke-linecap="butt" d="m528.53546 195.6806l4.538086 -1.6517334l-4.538086 -1.6517334z" fill-rule="evenodd"/><path fill="#000000" fill-opacity="0.0" d="m314.29922 46.228348c2.93219 4.190624 11.51181 16.681992 17.59317 25.143745c6.08136 8.461761 12.922119 18.534973 18.89502 25.6268c5.97287 7.0918274 9.014435 10.154373 16.94223 16.924164c7.927826 6.7697983 18.896332 17.005653 30.624695 23.694618c11.7283325 6.6889496 25.627716 12.248535 39.74539 16.439163c14.117676 4.190628 30.951447 6.367264 44.960632 8.704575c14.009186 2.337326 32.578735 4.4328003 39.094482 5.3193665" fill-rule="evenodd"/><path stroke="#93c47d" stroke-width="3.0" stroke-linejoin="round" stroke-linecap="butt" d="m314.29922 46.228348c2.93219 4.190624 11.51181 16.681992 17.59317 25.143745c6.08136 8.461761 12.922119 18.534973 18.89502 25.6268c5.97287 7.0918274 9.014435 10.154373 16.94223 16.924164c7.927826 6.7697983 18.896332 17.005653 30.624695 23.694618c11.7283325 6.6889496 25.627716 12.248535 39.74539 16.439163c14.117676 4.190628 30.951447 6.367264 44.960632 8.704575c14.009186 2.337326 32.578735 4.4328003 39.094482 5.3193665" fill-rule="evenodd"/><path fill="#000000" fill-opacity="0.0" d="m274.36423 183.979l0 -165.51181l29.984253 0l0 165.51181z" fill-rule="evenodd"/><path fill="#000000" d="m296.59674 164.01025l0.453125 -1.765625q2.171875 0.5625 3.328125 2.0q1.140625 1.4375 1.140625 3.53125q0 2.15625 -0.875 3.515625q-0.890625 1.34375 -2.546875 2.0625q-1.671875 0.703125 -3.59375 0.703125q-2.078125 0 -3.625 -0.796875q-1.5625 -0.796875 -2.359375 -2.265625q-0.8125 -1.484375 -0.8125 -3.25q0 -2.0 1.015625 -3.359375q1.015625 -1.375 2.875 -1.90625l0.40625 1.734375q-1.453125 0.46875 -2.109375 1.359375q-0.671875 0.875 -0.671875 2.203125q0 1.546875 0.734375 2.578125q0.734375 1.03125 1.984375 1.453125q1.234375 0.421875 2.5625 0.421875q1.703125 0 2.96875 -0.5q1.265625 -0.5 1.90625 -1.546875q0.625 -1.046875 0.625 -2.265625q0 -1.484375 -0.859375 -2.515625q-0.859375 -1.03125 -2.546875 -1.390625zm4.6875 -3.7385712l-13.359375 0l0 -1.640625l4.796875 0q-1.328125 -1.140625 -1.328125 -2.890625q0 -1.078125 0.421875 -1.859375q0.421875 -0.796875 1.171875 -1.140625q0.75 -0.34375 2.171875 -0.34375l6.125 0l0 1.640625l-6.125 0q-1.234375 0 -1.796875 0.53125q-0.5625 0.53125 -0.5625 1.515625q0 0.71875 0.390625 1.359375q0.375 0.640625 1.015625 0.921875q0.640625 0.265625 1.78125 0.265625l5.296875 0l0 1.640625zm-1.1875 -16.688217q0.765625 0.921875 1.09375 1.765625q0.3125 0.828125 0.3125 1.796875q0 1.59375 -0.78125 2.453125q-0.78125 0.859375 -1.984375 0.859375q-0.71875 0 -1.296875 -0.328125q-0.59375 -0.328125 -0.9375 -0.84375q-0.359375 -0.53125 -0.546875 -1.1875q-0.125 -0.46875 -0.25 -1.453125q-0.234375 -1.984375 -0.5625 -2.921875q-0.34375 -0.015625 -0.421875 -0.015625q-1.0 0 -1.421875 0.46875q-0.546875 0.625 -0.546875 1.875q0 1.15625 0.40625 1.703125q0.40625 0.546875 1.421875 0.8125l-0.21875 1.609375q-1.015625 -0.21875 -1.640625 -0.71875q-0.640625 -0.5 -0.984375 -1.453125q-0.34375 -0.953125 -0.34375 -2.1875q0 -1.25 0.296875 -2.015625q0.28125 -0.78125 0.734375 -1.140625q0.4375 -0.375 1.109375 -0.515625q0.421875 -0.078125 1.515625 -0.078125l2.1875 0q2.28125 0 2.890625 -0.109375q0.59375 -0.109375 1.15625 -0.40625l0 1.703125q-0.515625 0.265625 -1.1875 0.328125zm-3.671875 0.140625q0.375 0.890625 0.625 2.671875q0.140625 1.015625 0.328125 1.4375q0.1875 0.421875 0.53125 0.65625q0.34375 0.21875 0.78125 0.21875q0.65625 0 1.09375 -0.5q0.4375 -0.5 0.4375 -1.453125q0 -0.9375 -0.40625 -1.671875q-0.421875 -0.75 -1.140625 -1.09375q-0.5625 -0.265625 -1.640625 -0.265625l-0.609375 0zm4.859375 -4.203842l-9.671875 0l0 -1.46875l1.375 0q-1.59375 -1.0625 -1.59375 -3.078125q0 -0.875 0.3125 -1.609375q0.3125 -0.734375 0.828125 -1.09375q0.5 -0.375 1.203125 -0.515625q0.453125 -0.09375 1.59375 -0.09375l5.953125 0l0 1.640625l-5.890625 0q-1.0 0 -1.484375 0.203125q-0.5 0.1875 -0.796875 0.671875q-0.296875 0.484375 -0.296875 1.140625q0 1.046875 0.671875 1.8125q0.65625 0.75 2.515625 0.75l5.28125 0l0 1.640625zm0.796875 -10.063217l0.234375 -1.59375q0.75 -0.109375 1.078125 -0.5625q0.453125 -0.609375 0.453125 -1.671875q0 -1.140625 -0.453125 -1.75q-0.453125 -0.625 -1.265625 -0.84375q-0.5 -0.125 -2.109375 -0.109375q1.265625 1.0625 1.265625 2.671875q0 2.0 -1.4375 3.09375q-1.4375 1.09375 -3.453125 1.09375q-1.390625 0 -2.5625 -0.5q-1.171875 -0.515625 -1.796875 -1.453125q-0.640625 -0.953125 -0.640625 -2.25q0 -1.703125 1.375 -2.8125l-1.15625 0l0 -1.515625l8.359375 0q2.265625 0 3.203125 0.46875q0.9375 0.453125 1.484375 1.453125q0.546875 0.984375 0.546875 2.453125q0 1.71875 -0.78125 2.796875q-0.765625 1.0625 -2.34375 1.03125zm-5.8125 -1.359375q1.90625 0 2.78125 -0.75q0.875 -0.765625 0.875 -1.90625q0 -1.125 -0.859375 -1.890625q-0.875 -0.765625 -2.734375 -0.765625q-1.78125 0 -2.671875 0.796875q-0.90625 0.78125 -0.90625 1.890625q0 1.09375 0.890625 1.859375q0.875 0.765625 2.625 0.765625zm1.90625 -15.953842l0.203125 -1.6875q1.484375 0.40625 2.3125 1.484375q0.8125 1.078125 0.8125 2.765625q0 2.125 -1.296875 3.375q-1.3125 1.234375 -3.671875 1.234375q-2.453125 0 -3.796875 -1.25q-1.34375 -1.265625 -1.34375 -3.265625q0 -1.9375 1.328125 -3.15625q1.3125 -1.234375 3.703125 -1.234375q0.15625 0 0.4375 0l0 7.21875q1.59375 -0.09375 2.453125 -0.90625q0.84375 -0.8125 0.84375 -2.015625q0 -0.90625 -0.46875 -1.546875q-0.484375 -0.640625 -1.515625 -1.015625zm-2.65625 5.390625l0 -5.40625q-1.21875 0.109375 -1.828125 0.625q-0.953125 0.78125 -0.953125 2.03125q0 1.125 0.765625 1.90625q0.75 0.765625 2.015625 0.84375zm-5.703125 -14.324646l-1.890625 0l0 -1.640625l1.890625 0l0 1.640625zm11.46875 0l-9.671875 0l0 -1.640625l9.671875 0l0 1.640625zm0 -4.144821l-9.671875 0l0 -1.46875l1.375 0q-1.59375 -1.0625 -1.59375 -3.078125q0 -0.875 0.3125 -1.609375q0.3125 -0.734375 0.828125 -1.09375q0.5 -0.375 1.203125 -0.515625q0.453125 -0.09375 1.59375 -0.09375l5.953125 0l0 1.640625l-5.890625 0q-1.0 0 -1.484375 0.203125q-0.5 0.1875 -0.796875 0.671875q-0.296875 0.484375 -0.296875 1.140625q0 1.046875 0.671875 1.8125q0.65625 0.75 2.515625 0.75l5.28125 0l0 1.640625zm0 -21.887146l-1.421875 0q1.640625 1.125 1.640625 3.0625q0 0.859375 -0.328125 1.609375q-0.328125 0.734375 -0.828125 1.09375q-0.5 0.359375 -1.21875 0.5q-0.46875 0.109375 -1.53125 0.109375l-5.984375 0l0 -1.640625l5.359375 0q1.28125 0 1.734375 -0.109375q0.640625 -0.15625 1.015625 -0.65625q0.375 -0.5 0.375 -1.234375q0 -0.734375 -0.375 -1.375q-0.390625 -0.65625 -1.03125 -0.921875q-0.65625 -0.265625 -1.890625 -0.265625l-5.1875 0l0 -1.640625l9.671875 0l0 1.46875zm-1.46875 -7.625717l1.453125 -0.234375q0.140625 0.6875 0.140625 1.234375q0 0.890625 -0.28125 1.390625q-0.28125 0.484375 -0.734375 0.6875q-0.46875 0.203125 -1.9375 0.203125l-5.578125 0l0 1.203125l-1.265625 0l0 -1.203125l-2.390625 0l-0.984375 -1.625l3.375 0l0 -1.65625l1.265625 0l0 1.65625l5.671875 0q0.6875 0 0.890625 -0.078125q0.203125 -0.09375 0.328125 -0.28125q0.109375 -0.203125 0.109375 -0.578125q0 -0.265625 -0.0625 -0.71875zm-10.0 -1.6051788l-1.890625 0l0 -1.640625l1.890625 0l0 1.640625zm11.46875 0l-9.671875 0l0 -1.640625l9.671875 0l0 1.640625zm0 -4.097946l-13.359375 0l0 -1.640625l13.359375 0l0 1.640625zm-11.46875 -4.191696l-1.890625 0l0 -1.640625l1.890625 0l0 1.640625zm11.46875 0l-9.671875 0l0 -1.640625l9.671875 0l0 1.640625zm-1.46875 -7.722946l1.453125 -0.234375q0.140625 0.6875 0.140625 1.234375q0 0.890625 -0.28125 1.390625q-0.28125 0.484375 -0.734375 0.6875q-0.46875 0.203125 -1.9375 0.203125l-5.578125 0l0 1.203125l-1.265625 0l0 -1.203125l-2.390625 0l-0.984375 -1.625l3.375 0l0 -1.65625l1.265625 0l0 1.65625l5.671875 0q0.6875 0 0.890625 -0.078125q0.203125 -0.09375 0.328125 -0.28125q0.109375 -0.203125 0.109375 -0.578125q0 -0.265625 -0.0625 -0.71875zm5.1875 -1.5270538l-1.53125 0.1875q0.140625 -0.546875 0.140625 -0.9375q0 -0.546875 -0.1875 -0.875q-0.171875 -0.328125 -0.5 -0.546875q-0.25 -0.15625 -1.21875 -0.5q-0.140625 -0.046875 -0.40625 -0.140625l-9.6875 3.671875l0 -1.765625l5.59375 -2.015625q1.078125 -0.390625 2.25 -0.703125q-1.125 -0.28125 -2.203125 -0.671875l-5.640625 -2.078125l0 -1.640625l9.828125 3.6875q1.609375 0.59375 2.203125 0.921875q0.8125 0.4375 1.1875 1.0q0.375 0.5625 0.375 1.34375q0 0.484375 -0.203125 1.0625z" fill-rule="nonzero"/><path fill="#000000" fill-opacity="0.0" d="m381.147 187.97638l101.921265 0l0 29.984253l-101.921265 0z" fill-rule="evenodd"/><path fill="#000000" d="m401.7095 213.45888q1.234375 0.859375 2.265625 1.25l-0.515625 1.21875q-1.4375 -0.515625 -2.875 -1.625q-1.484375 0.828125 -3.28125 0.828125q-1.8125 0 -3.296875 -0.875q-1.46875 -0.875 -2.265625 -2.453125q-0.796875 -1.59375 -0.796875 -3.578125q0 -1.984375 0.796875 -3.59375q0.8125 -1.625 2.28125 -2.46875q1.484375 -0.859375 3.328125 -0.859375q1.84375 0 3.328125 0.890625q1.484375 0.875 2.265625 2.453125q0.78125 1.578125 0.78125 3.5625q0 1.65625 -0.5 2.96875q-0.5 1.3125 -1.515625 2.28125zm-3.890625 -2.25q1.53125 0.421875 2.515625 1.28125q1.5625 -1.421875 1.5625 -4.28125q0 -1.625 -0.546875 -2.828125q-0.546875 -1.21875 -1.609375 -1.875q-1.0625 -0.671875 -2.390625 -0.671875q-1.96875 0 -3.28125 1.359375q-1.296875 1.34375 -1.296875 4.03125q0 2.59375 1.28125 4.0q1.296875 1.390625 3.296875 1.390625q0.953125 0 1.78125 -0.359375q-0.828125 -0.53125 -1.75 -0.765625l0.4375 -1.28125zm14.402039 3.6875l0 -1.421875q-1.125 1.640625 -3.0625 1.640625q-0.859375 0 -1.609375 -0.328125q-0.734375 -0.328125 -1.09375 -0.828125q-0.359375 -0.5 -0.5 -1.21875q-0.109375 -0.46875 -0.109375 -1.53125l0 -5.984375l1.640625 0l0 5.359375q0 1.28125 0.109375 1.734375q0.15625 0.640625 0.65625 1.015625q0.5 0.375 1.234375 0.375q0.734375 0 1.375 -0.375q0.65625 -0.390625 0.921875 -1.03125q0.265625 -0.65625 0.265625 -1.890625l0 -5.1875l1.640625 0l0 9.671875l-1.46875 0zm10.360107 -1.1875q-0.921875 0.765625 -1.765625 1.09375q-0.828125 0.3125 -1.796875 0.3125q-1.59375 0 -2.453125 -0.78125q-0.859375 -0.78125 -0.859375 -1.984375q0 -0.71875 0.328125 -1.296875q0.328125 -0.59375 0.84375 -0.9375q0.53125 -0.359375 1.1875 -0.546875q0.46875 -0.125 1.453125 -0.25q1.984375 -0.234375 2.921875 -0.5625q0.015625 -0.34375 0.015625 -0.421875q0 -1.0 -0.46875 -1.421875q-0.625 -0.546875 -1.875 -0.546875q-1.15625 0 -1.703125 0.40625q-0.546875 0.40625 -0.8125 1.421875l-1.609375 -0.21875q0.21875 -1.015625 0.71875 -1.640625q0.5 -0.640625 1.453125 -0.984375q0.953125 -0.34375 2.1875 -0.34375q1.25 0 2.015625 0.296875q0.78125 0.28125 1.140625 0.734375q0.375 0.4375 0.515625 1.109375q0.078125 0.421875 0.078125 1.515625l0 2.1875q0 2.28125 0.109375 2.890625q0.109375 0.59375 0.40625 1.15625l-1.703125 0q-0.265625 -0.515625 -0.328125 -1.1875zm-0.140625 -3.671875q-0.890625 0.375 -2.671875 0.625q-1.015625 0.140625 -1.4375 0.328125q-0.421875 0.1875 -0.65625 0.53125q-0.21875 0.34375 -0.21875 0.78125q0 0.65625 0.5 1.09375q0.5 0.4375 1.453125 0.4375q0.9375 0 1.671875 -0.40625q0.75 -0.421875 1.09375 -1.140625q0.265625 -0.5625 0.265625 -1.640625l0 -0.609375zm4.203827 4.859375l0 -9.671875l1.46875 0l0 1.375q1.0625 -1.59375 3.078125 -1.59375q0.875 0 1.609375 0.3125q0.734375 0.3125 1.09375 0.828125q0.375 0.5 0.515625 1.203125q0.09375 0.453125 0.09375 1.59375l0 5.953125l-1.640625 0l0 -5.890625q0 -1.0 -0.203125 -1.484375q-0.1875 -0.5 -0.671875 -0.796875q-0.484375 -0.296875 -1.140625 -0.296875q-1.046875 0 -1.8125 0.671875q-0.75 0.65625 -0.75 2.515625l0 5.28125l-1.640625 0zm13.953857 -1.46875l0.234375 1.453125q-0.6875 0.140625 -1.234375 0.140625q-0.890625 0 -1.390625 -0.28125q-0.484375 -0.28125 -0.6875 -0.734375q-0.203125 -0.46875 -0.203125 -1.9375l0 -5.578125l-1.203125 0l0 -1.265625l1.203125 0l0 -2.390625l1.625 -0.984375l0 3.375l1.65625 0l0 1.265625l-1.65625 0l0 5.671875q0 0.6875 0.078125 0.890625q0.09375 0.203125 0.28125 0.328125q0.203125 0.109375 0.578125 0.109375q0.265625 0 0.71875 -0.0625zm1.6051636 -10.0l0 -1.890625l1.640625 0l0 1.890625l-1.640625 0zm0 11.46875l0 -9.671875l1.640625 0l0 9.671875l-1.640625 0zm7.7229614 -1.46875l0.234375 1.453125q-0.6875 0.140625 -1.234375 0.140625q-0.890625 0 -1.390625 -0.28125q-0.484375 -0.28125 -0.6875 -0.734375q-0.203125 -0.46875 -0.203125 -1.9375l0 -5.578125l-1.203125 0l0 -1.265625l1.203125 0l0 -2.390625l1.625 -0.984375l0 3.375l1.65625 0l0 1.265625l-1.65625 0l0 5.671875q0 0.6875 0.078125 0.890625q0.09375 0.203125 0.28125 0.328125q0.203125 0.109375 0.578125 0.109375q0.265625 0 0.71875 -0.0625zm1.5270386 5.1875l-0.1875 -1.53125q0.546875 0.140625 0.9375 0.140625q0.546875 0 0.875 -0.1875q0.328125 -0.171875 0.546875 -0.5q0.15625 -0.25 0.5 -1.21875q0.046875 -0.140625 0.140625 -0.40625l-3.671875 -9.6875l1.765625 0l2.015625 5.59375q0.390625 1.078125 0.703125 2.25q0.28125 -1.125 0.671875 -2.203125l2.078125 -5.640625l1.640625 0l-3.6875 9.828125q-0.59375 1.609375 -0.921875 2.203125q-0.4375 0.8125 -1.0 1.1875q-0.5625 0.375 -1.34375 0.375q-0.484375 0 -1.0625 -0.203125z" fill-rule="nonzero"/><path fill="#000000" fill-opacity="0.0" d="m576.34644 198.59055l0 -188.31496" fill-rule="evenodd"/><path stroke="#000000" stroke-width="1.0" stroke-linejoin="round" stroke-linecap="butt" d="m576.34644 198.59055l0 -182.31496" fill-rule="evenodd"/><path fill="#000000" stroke="#000000" stroke-width="1.0" stroke-linecap="butt" d="m577.99817 16.27559l-1.6517334 -4.5380983l-1.6517334 4.5380983z" fill-rule="evenodd"/><path fill="#000000" fill-opacity="0.0" d="m573.0866 194.02887l225.44885 0" fill-rule="evenodd"/><path stroke="#000000" stroke-width="1.0" stroke-linejoin="round" stroke-linecap="butt" d="m573.0866 194.02887l219.44885 0" fill-rule="evenodd"/><path fill="#000000" stroke="#000000" stroke-width="1.0" stroke-linecap="butt" d="m792.53546 195.6806l4.538086 -1.6517334l-4.538086 -1.6517334z" fill-rule="evenodd"/><path fill="#000000" fill-opacity="0.0" d="m578.2992 46.228348c2.93219 4.190624 11.511841 16.681992 17.5932 25.143745c6.08136 8.461761 12.922119 18.534973 18.89502 25.6268c5.9728394 7.0918274 9.014404 10.154373 16.94226 16.924164c7.9277954 6.7697983 18.896301 17.005653 30.624634 23.694618c11.728394 6.6889496 25.627747 12.248535 39.745422 16.439163c14.117676 4.190628 30.951477 6.367264 44.960632 8.704575c14.009216 2.337326 32.578735 4.4328003 39.094482 5.3193665" fill-rule="evenodd"/><path stroke="#93c47d" stroke-width="3.0" stroke-linejoin="round" stroke-linecap="butt" d="m578.2992 46.228348c2.93219 4.190624 11.511841 16.681992 17.5932 25.143745c6.08136 8.461761 12.922119 18.534973 18.89502 25.6268c5.9728394 7.0918274 9.014404 10.154373 16.94226 16.924164c7.9277954 6.7697983 18.896301 17.005653 30.624634 23.694618c11.728394 6.6889496 25.627747 12.248535 39.745422 16.439163c14.117676 4.190628 30.951477 6.367264 44.960632 8.704575c14.009216 2.337326 32.578735 4.4328003 39.094482 5.3193665" fill-rule="evenodd"/><path fill="#000000" fill-opacity="0.0" d="m538.36426 183.979l0 -165.51181l29.984253 0l0 165.51181z" fill-rule="evenodd"/><path fill="#000000" d="m565.28424 175.01025l-13.359375 -5.125l0 -1.90625l13.359375 -5.46875l0 2.015625l-4.046875 1.546875l0 5.59375l4.046875 1.46875l0 1.875zm-5.484375 -3.859375l0 -4.53125l-3.703125 1.40625q-1.6875 0.625 -2.765625 0.9375q1.28125 0.265625 2.546875 0.71875l3.921875 1.46875zm1.9375 -16.162323l0.21875 -1.609375q1.65625 0.265625 2.609375 1.359375q0.9375 1.078125 0.9375 2.671875q0 1.984375 -1.296875 3.1875q-1.296875 1.203125 -3.71875 1.203125q-1.578125 0 -2.75 -0.515625q-1.171875 -0.515625 -1.75 -1.578125q-0.59375 -1.0625 -0.59375 -2.3125q0 -1.578125 0.796875 -2.578125q0.796875 -1.0 2.265625 -1.28125l0.234375 1.59375q-0.96875 0.234375 -1.453125 0.8125q-0.5 0.578125 -0.5 1.390625q0 1.234375 0.890625 2.015625q0.890625 0.78125 2.8125 0.78125q1.953125 0 2.84375 -0.75q0.875 -0.75 0.875 -1.953125q0 -0.96875 -0.59375 -1.609375q-0.59375 -0.65625 -1.828125 -0.828125zm0 -9.328125l0.21875 -1.609375q1.65625 0.265625 2.609375 1.359375q0.9375 1.078125 0.9375 2.671875q0 1.984375 -1.296875 3.1875q-1.296875 1.203125 -3.71875 1.203125q-1.578125 0 -2.75 -0.515625q-1.171875 -0.515625 -1.75 -1.578125q-0.59375 -1.0625 -0.59375 -2.3125q0 -1.578125 0.796875 -2.578125q0.796875 -1.0 2.265625 -1.28125l0.234375 1.59375q-0.96875 0.234375 -1.453125 0.8125q-0.5 0.578125 -0.5 1.390625q0 1.234375 0.890625 2.015625q0.890625 0.78125 2.8125 0.78125q1.953125 0 2.84375 -0.75q0.875 -0.75 0.875 -1.953125q0 -0.96875 -0.59375 -1.609375q-0.59375 -0.65625 -1.828125 -0.828125zm0.4375 -9.640625l0.203125 -1.6875q1.484375 0.40625 2.3125 1.484375q0.8125 1.078125 0.8125 2.765625q0 2.125 -1.296875 3.375q-1.3125 1.234375 -3.671875 1.234375q-2.453125 0 -3.796875 -1.25q-1.34375 -1.265625 -1.34375 -3.265625q0 -1.9375 1.328125 -3.15625q1.3125 -1.234375 3.703125 -1.234375q0.15625 0 0.4375 0l0 7.21875q1.59375 -0.09375 2.453125 -0.90625q0.84375 -0.8125 0.84375 -2.015625q0 -0.90625 -0.46875 -1.546875q-0.484375 -0.640625 -1.515625 -1.015625zm-2.65625 5.390625l0 -5.40625q-1.21875 0.109375 -1.828125 0.625q-0.953125 0.78125 -0.953125 2.03125q0 1.125 0.765625 1.90625q0.75 0.765625 2.015625 0.84375zm9.46875 -9.141342l-13.375 0l0 -1.484375l1.25 0q-0.734375 -0.53125 -1.09375 -1.1875q-0.375 -0.671875 -0.375 -1.625q0 -1.234375 0.640625 -2.171875q0.625 -0.953125 1.796875 -1.4375q1.15625 -0.484375 2.546875 -0.484375q1.484375 0 2.671875 0.53125q1.1875 0.53125 1.828125 1.546875q0.625 1.015625 0.625 2.140625q0 0.8125 -0.34375 1.46875q-0.34375 0.65625 -0.875 1.0625l4.703125 0l0 1.640625zm-8.484375 -1.484375q1.859375 0 2.765625 -0.75q0.890625 -0.765625 0.890625 -1.828125q0 -1.09375 -0.921875 -1.875q-0.9375 -0.78125 -2.875 -0.78125q-1.84375 0 -2.765625 0.765625q-0.921875 0.75 -0.921875 1.8125q0 1.046875 0.984375 1.859375q0.96875 0.796875 2.84375 0.796875zm3.3125 -12.469467l1.453125 -0.234375q0.140625 0.6875 0.140625 1.234375q0 0.890625 -0.28125 1.390625q-0.28125 0.484375 -0.734375 0.6875q-0.46875 0.203125 -1.9375 0.203125l-5.578125 0l0 1.203125l-1.265625 0l0 -1.203125l-2.390625 0l-0.984375 -1.625l3.375 0l0 -1.65625l1.265625 0l0 1.65625l5.671875 0q0.6875 0 0.890625 -0.078125q0.203125 -0.09375 0.328125 -0.28125q0.109375 -0.203125 0.109375 -0.578125q0 -0.265625 -0.0625 -0.71875zm0.28125 -7.917679q0.765625 0.921875 1.09375 1.765625q0.3125 0.828125 0.3125 1.796875q0 1.59375 -0.78125 2.453125q-0.78125 0.859375 -1.984375 0.859375q-0.71875 0 -1.296875 -0.328125q-0.59375 -0.328125 -0.9375 -0.84375q-0.359375 -0.53125 -0.546875 -1.1875q-0.125 -0.46875 -0.25 -1.453125q-0.234375 -1.984375 -0.5625 -2.921875q-0.34375 -0.015625 -0.421875 -0.015625q-1.0 0 -1.421875 0.46875q-0.546875 0.625 -0.546875 1.875q0 1.15625 0.40625 1.703125q0.40625 0.546875 1.421875 0.8125l-0.21875 1.609375q-1.015625 -0.21875 -1.640625 -0.71875q-0.640625 -0.5 -0.984375 -1.453125q-0.34375 -0.953125 -0.34375 -2.1875q0 -1.25 0.296875 -2.015625q0.28125 -0.78125 0.734375 -1.140625q0.4375 -0.375 1.109375 -0.515625q0.421875 -0.078125 1.515625 -0.078125l2.1875 0q2.28125 0 2.890625 -0.109375q0.59375 -0.109375 1.15625 -0.40625l0 1.703125q-0.515625 0.265625 -1.1875 0.328125zm-3.671875 0.140625q0.375 0.890625 0.625 2.671875q0.140625 1.015625 0.328125 1.4375q0.1875 0.421875 0.53125 0.65625q0.34375 0.21875 0.78125 0.21875q0.65625 0 1.09375 -0.5q0.4375 -0.5 0.4375 -1.453125q0 -0.9375 -0.40625 -1.671875q-0.421875 -0.75 -1.140625 -1.09375q-0.5625 -0.265625 -1.640625 -0.265625l-0.609375 0zm4.859375 -5.703842l0 1.515625l-13.359375 0l0 -1.640625l4.765625 0q-1.296875 -1.046875 -1.296875 -2.65625q0 -0.890625 0.359375 -1.6875q0.359375 -0.796875 1.015625 -1.3125q0.640625 -0.515625 1.5625 -0.796875q0.921875 -0.296875 1.96875 -0.296875q2.484375 0 3.84375 1.234375q1.359375 1.21875 1.359375 2.953125q0 1.703125 -1.4375 2.6875l1.21875 0zm-4.90625 0.015625q1.734375 0 2.515625 -0.484375q1.265625 -0.765625 1.265625 -2.09375q0 -1.078125 -0.9375 -1.859375q-0.9375 -0.78125 -2.78125 -0.78125q-1.890625 0 -2.796875 0.75q-0.90625 0.75 -0.90625 1.828125q0 1.0625 0.9375 1.859375q0.9375 0.78125 2.703125 0.78125zm4.90625 -8.844467l-13.359375 0l0 -1.640625l13.359375 0l0 1.640625zm-3.109375 -10.816696l0.203125 -1.6875q1.484375 0.40625 2.3125 1.484375q0.8125 1.078125 0.8125 2.765625q0 2.125 -1.296875 3.375q-1.3125 1.234375 -3.671875 1.234375q-2.453125 0 -3.796875 -1.25q-1.34375 -1.265625 -1.34375 -3.265625q0 -1.9375 1.328125 -3.15625q1.3125 -1.234375 3.703125 -1.234375q0.15625 0 0.4375 0l0 7.21875q1.59375 -0.09375 2.453125 -0.90625q0.84375 -0.8125 0.84375 -2.015625q0 -0.90625 -0.46875 -1.546875q-0.484375 -0.640625 -1.515625 -1.015625zm-2.65625 5.390625l0 -5.40625q-1.21875 0.109375 -1.828125 0.625q-0.953125 0.78125 -0.953125 2.03125q0 1.125 0.765625 1.90625q0.75 0.765625 2.015625 0.84375zm9.46875 -14.324646l-13.375 0l0 -1.484375l1.25 0q-0.734375 -0.53125 -1.09375 -1.1875q-0.375 -0.671875 -0.375 -1.625q0 -1.234375 0.640625 -2.171875q0.625 -0.953125 1.796875 -1.4375q1.15625 -0.484375 2.546875 -0.484375q1.484375 0 2.671875 0.53125q1.1875 0.53125 1.828125 1.546875q0.625 1.015625 0.625 2.140625q0 0.8125 -0.34375 1.46875q-0.34375 0.65625 -0.875 1.0625l4.703125 0l0 1.640625zm-8.484375 -1.484375q1.859375 0 2.765625 -0.75q0.890625 -0.765625 0.890625 -1.828125q0 -1.09375 -0.921875 -1.875q-0.9375 -0.78125 -2.875 -0.78125q-1.84375 0 -2.765625 0.765625q-0.921875 0.75 -0.921875 1.8125q0 1.046875 0.984375 1.859375q0.96875 0.796875 2.84375 0.796875zm4.78125 -8.875717l-9.671875 0l0 -1.46875l1.46875 0q-1.03125 -0.5625 -1.359375 -1.03125q-0.328125 -0.484375 -0.328125 -1.0625q0 -0.828125 0.53125 -1.6875l1.515625 0.5625q-0.359375 0.609375 -0.359375 1.203125q0 0.546875 0.328125 0.96875q0.328125 0.421875 0.890625 0.609375q0.875 0.28125 1.921875 0.28125l5.0625 0l0 1.625zm-11.46875 -6.228302l-1.890625 0l0 -1.640625l1.890625 0l0 1.640625zm11.46875 0l-9.671875 0l0 -1.640625l9.671875 0l0 1.640625zm-3.546875 -10.457321l0.21875 -1.609375q1.65625 0.265625 2.609375 1.359375q0.9375 1.078125 0.9375 2.671875q0 1.984375 -1.296875 3.1875q-1.296875 1.203125 -3.71875 1.203125q-1.578125 0 -2.75 -0.515625q-1.171875 -0.515625 -1.75 -1.578125q-0.59375 -1.0625 -0.59375 -2.3125q0 -1.578125 0.796875 -2.578125q0.796875 -1.0 2.265625 -1.28125l0.234375 1.59375q-0.96875 0.234375 -1.453125 0.8125q-0.5 0.578125 -0.5 1.390625q0 1.234375 0.890625 2.015625q0.890625 0.78125 2.8125 0.78125q1.953125 0 2.84375 -0.75q0.875 -0.75 0.875 -1.953125q0 -0.96875 -0.59375 -1.609375q-0.59375 -0.65625 -1.828125 -0.828125zm0.4375 -9.640625l0.203125 -1.6875q1.484375 0.40625 2.3125 1.484375q0.8125 1.078125 0.8125 2.765625q0 2.125 -1.296875 3.375q-1.3125 1.234375 -3.671875 1.234375q-2.453125 0 -3.796875 -1.25q-1.34375 -1.265625 -1.34375 -3.265625q0 -1.9375 1.328125 -3.15625q1.3125 -1.234375 3.703125 -1.234375q0.15625 0 0.4375 0l0 7.21875q1.59375 -0.09375 2.453125 -0.90625q0.84375 -0.8125 0.84375 -2.015625q0 -0.90625 -0.46875 -1.546875q-0.484375 -0.640625 -1.515625 -1.015625zm-2.65625 5.390625l0 -5.40625q-1.21875 0.109375 -1.828125 0.625q-0.953125 0.78125 -0.953125 2.03125q0 1.125 0.765625 1.90625q0.75 0.765625 2.015625 0.84375z" fill-rule="nonzero"/><path fill="#000000" fill-opacity="0.0" d="m605.147 187.97638l174.01575 0l0 29.984253l-174.01575 0z" fill-rule="evenodd"/><path fill="#000000" d="m625.7095 213.45888q1.234375 0.859375 2.265625 1.25l-0.515625 1.21875q-1.4375 -0.515625 -2.875 -1.625q-1.484375 0.828125 -3.28125 0.828125q-1.8125 0 -3.296875 -0.875q-1.46875 -0.875 -2.265625 -2.453125q-0.796875 -1.59375 -0.796875 -3.578125q0 -1.984375 0.796875 -3.59375q0.8125 -1.625 2.28125 -2.46875q1.484375 -0.859375 3.328125 -0.859375q1.84375 0 3.328125 0.890625q1.484375 0.875 2.265625 2.453125q0.78125 1.578125 0.78125 3.5625q0 1.65625 -0.5 2.96875q-0.5 1.3125 -1.515625 2.28125zm-3.890625 -2.25q1.53125 0.421875 2.515625 1.28125q1.5625 -1.421875 1.5625 -4.28125q0 -1.625 -0.546875 -2.828125q-0.546875 -1.21875 -1.609375 -1.875q-1.0625 -0.671875 -2.390625 -0.671875q-1.96875 0 -3.28125 1.359375q-1.296875 1.34375 -1.296875 4.03125q0 2.59375 1.28125 4.0q1.296875 1.390625 3.296875 1.390625q0.953125 0 1.78125 -0.359375q-0.828125 -0.53125 -1.75 -0.765625l0.4375 -1.28125zm14.402039 3.6875l0 -1.421875q-1.125 1.640625 -3.0625 1.640625q-0.859375 0 -1.609375 -0.328125q-0.734375 -0.328125 -1.09375 -0.828125q-0.359375 -0.5 -0.5 -1.21875q-0.109375 -0.46875 -0.109375 -1.53125l0 -5.984375l1.640625 0l0 5.359375q0 1.28125 0.109375 1.734375q0.15625 0.640625 0.65625 1.015625q0.5 0.375 1.234375 0.375q0.734375 0 1.375 -0.375q0.65625 -0.390625 0.921875 -1.03125q0.265625 -0.65625 0.265625 -1.890625l0 -5.1875l1.640625 0l0 9.671875l-1.46875 0zm10.360107 -1.1875q-0.921875 0.765625 -1.765625 1.09375q-0.828125 0.3125 -1.796875 0.3125q-1.59375 0 -2.453125 -0.78125q-0.859375 -0.78125 -0.859375 -1.984375q0 -0.71875 0.328125 -1.296875q0.328125 -0.59375 0.84375 -0.9375q0.53125 -0.359375 1.1875 -0.546875q0.46875 -0.125 1.453125 -0.25q1.984375 -0.234375 2.921875 -0.5625q0.015625 -0.34375 0.015625 -0.421875q0 -1.0 -0.46875 -1.421875q-0.625 -0.546875 -1.875 -0.546875q-1.15625 0 -1.703125 0.40625q-0.546875 0.40625 -0.8125 1.421875l-1.609375 -0.21875q0.21875 -1.015625 0.71875 -1.640625q0.5 -0.640625 1.453125 -0.984375q0.953125 -0.34375 2.1875 -0.34375q1.25 0 2.015625 0.296875q0.78125 0.28125 1.140625 0.734375q0.375 0.4375 0.515625 1.109375q0.078125 0.421875 0.078125 1.515625l0 2.1875q0 2.28125 0.109375 2.890625q0.109375 0.59375 0.40625 1.15625l-1.703125 0q-0.265625 -0.515625 -0.328125 -1.1875zm-0.140625 -3.671875q-0.890625 0.375 -2.671875 0.625q-1.015625 0.140625 -1.4375 0.328125q-0.421875 0.1875 -0.65625 0.53125q-0.21875 0.34375 -0.21875 0.78125q0 0.65625 0.5 1.09375q0.5 0.4375 1.453125 0.4375q0.9375 0 1.671875 -0.40625q0.75 -0.421875 1.09375 -1.140625q0.265625 -0.5625 0.265625 -1.640625l0 -0.609375zm4.2038574 4.859375l0 -9.671875l1.46875 0l0 1.375q1.0625 -1.59375 3.078125 -1.59375q0.875 0 1.609375 0.3125q0.734375 0.3125 1.09375 0.828125q0.375 0.5 0.515625 1.203125q0.09375 0.453125 0.09375 1.59375l0 5.953125l-1.640625 0l0 -5.890625q0 -1.0 -0.203125 -1.484375q-0.1875 -0.5 -0.671875 -0.796875q-0.484375 -0.296875 -1.140625 -0.296875q-1.046875 0 -1.8125 0.671875q-0.75 0.65625 -0.75 2.515625l0 5.28125l-1.640625 0zm13.953857 -1.46875l0.234375 1.453125q-0.6875 0.140625 -1.234375 0.140625q-0.890625 0 -1.390625 -0.28125q-0.484375 -0.28125 -0.6875 -0.734375q-0.203125 -0.46875 -0.203125 -1.9375l0 -5.578125l-1.203125 0l0 -1.265625l1.203125 0l0 -2.390625l1.625 -0.984375l0 3.375l1.65625 0l0 1.265625l-1.65625 0l0 5.671875q0 0.6875 0.078125 0.890625q0.09375 0.203125 0.28125 0.328125q0.203125 0.109375 0.578125 0.109375q0.265625 0 0.71875 -0.0625zm1.6051636 -10.0l0 -1.890625l1.640625 0l0 1.890625l-1.640625 0zm0 11.46875l0 -9.671875l1.640625 0l0 9.671875l-1.640625 0zm7.7229614 -1.46875l0.234375 1.453125q-0.6875 0.140625 -1.234375 0.140625q-0.890625 0 -1.390625 -0.28125q-0.484375 -0.28125 -0.6875 -0.734375q-0.203125 -0.46875 -0.203125 -1.9375l0 -5.578125l-1.203125 0l0 -1.265625l1.203125 0l0 -2.390625l1.625 -0.984375l0 3.375l1.65625 0l0 1.265625l-1.65625 0l0 5.671875q0 0.6875 0.078125 0.890625q0.09375 0.203125 0.28125 0.328125q0.203125 0.109375 0.578125 0.109375q0.265625 0 0.71875 -0.0625zm1.5270386 5.1875l-0.1875 -1.53125q0.546875 0.140625 0.9375 0.140625q0.546875 0 0.875 -0.1875q0.328125 -0.171875 0.546875 -0.5q0.15625 -0.25 0.5 -1.21875q0.046875 -0.140625 0.140625 -0.40625l-3.671875 -9.6875l1.765625 0l2.015625 5.59375q0.390625 1.078125 0.703125 2.25q0.28125 -1.125 0.671875 -2.203125l2.078125 -5.640625l1.640625 0l-3.6875 9.828125q-0.59375 1.609375 -0.921875 2.203125q-0.4375 0.8125 -1.0 1.1875q-0.5625 0.375 -1.34375 0.375q-0.484375 0 -1.0625 -0.203125zm17.714539 0.203125q-1.359375 -1.703125 -2.296875 -4.0q-0.9375 -2.296875 -0.9375 -4.765625q0 -2.15625 0.703125 -4.140625q0.828125 -2.3125 2.53125 -4.59375l1.171875 0q-1.09375 1.890625 -1.453125 2.703125q-0.546875 1.25 -0.875 2.625q-0.390625 1.703125 -0.390625 3.421875q0 4.375 2.71875 8.75l-1.171875 0zm9.3533325 -3.921875l0 -1.21875q-0.90625 1.4375 -2.703125 1.4375q-1.15625 0 -2.125 -0.640625q-0.96875 -0.640625 -1.5 -1.78125q-0.53125 -1.140625 -0.53125 -2.625q0 -1.453125 0.484375 -2.625q0.484375 -1.1875 1.4375 -1.8125q0.96875 -0.625 2.171875 -0.625q0.875 0 1.546875 0.375q0.6875 0.359375 1.109375 0.953125l0 -4.796875l1.640625 0l0 13.359375l-1.53125 0zm-5.171875 -4.828125q0 1.859375 0.78125 2.78125q0.78125 0.921875 1.84375 0.921875q1.078125 0 1.828125 -0.875q0.75 -0.890625 0.75 -2.6875q0 -1.984375 -0.765625 -2.90625q-0.765625 -0.9375 -1.890625 -0.9375q-1.078125 0 -1.8125 0.890625q-0.734375 0.890625 -0.734375 2.8125zm15.906921 1.71875l1.6875 0.203125q-0.40625 1.484375 -1.484375 2.3125q-1.078125 0.8125 -2.765625 0.8125q-2.125 0 -3.375 -1.296875q-1.234375 -1.3125 -1.234375 -3.671875q0 -2.453125 1.25 -3.796875q1.265625 -1.34375 3.265625 -1.34375q1.9375 0 3.15625 1.328125q1.234375 1.3125 1.234375 3.703125q0 0.15625 0 0.4375l-7.21875 0q0.09375 1.59375 0.90625 2.453125q0.8125 0.84375 2.015625 0.84375q0.90625 0 1.546875 -0.46875q0.640625 -0.484375 1.015625 -1.515625zm-5.390625 -2.65625l5.40625 0q-0.109375 -1.21875 -0.625 -1.828125q-0.78125 -0.953125 -2.03125 -0.953125q-1.125 0 -1.90625 0.765625q-0.765625 0.75 -0.84375 2.015625zm9.141357 5.765625l0 -9.671875l1.46875 0l0 1.359375q0.453125 -0.71875 1.203125 -1.140625q0.765625 -0.4375 1.71875 -0.4375q1.078125 0 1.765625 0.453125q0.6875 0.4375 0.96875 1.234375q1.15625 -1.6875 2.984375 -1.6875q1.453125 0 2.21875 0.796875q0.78125 0.796875 0.78125 2.453125l0 6.640625l-1.640625 0l0 -6.09375q0 -0.984375 -0.15625 -1.40625q-0.15625 -0.4375 -0.578125 -0.703125q-0.421875 -0.265625 -0.984375 -0.265625q-1.015625 0 -1.6875 0.6875q-0.671875 0.671875 -0.671875 2.15625l0 5.625l-1.640625 0l0 -6.28125q0 -1.09375 -0.40625 -1.640625q-0.40625 -0.546875 -1.3125 -0.546875q-0.6875 0 -1.28125 0.359375q-0.59375 0.359375 -0.859375 1.0625q-0.25 0.703125 -0.25 2.03125l0 5.015625l-1.640625 0zm21.853333 -1.1875q-0.921875 0.765625 -1.765625 1.09375q-0.828125 0.3125 -1.796875 0.3125q-1.59375 0 -2.453125 -0.78125q-0.859375 -0.78125 -0.859375 -1.984375q0 -0.71875 0.328125 -1.296875q0.328125 -0.59375 0.84375 -0.9375q0.53125 -0.359375 1.1875 -0.546875q0.46875 -0.125 1.453125 -0.25q1.984375 -0.234375 2.921875 -0.5625q0.015625 -0.34375 0.015625 -0.421875q0 -1.0 -0.46875 -1.421875q-0.625 -0.546875 -1.875 -0.546875q-1.15625 0 -1.703125 0.40625q-0.546875 0.40625 -0.8125 1.421875l-1.609375 -0.21875q0.21875 -1.015625 0.71875 -1.640625q0.5 -0.640625 1.453125 -0.984375q0.953125 -0.34375 2.1875 -0.34375q1.25 0 2.015625 0.296875q0.78125 0.28125 1.140625 0.734375q0.375 0.4375 0.515625 1.109375q0.078125 0.421875 0.078125 1.515625l0 2.1875q0 2.28125 0.109375 2.890625q0.109375 0.59375 0.40625 1.15625l-1.703125 0q-0.265625 -0.515625 -0.328125 -1.1875zm-0.140625 -3.671875q-0.890625 0.375 -2.671875 0.625q-1.015625 0.140625 -1.4375 0.328125q-0.421875 0.1875 -0.65625 0.53125q-0.21875 0.34375 -0.21875 0.78125q0 0.65625 0.5 1.09375q0.5 0.4375 1.453125 0.4375q0.9375 0 1.671875 -0.40625q0.75 -0.421875 1.09375 -1.140625q0.265625 -0.5625 0.265625 -1.640625l0 -0.609375zm4.2037964 4.859375l0 -9.671875l1.46875 0l0 1.375q1.0625 -1.59375 3.078125 -1.59375q0.875 0 1.609375 0.3125q0.734375 0.3125 1.09375 0.828125q0.375 0.5 0.515625 1.203125q0.09375 0.453125 0.09375 1.59375l0 5.953125l-1.640625 0l0 -5.890625q0 -1.0 -0.203125 -1.484375q-0.1875 -0.5 -0.671875 -0.796875q-0.484375 -0.296875 -1.140625 -0.296875q-1.046875 0 -1.8125 0.671875q-0.75 0.65625 -0.75 2.515625l0 5.28125l-1.640625 0zm16.641357 0l0 -1.21875q-0.90625 1.4375 -2.703125 1.4375q-1.15625 0 -2.125 -0.640625q-0.96875 -0.640625 -1.5 -1.78125q-0.53125 -1.140625 -0.53125 -2.625q0 -1.453125 0.484375 -2.625q0.484375 -1.1875 1.4375 -1.8125q0.96875 -0.625 2.171875 -0.625q0.875 0 1.546875 0.375q0.6875 0.359375 1.109375 0.953125l0 -4.796875l1.640625 0l0 13.359375l-1.53125 0zm-5.171875 -4.828125q0 1.859375 0.78125 2.78125q0.78125 0.921875 1.84375 0.921875q1.078125 0 1.828125 -0.875q0.75 -0.890625 0.75 -2.6875q0 -1.984375 -0.765625 -2.90625q-0.765625 -0.9375 -1.890625 -0.9375q-1.078125 0 -1.8125 0.890625q-0.734375 0.890625 -0.734375 2.8125zm10.360107 8.75l-1.1875 0q2.734375 -4.375 2.734375 -8.75q0 -1.71875 -0.390625 -3.390625q-0.3125 -1.375 -0.875 -2.625q-0.359375 -0.828125 -1.46875 -2.734375l1.1875 0q1.703125 2.28125 2.53125 4.59375q0.6875 1.984375 0.6875 4.140625q0 2.46875 -0.9375 4.765625q-0.9375 2.296875 -2.28125 4.0z" fill-rule="nonzero"/><path fill="#000000" fill-opacity="0.0" d="m626.2992 109.70079l0 84.06299" fill-rule="evenodd"/><path stroke="#000000" stroke-width="1.0" stroke-linejoin="round" stroke-linecap="butt" stroke-dasharray="4.0,3.0" d="m626.2992 109.70079l0 84.06299" fill-rule="evenodd"/><path fill="#000000" fill-opacity="0.0" d="m626.95276 110.99213l-50.362183 0" fill-rule="evenodd"/><path stroke="#000000" stroke-width="1.0" stroke-linejoin="round" stroke-linecap="butt" stroke-dasharray="4.0,3.0" d="m626.95276 110.99213l-50.362183 0" fill-rule="evenodd"/></g></svg>
