<svg version="1.1" viewBox="0.0 0.0 815.4120734908137 712.8398950131234" fill="none" stroke="none" stroke-linecap="square" stroke-miterlimit="10" xmlns:xlink="http://www.w3.org/1999/xlink" xmlns="http://www.w3.org/2000/svg"><clipPath id="p.0"><path d="m0 0l815.41205 0l0 712.8399l-815.41205 0l0 -712.8399z" clip-rule="nonzero"/></clipPath><g clip-path="url(#p.0)"><path fill="#000000" fill-opacity="0.0" d="m0 0l815.41205 0l0 712.8399l-815.41205 0z" fill-rule="evenodd"/><path fill="#d9ead3" d="m669.6011 117.53143l144.0 0l0 488.66144l-144.0 0z" fill-rule="evenodd"/><path fill="#d9ead3" d="m0 108.13773l144.0 0l0 504.00003l-144.0 0z" fill-rule="evenodd"/><path fill="#efefef" d="m152.0 124.54193l511.59058 0l0 471.2126l-511.59058 0z" fill-rule="evenodd"/><g filter="url(#shadowFilter-p.1)"><use xlink:href="#p.1" transform="matrix(1.0 0.0 0.0 1.0 12.434335433070851 10.069126246719172)"/></g><defs><filter id="shadowFilter-p.1" filterUnits="userSpaceOnUse"><feGaussianBlur in="SourceAlpha" stdDeviation="7.0" result="blur"/><feComponentTransfer in="blur" color-interpolation-filters="sRGB"><feFuncR type="linear" slope="0" intercept="0.0"/><feFuncG type="linear" slope="0" intercept="0.0"/><feFuncB type="linear" slope="0" intercept="0.0"/><feFuncA type="linear" slope="0.5" intercept="0"/></feComponentTransfer></filter></defs><g id="p.1"><path fill="#9fc5e8" d="m178.80315 470.1367l0 -215.2126l49.606308 0l0 215.2126z" fill-rule="evenodd"/><path fill="#000000" d="m210.71379 395.91174q0 0.796875 -0.171875 1.703125q-0.171875 0.890625 -0.578125 1.59375q-0.21875 0.390625 -0.546875 0.484375q-0.328125 0.09375 -0.609375 -0.03125q-0.296875 -0.125 -0.421875 -0.40625q-0.140625 -0.296875 0.046875 -0.6875q0.359375 -0.734375 0.5 -1.390625q0.140625 -0.65625 0.140625 -1.296875q0 -0.890625 -0.3125 -1.328125q-0.3125 -0.4375 -0.8125 -0.4375q-0.78125 0 -1.0 1.15625l-0.359375 1.859375q-0.453125 2.375 -2.46875 2.375q-0.890625 0 -1.53125 -0.484375q-0.65625 -0.5 -1.015625 -1.375q-0.359375 -0.875 -0.359375 -2.015625q0 -1.640625 0.734375 -2.9375q0.1875 -0.34375 0.515625 -0.40625q0.3125 -0.078125 0.609375 0.0625q0.296875 0.140625 0.421875 0.4375q0.109375 0.296875 -0.078125 0.6875q-0.296875 0.578125 -0.421875 1.125q-0.140625 0.53125 -0.140625 1.015625q0 0.90625 0.328125 1.34375q0.3125 0.4375 0.828125 0.4375q0.828125 0 1.015625 -1.0625l0.34375 -1.859375q0.234375 -1.21875 0.828125 -1.84375q0.59375 -0.625 1.609375 -0.625q1.359375 0 2.140625 1.0625q0.765625 1.0625 0.765625 2.84375zm-11.171875 -6.932373q0 0.65625 -0.328125 1.03125q-0.328125 0.359375 -0.90625 0.359375q-0.59375 0 -0.90625 -0.359375q-0.328125 -0.375 -0.328125 -1.03125q0 -1.375 1.234375 -1.375q1.234375 0 1.234375 1.375zm11.109375 0q0 0.5625 -0.328125 0.859375q-0.34375 0.296875 -0.9375 0.296875l-6.84375 0q-1.265625 0 -1.265625 -1.15625q0 -1.171875 1.265625 -1.171875l6.84375 0q0.59375 0 0.9375 0.296875q0.328125 0.296875 0.328125 0.875zm0.0625 -7.7729797q0 3.625 -3.578125 3.625l-3.984375 0l0 0.96875q0 0.921875 -0.875 0.921875q-0.875 0 -0.875 -0.921875l0 -0.96875l-1.703125 0q-1.171875 0 -1.171875 -1.1875q0 -1.15625 1.171875 -1.15625l1.703125 0l0 -1.96875q0 -0.9375 0.875 -0.9375q0.875 0 0.875 0.9375l0 1.96875l3.84375 0q0.90625 0 1.359375 -0.390625q0.4375 -0.390625 0.4375 -1.265625q0 -0.3125 -0.046875 -0.546875q-0.0625 -0.25 -0.078125 -0.4375q-0.03125 -0.234375 0.140625 -0.375q0.15625 -0.15625 0.640625 -0.15625q0.375 0 0.671875 0.125q0.28125 0.125 0.390625 0.4375q0.078125 0.25 0.140625 0.640625q0.0625 0.390625 0.0625 0.6875zm0 -6.2890015q0 3.359375 -3.765625 3.359375l-4.515625 0q-1.171875 0 -1.171875 -1.15625q0 -1.171875 1.171875 -1.171875l4.546875 0q0.96875 0 1.4375 -0.390625q0.46875 -0.390625 0.46875 -1.25q0 -0.9375 -0.640625 -1.53125q-0.640625 -0.59375 -1.71875 -0.59375l-4.09375 0q-1.171875 0 -1.171875 -1.15625q0 -1.1875 1.171875 -1.1875l7.046875 0q1.203125 0 1.203125 1.140625q0 1.140625 -1.203125 1.140625l-0.3125 0q1.546875 0.90625 1.546875 2.796875zm0 -10.505096q0 0.984375 -0.375 1.765625q-0.390625 0.78125 -1.046875 1.21875q-0.65625 0.4375 -1.46875 0.4375q-1.015625 0 -1.59375 -0.515625q-0.59375 -0.53125 -0.84375 -1.703125q-0.265625 -1.1875 -0.265625 -3.15625l0 -0.65625l-0.390625 0q-0.9375 0 -1.34375 0.421875q-0.421875 0.40625 -0.421875 1.375q0 0.53125 0.140625 1.15625q0.125 0.625 0.4375 1.3125q0.21875 0.453125 0.0625 0.75q-0.171875 0.296875 -0.515625 0.40625q-0.34375 0.09375 -0.6875 -0.03125q-0.359375 -0.140625 -0.53125 -0.578125q-0.359375 -0.859375 -0.5 -1.640625q-0.15625 -0.796875 -0.15625 -1.453125q0 -2.0 0.921875 -2.96875q0.921875 -0.96875 2.875 -0.96875l4.46875 0q1.203125 0 1.203125 1.078125q0 1.109375 -1.203125 1.109375l-0.40625 0q0.765625 0.3125 1.203125 1.0q0.4375 0.6875 0.4375 1.640625zm-1.609375 -0.484375q0 -0.90625 -0.625 -1.515625q-0.640625 -0.609375 -1.609375 -0.609375l-0.40625 0l0 0.640625q0 1.75 0.265625 2.4375q0.265625 0.671875 0.984375 0.671875q0.609375 0 1.0 -0.421875q0.390625 -0.4375 0.390625 -1.203125zm1.609375 -10.892456q0 3.625 -3.578125 3.625l-3.984375 0l0 0.96875q0 0.921875 -0.875 0.921875q-0.875 0 -0.875 -0.921875l0 -0.96875l-1.703125 0q-1.171875 0 -1.171875 -1.1875q0 -1.15625 1.171875 -1.15625l1.703125 0l0 -1.96875q0 -0.9375 0.875 -0.9375q0.875 0 0.875 0.9375l0 1.96875l3.84375 0q0.90625 0 1.359375 -0.390625q0.4375 -0.390625 0.4375 -1.265625q0 -0.3125 -0.046875 -0.546875q-0.0625 -0.25 -0.078125 -0.4375q-0.03125 -0.234375 0.140625 -0.375q0.15625 -0.15625 0.640625 -0.15625q0.375 0 0.671875 0.125q0.28125 0.125 0.390625 0.4375q0.078125 0.25 0.140625 0.640625q0.0625 0.390625 0.0625 0.6875zm-11.171875 -4.3910522q0 0.65625 -0.328125 1.03125q-0.328125 0.359375 -0.90625 0.359375q-0.59375 0 -0.90625 -0.359375q-0.328125 -0.375 -0.328125 -1.03125q0 -1.375 1.234375 -1.375q1.234375 0 1.234375 1.375zm11.109375 0q0 0.5625 -0.328125 0.859375q-0.34375 0.296875 -0.9375 0.296875l-6.84375 0q-1.265625 0 -1.265625 -1.15625q0 -1.171875 1.265625 -1.171875l6.84375 0q0.59375 0 0.9375 0.296875q0.328125 0.296875 0.328125 0.875zm0.0625 -7.757324q0 1.421875 -0.578125 2.46875q-0.578125 1.046875 -1.640625 1.625q-1.078125 0.578125 -2.546875 0.578125q-1.453125 0 -2.515625 -0.578125q-1.0625 -0.578125 -1.640625 -1.625q-0.578125 -1.046875 -0.578125 -2.46875q0 -1.421875 0.578125 -2.453125q0.578125 -1.046875 1.640625 -1.625q1.0625 -0.578125 2.515625 -0.578125q1.46875 0 2.546875 0.578125q1.0625 0.578125 1.640625 1.625q0.578125 1.03125 0.578125 2.453125zm-1.765625 0q0 -1.046875 -0.75 -1.671875q-0.765625 -0.640625 -2.25 -0.640625q-1.484375 0 -2.21875 0.640625q-0.734375 0.625 -0.734375 1.671875q0 1.046875 0.734375 1.6875q0.734375 0.625 2.21875 0.625q1.484375 0 2.25 -0.625q0.75 -0.640625 0.75 -1.6875zm1.734375 -7.746002q0 1.15625 -1.203125 1.15625l-7.046875 0q-1.171875 0 -1.171875 -1.125q0 -1.140625 1.171875 -1.140625l0.390625 0q-0.78125 -0.46875 -1.1875 -1.265625q-0.421875 -0.796875 -0.421875 -1.78125q0 -3.21875 3.75 -3.21875l4.515625 0q1.203125 0 1.203125 1.15625q0 1.171875 -1.203125 1.171875l-4.40625 0q-1.0625 0 -1.546875 0.40625q-0.484375 0.390625 -0.484375 1.234375q0 1.03125 0.65625 1.640625q0.640625 0.59375 1.703125 0.59375l4.078125 0q1.203125 0 1.203125 1.171875z" fill-rule="nonzero"/></g><g filter="url(#shadowFilter-p.2)"><use xlink:href="#p.2" transform="matrix(1.0 0.0 0.0 1.0 12.434335433070851 10.069126246719172)"/></g><defs><filter id="shadowFilter-p.2" filterUnits="userSpaceOnUse"><feGaussianBlur in="SourceAlpha" stdDeviation="7.0" result="blur"/><feComponentTransfer in="blur" color-interpolation-filters="sRGB"><feFuncR type="linear" slope="0" intercept="0.0"/><feFuncG type="linear" slope="0" intercept="0.0"/><feFuncB type="linear" slope="0" intercept="0.0"/><feFuncA type="linear" slope="0.5" intercept="0"/></feComponentTransfer></filter></defs><g id="p.2"><path fill="#d5a6bd" d="m305.60104 162.94351l195.21262 0l0 69.60629l-195.21262 0z" fill-rule="evenodd"/><path fill="#000000" d="m376.19507 204.85416q-1.421875 0 -2.46875 -0.578125q-1.046875 -0.578125 -1.625 -1.640625q-0.578125 -1.078125 -0.578125 -2.546875q0 -1.453125 0.578125 -2.515625q0.578125 -1.0625 1.625 -1.640625q1.046875 -0.578125 2.46875 -0.578125q1.421875 0 2.453125 0.578125q1.046875 0.578125 1.625 1.640625q0.578125 1.0625 0.578125 2.515625q0 1.46875 -0.578125 2.546875q-0.578125 1.0625 -1.625 1.640625q-1.03125 0.578125 -2.453125 0.578125zm0 -1.765625q1.046875 0 1.671875 -0.75q0.640625 -0.765625 0.640625 -2.25q0 -1.484375 -0.640625 -2.21875q-0.625 -0.734375 -1.671875 -0.734375q-1.046875 0 -1.6875 0.734375q-0.625 0.734375 -0.625 2.21875q0 1.484375 0.625 2.25q0.640625 0.75 1.6875 0.75zm7.746002 5.078125q-1.15625 0 -1.15625 -1.171875l0 -10.421875q0 -1.171875 1.125 -1.171875q1.15625 0 1.15625 1.171875l0 0.390625q0.40625 -0.734375 1.1875 -1.171875q0.78125 -0.4375 1.78125 -0.4375q1.203125 0 2.109375 0.578125q0.90625 0.578125 1.40625 1.640625q0.5 1.046875 0.5 2.515625q0 1.46875 -0.5 2.546875q-0.5 1.0625 -1.40625 1.640625q-0.890625 0.578125 -2.109375 0.578125q-0.96875 0 -1.75 -0.421875q-0.765625 -0.421875 -1.171875 -1.125l0 3.6875q0 1.171875 -1.171875 1.171875zm3.453125 -5.078125q1.03125 0 1.671875 -0.75q0.640625 -0.765625 0.640625 -2.25q0 -1.484375 -0.640625 -2.21875q-0.640625 -0.734375 -1.671875 -0.734375q-1.046875 0 -1.6875 0.734375q-0.640625 0.734375 -0.640625 2.21875q0 1.484375 0.640625 2.25q0.640625 0.75 1.6875 0.75zm10.662903 1.765625q-3.625 0 -3.625 -3.578125l0 -3.984375l-0.96875 0q-0.921875 0 -0.921875 -0.875q0 -0.875 0.921875 -0.875l0.96875 0l0 -1.703125q0 -1.171875 1.1875 -1.171875q1.15625 0 1.15625 1.171875l0 1.703125l1.96875 0q0.9375 0 0.9375 0.875q0 0.875 -0.9375 0.875l-1.96875 0l0 3.84375q0 0.90625 0.390625 1.359375q0.390625 0.4375 1.265625 0.4375q0.3125 0 0.546875 -0.046875q0.25 -0.0625 0.4375 -0.078125q0.234375 -0.03125 0.375 0.140625q0.15625 0.15625 0.15625 0.640625q0 0.375 -0.125 0.671875q-0.125 0.28125 -0.4375 0.390625q-0.25 0.078125 -0.640625 0.140625q-0.390625 0.0625 -0.6875 0.0625zm4.3910522 -11.171875q-0.65625 0 -1.03125 -0.328125q-0.359375 -0.328125 -0.359375 -0.90625q0 -0.59375 0.359375 -0.90625q0.375 -0.328125 1.03125 -0.328125q1.375 0 1.375 1.234375q0 1.234375 -1.375 1.234375zm0 11.109375q-0.5625 0 -0.859375 -0.328125q-0.296875 -0.34375 -0.296875 -0.9375l0 -6.84375q0 -1.265625 1.15625 -1.265625q1.171875 0 1.171875 1.265625l0 6.84375q0 0.59375 -0.296875 0.9375q-0.296875 0.328125 -0.875 0.328125zm7.757324 0.0625q-1.421875 0 -2.46875 -0.578125q-1.046875 -0.578125 -1.625 -1.640625q-0.578125 -1.078125 -0.578125 -2.546875q0 -1.453125 0.578125 -2.515625q0.578125 -1.0625 1.625 -1.640625q1.046875 -0.578125 2.46875 -0.578125q1.421875 0 2.453125 0.578125q1.046875 0.578125 1.625 1.640625q0.578125 1.0625 0.578125 2.515625q0 1.46875 -0.578125 2.546875q-0.578125 1.0625 -1.625 1.640625q-1.03125 0.578125 -2.453125 0.578125zm0 -1.765625q1.046875 0 1.671875 -0.75q0.640625 -0.765625 0.640625 -2.25q0 -1.484375 -0.640625 -2.21875q-0.625 -0.734375 -1.671875 -0.734375q-1.046875 0 -1.6875 0.734375q-0.625 0.734375 -0.625 2.21875q0 1.484375 0.625 2.25q0.640625 0.75 1.6875 0.75zm7.746002 1.734375q-1.15625 0 -1.15625 -1.203125l0 -7.046875q0 -1.171875 1.125 -1.171875q1.140625 0 1.140625 1.171875l0 0.390625q0.46875 -0.78125 1.265625 -1.1875q0.796875 -0.421875 1.78125 -0.421875q3.21875 0 3.21875 3.75l0 4.515625q0 1.203125 -1.15625 1.203125q-1.171875 0 -1.171875 -1.203125l0 -4.40625q0 -1.0625 -0.40625 -1.546875q-0.390625 -0.484375 -1.234375 -0.484375q-1.03125 0 -1.640625 0.65625q-0.59375 0.640625 -0.59375 1.703125l0 4.078125q0 1.203125 -1.171875 1.203125zm13.085785 0.03125q-0.796875 0 -1.703125 -0.171875q-0.890625 -0.171875 -1.59375 -0.578125q-0.390625 -0.21875 -0.484375 -0.546875q-0.09375 -0.328125 0.03125 -0.609375q0.125 -0.296875 0.40625 -0.421875q0.296875 -0.140625 0.6875 0.046875q0.734375 0.359375 1.390625 0.5q0.65625 0.140625 1.296875 0.140625q0.890625 0 1.328125 -0.3125q0.4375 -0.3125 0.4375 -0.8125q0 -0.78125 -1.15625 -1.0l-1.859375 -0.359375q-2.375 -0.453125 -2.375 -2.46875q0 -0.890625 0.484375 -1.53125q0.5 -0.65625 1.375 -1.015625q0.875 -0.359375 2.015625 -0.359375q1.640625 0 2.9375 0.734375q0.34375 0.1875 0.40625 0.515625q0.078125 0.3125 -0.0625 0.609375q-0.140625 0.296875 -0.4375 0.421875q-0.296875 0.109375 -0.6875 -0.078125q-0.578125 -0.296875 -1.125 -0.421875q-0.53125 -0.140625 -1.015625 -0.140625q-0.90625 0 -1.34375 0.328125q-0.4375 0.3125 -0.4375 0.828125q0 0.828125 1.0625 1.015625l1.859375 0.34375q1.21875 0.234375 1.84375 0.828125q0.625 0.59375 0.625 1.609375q0 1.359375 -1.0625 2.140625q-1.0625 0.765625 -2.84375 0.765625z" fill-rule="nonzero"/></g><g filter="url(#shadowFilter-p.3)"><use xlink:href="#p.3" transform="matrix(1.0 0.0 0.0 1.0 12.434335433070851 10.069126246719172)"/></g><defs><filter id="shadowFilter-p.3" filterUnits="userSpaceOnUse"><feGaussianBlur in="SourceAlpha" stdDeviation="7.0" result="blur"/><feComponentTransfer in="blur" color-interpolation-filters="sRGB"><feFuncR type="linear" slope="0" intercept="0.0"/><feFuncG type="linear" slope="0" intercept="0.0"/><feFuncB type="linear" slope="0" intercept="0.0"/><feFuncA type="linear" slope="0.5" intercept="0"/></feComponentTransfer></filter></defs><g id="p.3"><path fill="#b6d7a8" d="m305.59317 306.5393l195.21262 0l0 110.61417l-195.21262 0z" fill-rule="evenodd"/><path fill="#000000" d="m344.8809 368.9539q-3.359375 0 -3.359375 -3.765625l0 -4.515625q0 -1.171875 1.15625 -1.171875q1.171875 0 1.171875 1.171875l0 4.546875q0 0.96875 0.390625 1.4375q0.390625 0.46875 1.25 0.46875q0.9375 0 1.53125 -0.640625q0.59375 -0.640625 0.59375 -1.71875l0 -4.09375q0 -1.171875 1.15625 -1.171875q1.1875 0 1.1875 1.171875l0 7.046875q0 1.203125 -1.140625 1.203125q-1.140625 0 -1.140625 -1.203125l0 -0.3125q-0.90625 1.546875 -2.796875 1.546875zm8.661346 -0.03125q-1.15625 0 -1.15625 -1.203125l0 -7.046875q0 -1.171875 1.125 -1.171875q1.140625 0 1.140625 1.171875l0 0.390625q0.46875 -0.78125 1.265625 -1.1875q0.796875 -0.421875 1.78125 -0.421875q3.21875 0 3.21875 3.75l0 4.515625q0 1.203125 -1.15625 1.203125q-1.171875 0 -1.171875 -1.203125l0 -4.40625q0 -1.0625 -0.40625 -1.546875q-0.390625 -0.484375 -1.234375 -0.484375q-1.03125 0 -1.640625 0.65625q-0.59375 0.640625 -0.59375 1.703125l0 4.078125q0 1.203125 -1.171875 1.203125zm13.25766 0.03125q-1.1875 0 -2.09375 -0.578125q-0.90625 -0.578125 -1.421875 -1.640625q-0.5 -1.078125 -0.5 -2.546875q0 -1.46875 0.5 -2.515625q0.515625 -1.0625 1.421875 -1.640625q0.90625 -0.578125 2.09375 -0.578125q0.96875 0 1.75 0.4375q0.78125 0.421875 1.1875 1.125l0 -4.375q0 -1.171875 1.15625 -1.171875q1.171875 0 1.171875 1.171875l0 11.078125q0 1.203125 -1.15625 1.203125q-1.15625 0 -1.15625 -1.203125l0 -0.390625q-0.390625 0.75 -1.1875 1.1875q-0.78125 0.4375 -1.765625 0.4375zm0.65625 -1.765625q1.046875 0 1.671875 -0.75q0.640625 -0.765625 0.640625 -2.25q0 -1.484375 -0.640625 -2.21875q-0.625 -0.734375 -1.671875 -0.734375q-1.046875 0 -1.6875 0.734375q-0.625 0.734375 -0.625 2.21875q0 1.484375 0.625 2.25q0.640625 0.75 1.6875 0.75zm11.521881 1.765625q-1.546875 0 -2.671875 -0.578125q-1.109375 -0.578125 -1.71875 -1.640625q-0.609375 -1.0625 -0.609375 -2.515625q0 -1.421875 0.59375 -2.484375q0.59375 -1.0625 1.625 -1.671875q1.03125 -0.609375 2.359375 -0.609375q1.9375 0 3.0625 1.234375q1.140625 1.234375 1.140625 3.359375q0 0.6875 -0.90625 0.6875l-5.625 0q0.25 2.453125 2.796875 2.453125q0.484375 0 1.078125 -0.125q0.609375 -0.125 1.15625 -0.421875q0.484375 -0.28125 0.8125 -0.171875q0.34375 0.09375 0.484375 0.390625q0.140625 0.296875 0.03125 0.671875q-0.09375 0.359375 -0.53125 0.625q-0.640625 0.40625 -1.5 0.609375q-0.84375 0.1875 -1.578125 0.1875zm-0.328125 -7.90625q-1.03125 0 -1.671875 0.640625q-0.625 0.625 -0.75 1.703125l4.578125 0q-0.0625 -1.140625 -0.625 -1.734375q-0.546875 -0.609375 -1.53125 -0.609375zm7.1429443 7.875q-1.1875 0 -1.1875 -1.203125l0 -7.046875q0 -1.171875 1.125 -1.171875q1.140625 0 1.140625 1.171875l0 0.578125q0.671875 -1.609375 2.875 -1.796875q0.796875 -0.09375 0.890625 0.921875q0.09375 0.984375 -0.96875 1.09375l-0.40625 0.046875q-2.296875 0.21875 -2.296875 2.34375l0 3.859375q0 1.203125 -1.171875 1.203125zm9.360535 0.03125q-0.796875 0 -1.703125 -0.171875q-0.890625 -0.171875 -1.59375 -0.578125q-0.390625 -0.21875 -0.484375 -0.546875q-0.09375 -0.328125 0.03125 -0.609375q0.125 -0.296875 0.40625 -0.421875q0.296875 -0.140625 0.6875 0.046875q0.734375 0.359375 1.390625 0.5q0.65625 0.140625 1.296875 0.140625q0.890625 0 1.328125 -0.3125q0.4375 -0.3125 0.4375 -0.8125q0 -0.78125 -1.15625 -1.0l-1.859375 -0.359375q-2.375 -0.453125 -2.375 -2.46875q0 -0.890625 0.484375 -1.53125q0.5 -0.65625 1.375 -1.015625q0.875 -0.359375 2.015625 -0.359375q1.640625 0 2.9375 0.734375q0.34375 0.1875 0.40625 0.515625q0.078125 0.3125 -0.0625 0.609375q-0.140625 0.296875 -0.4375 0.421875q-0.296875 0.109375 -0.6875 -0.078125q-0.578125 -0.296875 -1.125 -0.421875q-0.53125 -0.140625 -1.015625 -0.140625q-0.90625 0 -1.34375 0.328125q-0.4375 0.3125 -0.4375 0.828125q0 0.828125 1.0625 1.015625l1.859375 0.34375q1.21875 0.234375 1.84375 0.828125q0.625 0.59375 0.625 1.609375q0 1.359375 -1.0625 2.140625q-1.0625 0.765625 -2.84375 0.765625zm9.854675 0q-3.625 0 -3.625 -3.578125l0 -3.984375l-0.96875 0q-0.921875 0 -0.921875 -0.875q0 -0.875 0.921875 -0.875l0.96875 0l0 -1.703125q0 -1.171875 1.1875 -1.171875q1.15625 0 1.15625 1.171875l0 1.703125l1.96875 0q0.9375 0 0.9375 0.875q0 0.875 -0.9375 0.875l-1.96875 0l0 3.84375q0 0.90625 0.390625 1.359375q0.390625 0.4375 1.265625 0.4375q0.3125 0 0.546875 -0.046875q0.25 -0.0625 0.4375 -0.078125q0.234375 -0.03125 0.375 0.140625q0.15625 0.15625 0.15625 0.640625q0 0.375 -0.125 0.671875q-0.125 0.28125 -0.4375 0.390625q-0.25 0.078125 -0.640625 0.140625q-0.390625 0.0625 -0.6875 0.0625zm5.9921265 0q-0.984375 0 -1.765625 -0.375q-0.78125 -0.390625 -1.21875 -1.046875q-0.4375 -0.65625 -0.4375 -1.46875q0 -1.015625 0.515625 -1.59375q0.53125 -0.59375 1.703125 -0.84375q1.1875 -0.265625 3.15625 -0.265625l0.65625 0l0 -0.390625q0 -0.9375 -0.421875 -1.34375q-0.40625 -0.421875 -1.375 -0.421875q-0.53125 0 -1.15625 0.140625q-0.625 0.125 -1.3125 0.4375q-0.453125 0.21875 -0.75 0.0625q-0.296875 -0.171875 -0.40625 -0.515625q-0.09375 -0.34375 0.03125 -0.6875q0.140625 -0.359375 0.578125 -0.53125q0.859375 -0.359375 1.640625 -0.5q0.796875 -0.15625 1.453125 -0.15625q2.0 0 2.96875 0.921875q0.96875 0.921875 0.96875 2.875l0 4.46875q0 1.203125 -1.078125 1.203125q-1.109375 0 -1.109375 -1.203125l0 -0.40625q-0.3125 0.765625 -1.0 1.203125q-0.6875 0.4375 -1.640625 0.4375zm0.484375 -1.609375q0.90625 0 1.515625 -0.625q0.609375 -0.640625 0.609375 -1.609375l0 -0.40625l-0.640625 0q-1.75 0 -2.4375 0.265625q-0.671875 0.265625 -0.671875 0.984375q0 0.609375 0.421875 1.0q0.4375 0.390625 1.203125 0.390625zm7.876831 1.578125q-1.15625 0 -1.15625 -1.203125l0 -7.046875q0 -1.171875 1.125 -1.171875q1.140625 0 1.140625 1.171875l0 0.390625q0.46875 -0.78125 1.265625 -1.1875q0.796875 -0.421875 1.78125 -0.421875q3.21875 0 3.21875 3.75l0 4.515625q0 1.203125 -1.15625 1.203125q-1.171875 0 -1.171875 -1.203125l0 -4.40625q0 -1.0625 -0.40625 -1.546875q-0.390625 -0.484375 -1.234375 -0.484375q-1.03125 0 -1.640625 0.65625q-0.59375 0.640625 -0.59375 1.703125l0 4.078125q0 1.203125 -1.171875 1.203125zm13.25766 0.03125q-1.1875 0 -2.09375 -0.578125q-0.90625 -0.578125 -1.421875 -1.640625q-0.5 -1.078125 -0.5 -2.546875q0 -1.46875 0.5 -2.515625q0.515625 -1.0625 1.421875 -1.640625q0.90625 -0.578125 2.09375 -0.578125q0.96875 0 1.75 0.4375q0.78125 0.421875 1.1875 1.125l0 -4.375q0 -1.171875 1.15625 -1.171875q1.171875 0 1.171875 1.171875l0 11.078125q0 1.203125 -1.15625 1.203125q-1.15625 0 -1.15625 -1.203125l0 -0.390625q-0.390625 0.75 -1.1875 1.1875q-0.78125 0.4375 -1.765625 0.4375zm0.65625 -1.765625q1.046875 0 1.671875 -0.75q0.640625 -0.765625 0.640625 -2.25q0 -1.484375 -0.640625 -2.21875q-0.625 -0.734375 -1.671875 -0.734375q-1.046875 0 -1.6875 0.734375q-0.625 0.734375 -0.625 2.21875q0 1.484375 0.625 2.25q0.640625 0.75 1.6875 0.75zm8.193756 -9.40625q-0.65625 0 -1.03125 -0.328125q-0.359375 -0.328125 -0.359375 -0.90625q0 -0.59375 0.359375 -0.90625q0.375 -0.328125 1.03125 -0.328125q1.375 0 1.375 1.234375q0 1.234375 -1.375 1.234375zm0 11.109375q-0.5625 0 -0.859375 -0.328125q-0.296875 -0.34375 -0.296875 -0.9375l0 -6.84375q0 -1.265625 1.15625 -1.265625q1.171875 0 1.171875 1.265625l0 6.84375q0 0.59375 -0.296875 0.9375q-0.296875 0.328125 -0.875 0.328125zm4.7573547 0.03125q-1.15625 0 -1.15625 -1.203125l0 -7.046875q0 -1.171875 1.125 -1.171875q1.140625 0 1.140625 1.171875l0 0.390625q0.46875 -0.78125 1.265625 -1.1875q0.796875 -0.421875 1.78125 -0.421875q3.21875 0 3.21875 3.75l0 4.515625q0 1.203125 -1.15625 1.203125q-1.171875 0 -1.171875 -1.203125l0 -4.40625q0 -1.0625 -0.40625 -1.546875q-0.390625 -0.484375 -1.234375 -0.484375q-1.03125 0 -1.640625 0.65625q-0.59375 0.640625 -0.59375 1.703125l0 4.078125q0 1.203125 -1.171875 1.203125zm14.00766 3.390625q-1.015625 0 -1.953125 -0.1875q-0.9375 -0.1875 -1.703125 -0.578125q-0.453125 -0.21875 -0.546875 -0.578125q-0.078125 -0.34375 0.078125 -0.65625q0.15625 -0.3125 0.453125 -0.453125q0.3125 -0.140625 0.671875 0.03125q0.8125 0.40625 1.546875 0.515625q0.734375 0.125 1.265625 0.125q2.5 0 2.5 -2.40625l0 -1.25q-0.390625 0.765625 -1.203125 1.21875q-0.8125 0.453125 -1.796875 0.453125q-1.234375 0 -2.15625 -0.5625q-0.90625 -0.578125 -1.421875 -1.609375q-0.5 -1.03125 -0.5 -2.390625q0 -1.359375 0.5 -2.375q0.515625 -1.015625 1.421875 -1.578125q0.921875 -0.578125 2.15625 -0.578125q0.984375 0 1.78125 0.4375q0.8125 0.421875 1.1875 1.171875l0 -0.390625q0 -0.578125 0.296875 -0.875q0.3125 -0.296875 0.859375 -0.296875q1.15625 0 1.15625 1.171875l0 7.171875q0 2.234375 -1.1875 3.34375q-1.171875 1.125 -3.40625 1.125zm-0.0625 -5.546875q1.09375 0 1.71875 -0.734375q0.640625 -0.75 0.640625 -2.046875q0 -1.28125 -0.640625 -2.015625q-0.625 -0.734375 -1.71875 -0.734375q-1.078125 0 -1.71875 0.734375q-0.625 0.734375 -0.625 2.015625q0 1.296875 0.625 2.046875q0.640625 0.734375 1.71875 0.734375z" fill-rule="nonzero"/></g><g filter="url(#shadowFilter-p.4)"><use xlink:href="#p.4" transform="matrix(1.0 0.0 0.0 1.0 12.434335433070851 10.069126246719172)"/></g><defs><filter id="shadowFilter-p.4" filterUnits="userSpaceOnUse"><feGaussianBlur in="SourceAlpha" stdDeviation="7.0" result="blur"/><feComponentTransfer in="blur" color-interpolation-filters="sRGB"><feFuncR type="linear" slope="0" intercept="0.0"/><feFuncG type="linear" slope="0" intercept="0.0"/><feFuncB type="linear" slope="0" intercept="0.0"/><feFuncA type="linear" slope="0.5" intercept="0"/></feComponentTransfer></filter></defs><g id="p.4"><path fill="#f9cb9c" d="m305.59317 489.34247l195.21262 0l0 69.60626l-195.21262 0z" fill-rule="evenodd"/><path fill="#000000" d="m365.19864 531.2531q-1.421875 0 -2.46875 -0.578125q-1.046875 -0.578125 -1.625 -1.640625q-0.578125 -1.078125 -0.578125 -2.546875q0 -1.453125 0.578125 -2.515625q0.578125 -1.0625 1.625 -1.640625q1.046875 -0.578125 2.46875 -0.578125q1.421875 0 2.453125 0.578125q1.046875 0.578125 1.625 1.640625q0.578125 1.0625 0.578125 2.515625q0 1.46875 -0.578125 2.546875q-0.578125 1.0625 -1.625 1.640625q-1.03125 0.578125 -2.453125 0.578125zm0 -1.765625q1.046875 0 1.671875 -0.75q0.640625 -0.765625 0.640625 -2.25q0 -1.484375 -0.640625 -2.21875q-0.625 -0.734375 -1.671875 -0.734375q-1.046875 0 -1.6875 0.734375q-0.625 0.734375 -0.625 2.21875q0 1.484375 0.625 2.25q0.640625 0.75 1.6875 0.75zm11.839752 1.765625q-1.0 0 -1.78125 -0.4375q-0.78125 -0.4375 -1.1875 -1.1875l0 0.390625q0 1.203125 -1.125 1.203125q-1.15625 0 -1.15625 -1.203125l0 -11.078125q0 -1.171875 1.15625 -1.171875q1.171875 0 1.171875 1.171875l0 4.34375q0.40625 -0.6875 1.171875 -1.109375q0.78125 -0.421875 1.75 -0.421875q1.21875 0 2.109375 0.578125q0.90625 0.578125 1.40625 1.640625q0.5 1.046875 0.5 2.515625q0 1.46875 -0.5 2.546875q-0.5 1.0625 -1.40625 1.640625q-0.90625 0.578125 -2.109375 0.578125zm-0.640625 -1.765625q1.03125 0 1.671875 -0.75q0.640625 -0.765625 0.640625 -2.25q0 -1.484375 -0.640625 -2.21875q-0.640625 -0.734375 -1.671875 -0.734375q-1.046875 0 -1.6875 0.734375q-0.640625 0.734375 -0.640625 2.21875q0 1.484375 0.640625 2.25q0.640625 0.75 1.6875 0.75zm7.803131 -9.40625q-0.640625 0 -1.015625 -0.328125q-0.359375 -0.328125 -0.359375 -0.90625q0 -0.59375 0.359375 -0.90625q0.375 -0.328125 1.015625 -0.328125q1.390625 0 1.390625 1.234375q0 1.234375 -1.390625 1.234375zm-2.34375 14.515625q-0.515625 0.03125 -0.78125 -0.203125q-0.28125 -0.234375 -0.3125 -0.578125q-0.046875 -0.328125 0.140625 -0.609375q0.171875 -0.28125 0.546875 -0.3125q0.828125 -0.078125 1.203125 -0.484375q0.390625 -0.390625 0.390625 -1.21875l0 -8.21875q0 -1.171875 1.1875 -1.171875q1.15625 0 1.15625 1.171875l0 8.015625q0 1.8125 -0.859375 2.625q-0.859375 0.828125 -2.671875 0.984375zm10.441345 -3.34375q-1.546875 0 -2.671875 -0.578125q-1.109375 -0.578125 -1.71875 -1.640625q-0.609375 -1.0625 -0.609375 -2.515625q0 -1.421875 0.59375 -2.484375q0.59375 -1.0625 1.625 -1.671875q1.03125 -0.609375 2.359375 -0.609375q1.9375 0 3.0625 1.234375q1.140625 1.234375 1.140625 3.359375q0 0.6875 -0.90625 0.6875l-5.625 0q0.25 2.453125 2.796875 2.453125q0.484375 0 1.078125 -0.125q0.609375 -0.125 1.15625 -0.421875q0.484375 -0.28125 0.8125 -0.171875q0.34375 0.09375 0.484375 0.390625q0.140625 0.296875 0.03125 0.671875q-0.09375 0.359375 -0.53125 0.625q-0.640625 0.40625 -1.5 0.609375q-0.84375 0.1875 -1.578125 0.1875zm-0.328125 -7.90625q-1.03125 0 -1.671875 0.640625q-0.625 0.625 -0.75 1.703125l4.578125 0q-0.0625 -1.140625 -0.625 -1.734375q-0.546875 -0.609375 -1.53125 -0.609375zm10.158569 7.90625q-1.421875 0 -2.5 -0.578125q-1.0625 -0.59375 -1.640625 -1.671875q-0.578125 -1.09375 -0.578125 -2.546875q0 -1.453125 0.578125 -2.5q0.578125 -1.0625 1.640625 -1.625q1.078125 -0.578125 2.5 -0.578125q0.625 0 1.34375 0.171875q0.71875 0.171875 1.34375 0.5625q0.375 0.21875 0.4375 0.578125q0.078125 0.34375 -0.09375 0.65625q-0.15625 0.296875 -0.46875 0.421875q-0.296875 0.125 -0.6875 -0.09375q-0.859375 -0.484375 -1.65625 -0.484375q-1.21875 0 -1.890625 0.765625q-0.65625 0.75 -0.65625 2.140625q0 1.390625 0.65625 2.1875q0.671875 0.78125 1.890625 0.78125q0.796875 0 1.65625 -0.46875q0.390625 -0.21875 0.6875 -0.078125q0.296875 0.125 0.421875 0.4375q0.140625 0.296875 0.0625 0.640625q-0.078125 0.34375 -0.421875 0.578125q-0.625 0.359375 -1.3125 0.53125q-0.6875 0.171875 -1.3125 0.171875zm8.811859 0q-3.625 0 -3.625 -3.578125l0 -3.984375l-0.96875 0q-0.921875 0 -0.921875 -0.875q0 -0.875 0.921875 -0.875l0.96875 0l0 -1.703125q0 -1.171875 1.1875 -1.171875q1.15625 0 1.15625 1.171875l0 1.703125l1.96875 0q0.9375 0 0.9375 0.875q0 0.875 -0.9375 0.875l-1.96875 0l0 3.84375q0 0.90625 0.390625 1.359375q0.390625 0.4375 1.265625 0.4375q0.3125 0 0.546875 -0.046875q0.25 -0.0625 0.4375 -0.078125q0.234375 -0.03125 0.375 0.140625q0.15625 0.15625 0.15625 0.640625q0 0.375 -0.125 0.671875q-0.125 0.28125 -0.4375 0.390625q-0.25 0.078125 -0.640625 0.140625q-0.390625 0.0625 -0.6875 0.0625zm4.3910217 -11.171875q-0.65625 0 -1.03125 -0.328125q-0.359375 -0.328125 -0.359375 -0.90625q0 -0.59375 0.359375 -0.90625q0.375 -0.328125 1.03125 -0.328125q1.375 0 1.375 1.234375q0 1.234375 -1.375 1.234375zm0 11.109375q-0.5625 0 -0.859375 -0.328125q-0.296875 -0.34375 -0.296875 -0.9375l0 -6.84375q0 -1.265625 1.15625 -1.265625q1.171875 0 1.171875 1.265625l0 6.84375q0 0.59375 -0.296875 0.9375q-0.296875 0.328125 -0.875 0.328125zm7.2886047 0.03125q-0.9375 0 -1.375 -1.0l-2.96875 -6.875q-0.265625 -0.625 -0.015625 -1.078125q0.25 -0.46875 1.015625 -0.46875q0.4375 0 0.6875 0.203125q0.265625 0.1875 0.46875 0.71875l2.25 5.59375l2.3125 -5.609375q0.203125 -0.515625 0.46875 -0.703125q0.265625 -0.203125 0.734375 -0.203125q0.59375 0 0.84375 0.46875q0.25 0.453125 -0.015625 1.046875l-3.03125 6.90625q-0.40625 1.0 -1.375 1.0zm10.442047 0.03125q-1.546875 0 -2.671875 -0.578125q-1.109375 -0.578125 -1.71875 -1.640625q-0.609375 -1.0625 -0.609375 -2.515625q0 -1.421875 0.59375 -2.484375q0.59375 -1.0625 1.625 -1.671875q1.03125 -0.609375 2.359375 -0.609375q1.9375 0 3.0625 1.234375q1.140625 1.234375 1.140625 3.359375q0 0.6875 -0.90625 0.6875l-5.625 0q0.25 2.453125 2.796875 2.453125q0.484375 0 1.078125 -0.125q0.609375 -0.125 1.15625 -0.421875q0.484375 -0.28125 0.8125 -0.171875q0.34375 0.09375 0.484375 0.390625q0.140625 0.296875 0.03125 0.671875q-0.09375 0.359375 -0.53125 0.625q-0.640625 0.40625 -1.5 0.609375q-0.84375 0.1875 -1.578125 0.1875zm-0.328125 -7.90625q-1.03125 0 -1.671875 0.640625q-0.625 0.625 -0.75 1.703125l4.578125 0q-0.0625 -1.140625 -0.625 -1.734375q-0.546875 -0.609375 -1.53125 -0.609375zm9.283569 7.90625q-0.796875 0 -1.703125 -0.171875q-0.890625 -0.171875 -1.59375 -0.578125q-0.390625 -0.21875 -0.484375 -0.546875q-0.09375 -0.328125 0.03125 -0.609375q0.125 -0.296875 0.40625 -0.421875q0.296875 -0.140625 0.6875 0.046875q0.734375 0.359375 1.390625 0.5q0.65625 0.140625 1.296875 0.140625q0.890625 0 1.328125 -0.3125q0.4375 -0.3125 0.4375 -0.8125q0 -0.78125 -1.15625 -1.0l-1.859375 -0.359375q-2.375 -0.453125 -2.375 -2.46875q0 -0.890625 0.484375 -1.53125q0.5 -0.65625 1.375 -1.015625q0.875 -0.359375 2.015625 -0.359375q1.640625 0 2.9375 0.734375q0.34375 0.1875 0.40625 0.515625q0.078125 0.3125 -0.0625 0.609375q-0.140625 0.296875 -0.4375 0.421875q-0.296875 0.109375 -0.6875 -0.078125q-0.578125 -0.296875 -1.125 -0.421875q-0.53125 -0.140625 -1.015625 -0.140625q-0.90625 0 -1.34375 0.328125q-0.4375 0.3125 -0.4375 0.828125q0 0.828125 1.0625 1.015625l1.859375 0.34375q1.21875 0.234375 1.84375 0.828125q0.625 0.59375 0.625 1.609375q0 1.359375 -1.0625 2.140625q-1.0625 0.765625 -2.84375 0.765625z" fill-rule="nonzero"/></g><g filter="url(#shadowFilter-p.5)"><use xlink:href="#p.5" transform="matrix(1.0 0.0 0.0 1.0 12.434335433070888 10.069126246719172)"/></g><defs><filter id="shadowFilter-p.5" filterUnits="userSpaceOnUse"><feGaussianBlur in="SourceAlpha" stdDeviation="7.0" result="blur"/><feComponentTransfer in="blur" color-interpolation-filters="sRGB"><feFuncR type="linear" slope="0" intercept="0.0"/><feFuncG type="linear" slope="0" intercept="0.0"/><feFuncB type="linear" slope="0" intercept="0.0"/><feFuncA type="linear" slope="0.5" intercept="0"/></feComponentTransfer></filter></defs><g id="p.5"><path fill="#ffe599" d="m581.2021 469.33667l0 -215.21259l49.606323 0l0 215.21259z" fill-rule="evenodd"/><path fill="#000000" d="m613.11273 392.20667q0 1.1875 -0.578125 2.09375q-0.578125 0.90625 -1.640625 1.421875q-1.078125 0.5 -2.546875 0.5q-1.46875 0 -2.515625 -0.5q-1.0625 -0.515625 -1.640625 -1.421875q-0.578125 -0.90625 -0.578125 -2.09375q0 -0.96875 0.4375 -1.75q0.421875 -0.78125 1.125 -1.1875l-4.375 0q-1.171875 0 -1.171875 -1.15625q0 -1.171875 1.171875 -1.171875l11.078125 0q1.203125 0 1.203125 1.15625q0 1.15625 -1.203125 1.15625l-0.390625 0q0.75 0.390625 1.1875 1.1875q0.4375 0.78125 0.4375 1.765625zm-1.765625 -0.65625q0 -1.046875 -0.75 -1.671875q-0.765625 -0.640625 -2.25 -0.640625q-1.484375 0 -2.21875 0.640625q-0.734375 0.625 -0.734375 1.671875q0 1.046875 0.734375 1.6875q0.734375 0.625 2.21875 0.625q1.484375 0 2.25 -0.625q0.75 -0.640625 0.75 -1.6875zm1.765625 -11.521881q0 1.546875 -0.578125 2.671875q-0.578125 1.109375 -1.640625 1.71875q-1.0625 0.609375 -2.515625 0.609375q-1.421875 0 -2.484375 -0.59375q-1.0625 -0.59375 -1.671875 -1.625q-0.609375 -1.03125 -0.609375 -2.359375q0 -1.9375 1.234375 -3.0625q1.234375 -1.140625 3.359375 -1.140625q0.6875 0 0.6875 0.90625l0 5.625q2.453125 -0.25 2.453125 -2.796875q0 -0.484375 -0.125 -1.078125q-0.125 -0.609375 -0.421875 -1.15625q-0.28125 -0.484375 -0.171875 -0.8125q0.09375 -0.34375 0.390625 -0.484375q0.296875 -0.140625 0.671875 -0.03125q0.359375 0.09375 0.625 0.53125q0.40625 0.640625 0.609375 1.5q0.1875 0.84375 0.1875 1.578125zm-7.90625 0.328125q0 1.03125 0.640625 1.671875q0.625 0.625 1.703125 0.75l0 -4.578125q-1.140625 0.0625 -1.734375 0.625q-0.609375 0.546875 -0.609375 1.53125zm7.90625 -10.158569q0 1.421875 -0.578125 2.5q-0.59375 1.0625 -1.671875 1.640625q-1.09375 0.578125 -2.546875 0.578125q-1.453125 0 -2.5 -0.578125q-1.0625 -0.578125 -1.625 -1.640625q-0.578125 -1.078125 -0.578125 -2.5q0 -0.625 0.171875 -1.34375q0.171875 -0.71875 0.5625 -1.34375q0.21875 -0.375 0.578125 -0.4375q0.34375 -0.078125 0.65625 0.09375q0.296875 0.15625 0.421875 0.46875q0.125 0.296875 -0.09375 0.6875q-0.484375 0.859375 -0.484375 1.65625q0 1.21875 0.765625 1.890625q0.75 0.65625 2.140625 0.65625q1.390625 0 2.1875 -0.65625q0.78125 -0.671875 0.78125 -1.890625q0 -0.796875 -0.46875 -1.65625q-0.21875 -0.390625 -0.078125 -0.6875q0.125 -0.296875 0.4375 -0.421875q0.296875 -0.140625 0.640625 -0.0625q0.34375 0.078125 0.578125 0.421875q0.359375 0.625 0.53125 1.3125q0.171875 0.6875 0.171875 1.3125zm-11.171875 -5.7588806q0 0.65625 -0.328125 1.03125q-0.328125 0.359375 -0.90625 0.359375q-0.59375 0 -0.90625 -0.359375q-0.328125 -0.375 -0.328125 -1.03125q0 -1.375 1.234375 -1.375q1.234375 0 1.234375 1.375zm11.109375 0q0 0.5625 -0.328125 0.859375q-0.34375 0.296875 -0.9375 0.296875l-6.84375 0q-1.265625 0 -1.265625 -1.15625q0 -1.171875 1.265625 -1.171875l6.84375 0q0.59375 0 0.9375 0.296875q0.328125 0.296875 0.328125 0.875zm0.0625 -6.9292297q0 0.796875 -0.171875 1.703125q-0.171875 0.890625 -0.578125 1.59375q-0.21875 0.390625 -0.546875 0.484375q-0.328125 0.09375 -0.609375 -0.03125q-0.296875 -0.125 -0.421875 -0.40625q-0.140625 -0.296875 0.046875 -0.6875q0.359375 -0.734375 0.5 -1.390625q0.140625 -0.65625 0.140625 -1.296875q0 -0.890625 -0.3125 -1.328125q-0.3125 -0.4375 -0.8125 -0.4375q-0.78125 0 -1.0 1.15625l-0.359375 1.859375q-0.453125 2.375 -2.46875 2.375q-0.890625 0 -1.53125 -0.484375q-0.65625 -0.5 -1.015625 -1.375q-0.359375 -0.875 -0.359375 -2.015625q0 -1.640625 0.734375 -2.9375q0.1875 -0.34375 0.515625 -0.40625q0.3125 -0.078125 0.609375 0.0625q0.296875 0.140625 0.421875 0.4375q0.109375 0.296875 -0.078125 0.6875q-0.296875 0.578125 -0.421875 1.125q-0.140625 0.53125 -0.140625 1.015625q0 0.90625 0.328125 1.34375q0.3125 0.4375 0.828125 0.4375q0.828125 0 1.015625 -1.0625l0.34375 -1.859375q0.234375 -1.21875 0.828125 -1.84375q0.59375 -0.625 1.609375 -0.625q1.359375 0 2.140625 1.0625q0.765625 1.0625 0.765625 2.84375zm-11.171875 -6.932373q0 0.65625 -0.328125 1.03125q-0.328125 0.359375 -0.90625 0.359375q-0.59375 0 -0.90625 -0.359375q-0.328125 -0.375 -0.328125 -1.03125q0 -1.375 1.234375 -1.375q1.234375 0 1.234375 1.375zm11.109375 0q0 0.5625 -0.328125 0.859375q-0.34375 0.296875 -0.9375 0.296875l-6.84375 0q-1.265625 0 -1.265625 -1.15625q0 -1.171875 1.265625 -1.171875l6.84375 0q0.59375 0 0.9375 0.296875q0.328125 0.296875 0.328125 0.875zm0.0625 -7.757324q0 1.421875 -0.578125 2.46875q-0.578125 1.046875 -1.640625 1.625q-1.078125 0.578125 -2.546875 0.578125q-1.453125 0 -2.515625 -0.578125q-1.0625 -0.578125 -1.640625 -1.625q-0.578125 -1.046875 -0.578125 -2.46875q0 -1.421875 0.578125 -2.4531555q0.578125 -1.046875 1.640625 -1.625q1.0625 -0.578125 2.515625 -0.578125q1.46875 0 2.546875 0.578125q1.0625 0.578125 1.640625 1.625q0.578125 1.0312805 0.578125 2.4531555zm-1.765625 0q0 -1.046875 -0.75 -1.6719055q-0.765625 -0.640625 -2.25 -0.640625q-1.484375 0 -2.21875 0.640625q-0.734375 0.6250305 -0.734375 1.6719055q0 1.046875 0.734375 1.6875q0.734375 0.625 2.21875 0.625q1.484375 0 2.25 -0.625q0.75 -0.640625 0.75 -1.6875zm1.734375 -7.7460327q0 1.15625 -1.203125 1.15625l-7.046875 0q-1.171875 0 -1.171875 -1.125q0 -1.140625 1.171875 -1.140625l0.390625 0q-0.78125 -0.46875 -1.1875 -1.265625q-0.421875 -0.796875 -0.421875 -1.78125q0 -3.21875 3.75 -3.21875l4.515625 0q1.203125 0 1.203125 1.15625q0 1.171875 -1.203125 1.171875l-4.40625 0q-1.0625 0 -1.546875 0.40625q-0.484375 0.390625 -0.484375 1.234375q0 1.03125 0.65625 1.640625q0.640625 0.59375 1.703125 0.59375l4.078125 0q1.203125 0 1.203125 1.171875z" fill-rule="nonzero"/></g><path fill="#fff2cc" d="m716.40155 469.33667l0 -215.21259l49.606323 0l0 215.21259z" fill-rule="evenodd"/><path fill="#000000" d="m748.3122 383.94763q0 0.984375 -0.375 1.765625q-0.390625 0.78125 -1.046875 1.21875q-0.65625 0.4375 -1.46875 0.4375q-1.015625 0 -1.59375 -0.515625q-0.59375 -0.53125 -0.84375 -1.703125q-0.265625 -1.1875 -0.265625 -3.15625l0 -0.65625l-0.390625 0q-0.9375 0 -1.34375 0.421875q-0.421875 0.40625 -0.421875 1.375q0 0.53125 0.140625 1.15625q0.125 0.625 0.4375 1.3125q0.21875 0.453125 0.0625 0.75q-0.171875 0.296875 -0.515625 0.40625q-0.34375 0.09375 -0.6875 -0.03125q-0.359375 -0.140625 -0.53125 -0.578125q-0.359375 -0.859375 -0.5 -1.640625q-0.15625 -0.796875 -0.15625 -1.453125q0 -2.0 0.921875 -2.96875q0.921875 -0.96875 2.875 -0.96875l4.46875 0q1.203125 0 1.203125 1.078125q0 1.109375 -1.203125 1.109375l-0.40625 0q0.765625 0.3125 1.203125 1.0q0.4375 0.6875 0.4375 1.640625zm-1.609375 -0.484375q0 -0.90625 -0.625 -1.515625q-0.640625 -0.609375 -1.609375 -0.609375l-0.40625 0l0 0.640625q0 1.75 0.265625 2.4375q0.265625 0.671875 0.984375 0.671875q0.609375 0 1.0 -0.421875q0.390625 -0.4375 0.390625 -1.203125zm1.609375 -10.923737q0 1.421875 -0.578125 2.5q-0.59375 1.0625 -1.671875 1.640625q-1.09375 0.578125 -2.546875 0.578125q-1.453125 0 -2.5 -0.578125q-1.0625 -0.578125 -1.625 -1.640625q-0.578125 -1.078125 -0.578125 -2.5q0 -0.625 0.171875 -1.34375q0.171875 -0.71875 0.5625 -1.34375q0.21875 -0.375 0.578125 -0.4375q0.34375 -0.078125 0.65625 0.09375q0.296875 0.15625 0.421875 0.46875q0.125 0.296875 -0.09375 0.6875q-0.484375 0.859375 -0.484375 1.65625q0 1.21875 0.765625 1.890625q0.75 0.65625 2.140625 0.65625q1.390625 0 2.1875 -0.65625q0.78125 -0.671875 0.78125 -1.890625q0 -0.796875 -0.46875 -1.65625q-0.21875 -0.390625 -0.078125 -0.6875q0.125 -0.296875 0.4375 -0.421875q0.296875 -0.140625 0.640625 -0.0625q0.34375 0.078125 0.578125 0.421875q0.359375 0.625 0.53125 1.3125q0.171875 0.6875 0.171875 1.3125zm0 -8.811829q0 3.625 -3.578125 3.625l-3.984375 0l0 0.96875q0 0.921875 -0.875 0.921875q-0.875 0 -0.875 -0.921875l0 -0.96875l-1.703125 0q-1.171875 0 -1.171875 -1.1875q0 -1.15625 1.171875 -1.15625l1.703125 0l0 -1.96875q0 -0.9375 0.875 -0.9375q0.875 0 0.875 0.9375l0 1.96875l3.84375 0q0.90625 0 1.359375 -0.390625q0.4375 -0.390625 0.4375 -1.265625q0 -0.3125 -0.046875 -0.546875q-0.0625 -0.25 -0.078125 -0.4375q-0.03125 -0.234375 0.140625 -0.375q0.15625 -0.15625 0.640625 -0.15625q0.375 0 0.671875 0.125q0.28125 0.125 0.390625 0.4375q0.078125 0.25 0.140625 0.640625q0.0625 0.390625 0.0625 0.6875zm-11.171875 -4.3910522q0 0.65625 -0.328125 1.03125q-0.328125 0.359375 -0.90625 0.359375q-0.59375 0 -0.90625 -0.359375q-0.328125 -0.375 -0.328125 -1.03125q0 -1.375 1.234375 -1.375q1.234375 0 1.234375 1.375zm11.109375 0q0 0.5625 -0.328125 0.859375q-0.34375 0.296875 -0.9375 0.296875l-6.84375 0q-1.265625 0 -1.265625 -1.15625q0 -1.171875 1.265625 -1.171875l6.84375 0q0.59375 0 0.9375 0.296875q0.328125 0.296875 0.328125 0.875zm0.0625 -7.757324q0 1.421875 -0.578125 2.46875q-0.578125 1.046875 -1.640625 1.625q-1.078125 0.578125 -2.546875 0.578125q-1.453125 0 -2.515625 -0.578125q-1.0625 -0.578125 -1.640625 -1.625q-0.578125 -1.046875 -0.578125 -2.46875q0 -1.421875 0.578125 -2.453125q0.578125 -1.046875 1.640625 -1.625q1.0625 -0.578125 2.515625 -0.578125q1.46875 0 2.546875 0.578125q1.0625 0.578125 1.640625 1.625q0.578125 1.03125 0.578125 2.453125zm-1.765625 0q0 -1.046875 -0.75 -1.671875q-0.765625 -0.640625 -2.25 -0.640625q-1.484375 0 -2.21875 0.640625q-0.734375 0.625 -0.734375 1.671875q0 1.046875 0.734375 1.6875q0.734375 0.625 2.21875 0.625q1.484375 0 2.25 -0.625q0.75 -0.640625 0.75 -1.6875zm1.734375 -7.746002q0 1.15625 -1.203125 1.15625l-7.046875 0q-1.171875 0 -1.171875 -1.125q0 -1.140625 1.171875 -1.140625l0.390625 0q-0.78125 -0.46875 -1.1875 -1.265625q-0.421875 -0.7969055 -0.421875 -1.7812805q0 -3.21875 3.75 -3.21875l4.515625 0q1.203125 0 1.203125 1.15625q0 1.171875 -1.203125 1.171875l-4.40625 0q-1.0625 0 -1.546875 0.40625q-0.484375 0.390625 -0.484375 1.234375q0 1.0312805 0.65625 1.6406555q0.640625 0.59375 1.703125 0.59375l4.078125 0q1.203125 0 1.203125 1.171875z" fill-rule="nonzero"/><path fill="#000000" fill-opacity="0.0" d="m203.6063 254.92409c0 -28.582672 50.992126 -57.16536 101.98425 -57.16536" fill-rule="evenodd"/><path stroke="#000000" stroke-width="1.0" stroke-linejoin="round" stroke-linecap="butt" d="m203.6063 254.92409c0 -28.582672 50.992126 -57.16536 101.98425 -57.16536" fill-rule="evenodd"/><path fill="#000000" fill-opacity="0.0" d="m203.6063 470.1367c0 27.007874 50.992126 54.015717 101.98425 54.015717" fill-rule="evenodd"/><path stroke="#000000" stroke-width="1.0" stroke-linejoin="round" stroke-linecap="butt" d="m203.6063 470.1367c0 27.007874 50.992126 54.015717 101.98425 54.015717" fill-rule="evenodd"/><path fill="#000000" fill-opacity="0.0" d="m228.40945 362.5304c19.296112 0 28.942627 -0.17324829 38.592255 -0.34646606c9.649597 -0.17321777 19.302277 -0.34646606 38.604584 -0.34646606" fill-rule="evenodd"/><path stroke="#000000" stroke-width="1.0" stroke-linejoin="round" stroke-linecap="butt" d="m228.40945 362.5304c19.296112 0 28.942627 -0.17324829 38.592255 -0.34646606c9.649597 -0.17321777 19.302277 -0.34646606 38.604584 -0.34646606" fill-rule="evenodd"/><path fill="#000000" fill-opacity="0.0" d="m500.81366 197.74666c52.59839 0 105.19684 28.18898 105.19684 56.377945" fill-rule="evenodd"/><path stroke="#000000" stroke-width="1.0" stroke-linejoin="round" stroke-linecap="butt" d="m500.81366 197.74666c52.59839 0 105.19684 28.18898 105.19684 56.377945" fill-rule="evenodd"/><path fill="#000000" fill-opacity="0.0" d="m500.8058 524.1456c52.59839 0 105.19684 -27.401611 105.19684 -54.80316" fill-rule="evenodd"/><path stroke="#000000" stroke-width="1.0" stroke-linejoin="round" stroke-linecap="butt" d="m500.8058 524.1456c52.59839 0 105.19684 -27.401611 105.19684 -54.80316" fill-rule="evenodd"/><path fill="#000000" fill-opacity="0.0" d="m500.8058 361.8464c20.099121 0 30.147095 -0.03149414 40.198303 -0.06298828c10.051147 -0.03152466 20.10553 -0.0630188 40.21112 -0.0630188" fill-rule="evenodd"/><path stroke="#000000" stroke-width="1.0" stroke-linejoin="round" stroke-linecap="butt" d="m500.8058 361.8464c20.099121 0 30.147095 -0.03149414 40.198303 -0.06298828c10.051147 -0.03152466 20.10553 -0.0630188 40.21112 -0.0630188" fill-rule="evenodd"/><path fill="#000000" fill-opacity="0.0" d="m630.8084 361.73038c21.398132 0 32.09552 0.01574707 42.796265 0.03149414c10.700806 0.01574707 21.40503 0.03149414 42.809998 0.03149414" fill-rule="evenodd"/><path stroke="#000000" stroke-width="1.0" stroke-linejoin="round" stroke-linecap="butt" d="m630.8084 361.73038c21.398132 0 32.09552 0.01574707 42.796265 0.03149414c10.700806 0.01574707 21.40503 0.03149414 42.809998 0.03149414" fill-rule="evenodd"/><path fill="#000000" fill-opacity="0.0" d="m403.20734 232.5498c0 18.497543 0.01574707 27.74707 0.03149414 36.995087c0.015777588 9.248047 0.03152466 18.494598 0.03152466 36.989166" fill-rule="evenodd"/><path stroke="#000000" stroke-width="1.0" stroke-linejoin="round" stroke-linecap="butt" d="m403.20734 232.5498c0 18.497543 0.01574707 27.74707 0.03149414 36.995087c0.015777588 9.248047 0.03152466 18.494598 0.03152466 36.989166" fill-rule="evenodd"/><path fill="#000000" fill-opacity="0.0" d="m403.19946 417.15347c0 18.047241 0.01574707 27.070862 0.03149414 36.094482c0.01574707 9.023651 0.03152466 18.047272 0.03152466 36.094513" fill-rule="evenodd"/><path stroke="#000000" stroke-width="1.0" stroke-linejoin="round" stroke-linecap="butt" d="m403.19946 417.15347c0 18.047241 0.01574707 27.070862 0.03149414 36.094482c0.01574707 9.023651 0.03152466 18.047272 0.03152466 36.094513" fill-rule="evenodd"/><path fill="#cfe2f3" d="m50.80315 470.1367l0 -215.2126l49.606297 0l0 215.2126z" fill-rule="evenodd"/><path fill="#000000" d="m86.0263 406.21762q0 1.15625 -1.171875 1.15625l-10.421875 0q-1.171875 0 -1.171875 -1.125q0 -1.15625 1.171875 -1.15625l0.390625 0q-0.734375 -0.40625 -1.171875 -1.1875q-0.4375 -0.78125 -0.4375 -1.78125q0 -1.203125 0.578125 -2.109375q0.578125 -0.90625 1.640625 -1.40625q1.046875 -0.5 2.515625 -0.5q1.46875 0 2.546875 0.5q1.0625 0.5 1.640625 1.40625q0.578125 0.890625 0.578125 2.109375q0 0.96875 -0.421875 1.75q-0.421875 0.765625 -1.125 1.171875l3.6875 0q1.171875 0 1.171875 1.171875zm-5.078125 -3.453125q0 -1.03125 -0.75 -1.671875q-0.765625 -0.640625 -2.25 -0.640625q-1.484375 0 -2.21875 0.640625q-0.734375 0.640625 -0.734375 1.671875q0 1.046875 0.734375 1.6875q0.734375 0.640625 2.21875 0.640625q1.484375 0 2.25 -0.640625q0.75 -0.640625 0.75 -1.6875zm1.765625 -11.068756q0 1.546875 -0.578125 2.671875q-0.578125 1.109375 -1.640625 1.71875q-1.0625 0.609375 -2.515625 0.609375q-1.421875 0 -2.484375 -0.59375q-1.0625 -0.59375 -1.671875 -1.625q-0.609375 -1.03125 -0.609375 -2.359375q0 -1.9375 1.234375 -3.0625q1.234375 -1.140625 3.359375 -1.140625q0.6875 0 0.6875 0.90625l0 5.625q2.453125 -0.25 2.453125 -2.796875q0 -0.484375 -0.125 -1.078125q-0.125 -0.609375 -0.421875 -1.15625q-0.28125 -0.484375 -0.171875 -0.8125q0.09375 -0.34375 0.390625 -0.484375q0.296875 -0.140625 0.671875 -0.03125q0.359375 0.09375 0.625 0.53125q0.40625 0.640625 0.609375 1.5q0.1875 0.84375 0.1875 1.578125zm-7.90625 0.328125q0 1.03125 0.640625 1.671875q0.625 0.625 1.703125 0.75l0 -4.578125q-1.140625 0.0625 -1.734375 0.625q-0.609375 0.546875 -0.609375 1.53125zm7.875 -7.1429443q0 1.1875 -1.203125 1.1875l-7.046875 0q-1.171875 0 -1.171875 -1.125q0 -1.140625 1.171875 -1.140625l0.578125 0q-1.609375 -0.671875 -1.796875 -2.875q-0.09375 -0.796875 0.921875 -0.890625q0.984375 -0.09375 1.09375 0.96875l0.046875 0.40625q0.21875 2.296875 2.34375 2.296875l3.859375 0q1.203125 0 1.203125 1.171875zm0.03125 -10.179535q0 1.421875 -0.578125 2.5q-0.59375 1.0625 -1.671875 1.640625q-1.09375 0.578125 -2.546875 0.578125q-1.453125 0 -2.5 -0.578125q-1.0625 -0.578125 -1.625 -1.640625q-0.578125 -1.078125 -0.578125 -2.5q0 -0.625 0.171875 -1.34375q0.171875 -0.71875 0.5625 -1.34375q0.21875 -0.375 0.578125 -0.4375q0.34375 -0.078125 0.65625 0.09375q0.296875 0.15625 0.421875 0.46875q0.125 0.296875 -0.09375 0.6875q-0.484375 0.859375 -0.484375 1.65625q0 1.21875 0.765625 1.890625q0.75 0.65625 2.140625 0.65625q1.390625 0 2.1875 -0.65625q0.78125 -0.671875 0.78125 -1.890625q0 -0.796875 -0.46875 -1.65625q-0.21875 -0.390625 -0.078125 -0.6875q0.125 -0.296875 0.4375 -0.421875q0.296875 -0.140625 0.640625 -0.0625q0.34375 0.078125 0.578125 0.421875q0.359375 0.625 0.53125 1.3125q0.171875 0.6875 0.171875 1.3125zm0 -8.90033q0 1.546875 -0.578125 2.671875q-0.578125 1.109375 -1.640625 1.71875q-1.0625 0.609375 -2.515625 0.609375q-1.421875 0 -2.484375 -0.59375q-1.0625 -0.59375 -1.671875 -1.625q-0.609375 -1.03125 -0.609375 -2.359375q0 -1.9375 1.234375 -3.0625q1.234375 -1.140625 3.359375 -1.140625q0.6875 0 0.6875 0.90625l0 5.625q2.453125 -0.25 2.453125 -2.796875q0 -0.484375 -0.125 -1.078125q-0.125 -0.609375 -0.421875 -1.15625q-0.28125 -0.484375 -0.171875 -0.8125q0.09375 -0.34375 0.390625 -0.484375q0.296875 -0.140625 0.671875 -0.03125q0.359375 0.09375 0.625 0.53125q0.40625 0.640625 0.609375 1.5q0.1875 0.84375 0.1875 1.578125zm-7.90625 0.328125q0 1.03125 0.640625 1.671875q0.625 0.625 1.703125 0.75l0 -4.578125q-1.140625 0.0625 -1.734375 0.625q-0.609375 0.546875 -0.609375 1.53125zm11.21875 -7.1116943q0 1.15625 -1.171875 1.15625l-10.421875 0q-1.171875 0 -1.171875 -1.125q0 -1.15625 1.171875 -1.15625l0.390625 0q-0.734375 -0.40625 -1.171875 -1.1875q-0.4375 -0.78125 -0.4375 -1.78125q0 -1.203125 0.578125 -2.109375q0.578125 -0.90625 1.640625 -1.40625q1.046875 -0.5 2.515625 -0.5q1.46875 0 2.546875 0.5q1.0625 0.5 1.640625 1.40625q0.578125 0.890625 0.578125 2.109375q0 0.96875 -0.421875 1.75q-0.421875 0.765625 -1.125 1.171875l3.6875 0q1.171875 0 1.171875 1.171875zm-5.078125 -3.453125q0 -1.03125 -0.75 -1.671875q-0.765625 -0.640625 -2.25 -0.640625q-1.484375 0 -2.21875 0.640625q-0.734375 0.640625 -0.734375 1.671875q0 1.046875 0.734375 1.6875q0.734375 0.640625 2.21875 0.640625q1.484375 0 2.25 -0.640625q0.75 -0.640625 0.75 -1.6875zm1.765625 -10.662933q0 3.625 -3.578125 3.625l-3.984375 0l0 0.96875q0 0.921875 -0.875 0.921875q-0.875 0 -0.875 -0.921875l0 -0.96875l-1.703125 0q-1.171875 0 -1.171875 -1.1875q0 -1.15625 1.171875 -1.15625l1.703125 0l0 -1.96875q0 -0.9375 0.875 -0.9375q0.875 0 0.875 0.9375l0 1.96875l3.84375 0q0.90625 0 1.359375 -0.390625q0.4375 -0.390625 0.4375 -1.265625q0 -0.3125 -0.046875 -0.546875q-0.0625 -0.25 -0.078125 -0.4375q-0.03125 -0.234375 0.140625 -0.375q0.15625 -0.15625 0.640625 -0.15625q0.375 0 0.671875 0.125q0.28125 0.125 0.390625 0.4375q0.078125 0.25 0.140625 0.640625q0.0625 0.390625 0.0625 0.6875zm-11.171875 -4.3910217q0 0.65625 -0.328125 1.03125q-0.328125 0.359375 -0.90625 0.359375q-0.59375 0 -0.90625 -0.359375q-0.328125 -0.375 -0.328125 -1.03125q0 -1.375 1.234375 -1.375q1.234375 0 1.234375 1.375zm11.109375 0q0 0.5625 -0.328125 0.859375q-0.34375 0.296875 -0.9375 0.296875l-6.84375 0q-1.265625 0 -1.265625 -1.15625q0 -1.171875 1.265625 -1.171875l6.84375 0q0.59375 0 0.9375 0.296875q0.328125 0.296875 0.328125 0.875zm0.0625 -7.7573547q0 1.421875 -0.578125 2.46875q-0.578125 1.046875 -1.640625 1.625q-1.078125 0.578125 -2.546875 0.578125q-1.453125 0 -2.515625 -0.578125q-1.0625 -0.578125 -1.640625 -1.625q-0.578125 -1.046875 -0.578125 -2.46875q0 -1.421875 0.578125 -2.453125q0.578125 -1.046875 1.640625 -1.625q1.0625 -0.578125 2.515625 -0.578125q1.46875 0 2.546875 0.578125q1.0625 0.578125 1.640625 1.625q0.578125 1.03125 0.578125 2.453125zm-1.765625 0q0 -1.046875 -0.75 -1.671875q-0.765625 -0.640625 -2.25 -0.640625q-1.484375 0 -2.21875 0.640625q-0.734375 0.625 -0.734375 1.671875q0 1.046875 0.734375 1.6875q0.734375 0.625 2.21875 0.625q1.484375 0 2.25 -0.625q0.75 -0.640625 0.75 -1.6875zm1.734375 -7.746002q0 1.15625 -1.203125 1.15625l-7.046875 0q-1.171875 0 -1.171875 -1.125q0 -1.140625 1.171875 -1.140625l0.390625 0q-0.78125 -0.46875 -1.1875 -1.265625q-0.421875 -0.796875 -0.421875 -1.78125q0 -3.21875 3.75 -3.21875l4.515625 0q1.203125 0 1.203125 1.15625q0 1.171875 -1.203125 1.171875l-4.40625 0q-1.0625 0 -1.546875 0.40625q-0.484375 0.390625 -0.484375 1.234375q0 1.03125 0.65625 1.640625q0.640625 0.59375 1.703125 0.59375l4.078125 0q1.203125 0 1.203125 1.171875z" fill-rule="nonzero"/><path fill="#000000" fill-opacity="0.0" d="m100.40945 362.5304c19.598427 0 29.397636 0.01574707 39.196846 0.03149414c9.799225 0.01574707 19.598434 0.03149414 39.196854 0.03149414" fill-rule="evenodd"/><path stroke="#000000" stroke-width="1.0" stroke-linejoin="round" stroke-linecap="butt" d="m100.40945 362.5304c19.598427 0 29.397636 0.01574707 39.196846 0.03149414c9.799225 0.01574707 19.598434 0.03149414 39.196854 0.03149414" fill-rule="evenodd"/><path fill="#d9ead3" d="m0 1.342458l813.6063 0l0 116.18897l-813.6063 0z" fill-rule="evenodd"/><path fill="#d9ead3" d="m0 606.2071l813.6063 0l0 116.188965l-813.6063 0z" fill-rule="evenodd"/><path fill="#000000" fill-opacity="0.0" d="m741.507 225.64568l0 -79.49606" fill-rule="evenodd"/><path stroke="#b6d7a8" stroke-width="8.0" stroke-linejoin="round" stroke-linecap="butt" d="m741.5071 225.64568l0 -31.496063" fill-rule="evenodd"/><path fill="#b6d7a8" stroke="#b6d7a8" stroke-width="8.0" stroke-linecap="butt" d="m754.7209 194.1496l-13.213806 -36.30478l-13.213867 36.30478z" fill-rule="evenodd"/><path fill="#000000" fill-opacity="0.0" d="m741.507 105.64567l-60.094482 -62.14173" fill-rule="evenodd"/><path stroke="#b6d7a8" stroke-width="8.0" stroke-linejoin="round" stroke-linecap="butt" d="m741.5071 105.64567l-26.726562 -27.637001" fill-rule="evenodd"/><path fill="#b6d7a8" stroke="#b6d7a8" stroke-width="8.0" stroke-linecap="butt" d="m724.2793 68.82283l-34.736633 -16.911804l15.739075 35.283478z" fill-rule="evenodd"/><path fill="#000000" fill-opacity="0.0" d="m630.8509 43.503937l-92.72443 0" fill-rule="evenodd"/><path stroke="#b6d7a8" stroke-width="8.0" stroke-linejoin="round" stroke-linecap="butt" d="m630.8508 43.503937l-44.724365 0" fill-rule="evenodd"/><path fill="#b6d7a8" stroke="#b6d7a8" stroke-width="8.0" stroke-linecap="butt" d="m586.1264 30.290077l-36.30475 13.21386l36.30475 13.21386z" fill-rule="evenodd"/><path fill="#000000" fill-opacity="0.0" d="m461.54376 39.165356l-92.724396 0" fill-rule="evenodd"/><path stroke="#b6d7a8" stroke-width="8.0" stroke-linejoin="round" stroke-linecap="butt" d="m461.54376 39.165356l-44.724426 0" fill-rule="evenodd"/><path fill="#b6d7a8" stroke="#b6d7a8" stroke-width="8.0" stroke-linecap="butt" d="m416.81934 25.951494l-36.30478 13.213861l36.30478 13.21386z" fill-rule="evenodd"/><path fill="#000000" fill-opacity="0.0" d="m298.18945 39.165356l-92.72441 0" fill-rule="evenodd"/><path stroke="#b6d7a8" stroke-width="8.0" stroke-linejoin="round" stroke-linecap="butt" d="m298.18945 39.165356l-44.72441 0" fill-rule="evenodd"/><path fill="#b6d7a8" stroke="#b6d7a8" stroke-width="8.0" stroke-linecap="butt" d="m253.46504 25.951494l-36.30478 13.213861l36.30478 13.21386z" fill-rule="evenodd"/><path fill="#000000" fill-opacity="0.0" d="m161.64613 43.503937l-87.62204 66.58268" fill-rule="evenodd"/><path stroke="#b6d7a8" stroke-width="8.0" stroke-linejoin="round" stroke-linecap="butt" d="m161.64613 43.503937l-49.404144 37.541466" fill-rule="evenodd"/><path fill="#b6d7a8" stroke="#b6d7a8" stroke-width="8.0" stroke-linecap="butt" d="m104.24728 70.524445l-20.911377 32.486267l36.90081 -11.444351z" fill-rule="evenodd"/><path fill="#000000" fill-opacity="0.0" d="m74.937004 154.4567l-0.9133835 90.89763" fill-rule="evenodd"/><path stroke="#b6d7a8" stroke-width="8.0" stroke-linejoin="round" stroke-linecap="butt" d="m74.937004 154.4567l-0.43107605 42.900055" fill-rule="evenodd"/><path fill="#b6d7a8" stroke="#b6d7a8" stroke-width="8.0" stroke-linecap="butt" d="m61.292732 197.22398l12.848404 36.435715l13.57798 -36.170166z" fill-rule="evenodd"/><path fill="#000000" fill-opacity="0.0" d="m741.507 498.87402l0 79.49603" fill-rule="evenodd"/><path stroke="#b6d7a8" stroke-width="8.0" stroke-linejoin="round" stroke-linecap="butt" d="m741.5071 498.87402l0 31.496033" fill-rule="evenodd"/><path fill="#b6d7a8" stroke="#b6d7a8" stroke-width="8.0" stroke-linecap="butt" d="m728.2932 530.37006l13.213867 36.30481l13.213806 -36.30481z" fill-rule="evenodd"/><path fill="#000000" fill-opacity="0.0" d="m741.507 618.874l-60.094482 62.141724" fill-rule="evenodd"/><path stroke="#b6d7a8" stroke-width="8.0" stroke-linejoin="round" stroke-linecap="butt" d="m741.5071 618.874l-26.726562 27.637024" fill-rule="evenodd"/><path fill="#b6d7a8" stroke="#b6d7a8" stroke-width="8.0" stroke-linecap="butt" d="m705.28174 637.3252l-15.739075 35.283447l34.736633 -16.911804z" fill-rule="evenodd"/><path fill="#000000" fill-opacity="0.0" d="m630.8509 681.01575l-92.72443 0" fill-rule="evenodd"/><path stroke="#b6d7a8" stroke-width="8.0" stroke-linejoin="round" stroke-linecap="butt" d="m630.8508 681.01575l-44.724365 0" fill-rule="evenodd"/><path fill="#b6d7a8" stroke="#b6d7a8" stroke-width="8.0" stroke-linecap="butt" d="m586.1264 667.8019l-36.30475 13.213867l36.30475 13.213867z" fill-rule="evenodd"/><path fill="#000000" fill-opacity="0.0" d="m461.54376 685.3543l-92.724396 0" fill-rule="evenodd"/><path stroke="#b6d7a8" stroke-width="8.0" stroke-linejoin="round" stroke-linecap="butt" d="m461.54376 685.3543l-44.724426 0" fill-rule="evenodd"/><path fill="#b6d7a8" stroke="#b6d7a8" stroke-width="8.0" stroke-linecap="butt" d="m416.81934 672.14044l-36.30478 13.213867l36.30478 13.213867z" fill-rule="evenodd"/><path fill="#000000" fill-opacity="0.0" d="m298.18945 685.3543l-92.72441 0" fill-rule="evenodd"/><path stroke="#b6d7a8" stroke-width="8.0" stroke-linejoin="round" stroke-linecap="butt" d="m298.18945 685.3543l-44.72441 0" fill-rule="evenodd"/><path fill="#b6d7a8" stroke="#b6d7a8" stroke-width="8.0" stroke-linecap="butt" d="m253.46504 672.14044l-36.30478 13.213867l36.30478 13.213867z" fill-rule="evenodd"/><path fill="#000000" fill-opacity="0.0" d="m161.64613 681.01575l-87.62204 -66.5827" fill-rule="evenodd"/><path stroke="#b6d7a8" stroke-width="8.0" stroke-linejoin="round" stroke-linecap="butt" d="m161.64613 681.01575l-49.404144 -37.541443" fill-rule="evenodd"/><path fill="#b6d7a8" stroke="#b6d7a8" stroke-width="8.0" stroke-linecap="butt" d="m120.23671 632.9533l-36.90081 -11.444336l20.911377 32.486267z" fill-rule="evenodd"/><path fill="#000000" fill-opacity="0.0" d="m74.937004 570.063l-0.9133835 -90.897644" fill-rule="evenodd"/><path stroke="#b6d7a8" stroke-width="8.0" stroke-linejoin="round" stroke-linecap="butt" d="m74.937004 570.063l-0.43107605 -42.900024" fill-rule="evenodd"/><path fill="#b6d7a8" stroke="#b6d7a8" stroke-width="8.0" stroke-linecap="butt" d="m87.71912 527.03015l-13.57798 -36.170166l-12.848404 36.43573z" fill-rule="evenodd"/></g></svg>