<svg version="1.1" viewBox="0.0 0.0 830.4356955380578 169.89763779527559" fill="none" stroke="none" stroke-linecap="square" stroke-miterlimit="10" xmlns:xlink="http://www.w3.org/1999/xlink" xmlns="http://www.w3.org/2000/svg"><clipPath id="p.0"><path d="m0 0l830.43567 0l0 169.89764l-830.43567 0l0 -169.89764z" clip-rule="nonzero"/></clipPath><g clip-path="url(#p.0)"><path fill="#000000" fill-opacity="0.0" d="m0 0l830.43567 0l0 169.89764l-830.43567 0z" fill-rule="evenodd"/><path fill="#d9d9d9" d="m114.28084 8.569553l67.52756 0l0 23.716537l-67.52756 0z" fill-rule="evenodd"/><path fill="#000000" d="m145.2077 22.682196l1.0625 -0.140625q0.171875 0.890625 0.609375 1.296875q0.4375 0.390625 1.0625 0.390625q0.75 0 1.265625 -0.515625q0.515625 -0.515625 0.515625 -1.28125q0 -0.71875 -0.484375 -1.1875q-0.46875 -0.484375 -1.203125 -0.484375q-0.296875 0 -0.75 0.125l0.125 -0.9375q0.109375 0.015625 0.171875 0.015625q0.671875 0 1.203125 -0.34375q0.546875 -0.359375 0.546875 -1.09375q0 -0.578125 -0.390625 -0.953125q-0.390625 -0.390625 -1.015625 -0.390625q-0.609375 0 -1.03125 0.390625q-0.40625 0.390625 -0.515625 1.15625l-1.0625 -0.1875q0.1875 -1.046875 0.875 -1.625q0.6875 -0.59375 1.703125 -0.59375q0.703125 0 1.296875 0.3125q0.59375 0.296875 0.90625 0.8125q0.3125 0.515625 0.3125 1.109375q0 0.546875 -0.296875 1.015625q-0.296875 0.453125 -0.875 0.71875q0.75 0.171875 1.171875 0.734375q0.421875 0.546875 0.421875 1.390625q0 1.125 -0.828125 1.90625q-0.8125 0.78125 -2.0625 0.78125q-1.125 0 -1.875 -0.671875q-0.75 -0.6875 -0.859375 -1.75z" fill-rule="nonzero"/><path fill="#d9d9d9" d="m194.28084 8.569553l67.52757 0l0 23.716537l-67.52757 0z" fill-rule="evenodd"/><path fill="#000000" d="m228.5827 24.94782l0 -2.0625l-3.71875 0l0 -0.96875l3.921875 -5.5625l0.859375 0l0 5.5625l1.15625 0l0 0.96875l-1.15625 0l0 2.0625l-1.0625 0zm0 -3.03125l0 -3.859375l-2.6875 3.859375l2.6875 0z" fill-rule="nonzero"/><path fill="#d9d9d9" d="m274.28085 8.569553l67.52756 0l0 23.716537l-67.52756 0z" fill-rule="evenodd"/><path fill="#000000" d="m305.2077 22.69782l1.109375 -0.09375q0.125 0.8125 0.5625 1.21875q0.453125 0.40625 1.09375 0.40625q0.75 0 1.28125 -0.578125q0.53125 -0.578125 0.53125 -1.515625q0 -0.90625 -0.515625 -1.421875q-0.5 -0.53125 -1.328125 -0.53125q-0.5 0 -0.921875 0.234375q-0.40625 0.234375 -0.640625 0.59375l-0.984375 -0.125l0.828125 -4.40625l4.28125 0l0 1.0l-3.4375 0l-0.453125 2.3125q0.765625 -0.546875 1.609375 -0.546875q1.125 0 1.890625 0.78125q0.78125 0.78125 0.78125 2.015625q0 1.15625 -0.671875 2.015625q-0.828125 1.03125 -2.25 1.03125q-1.171875 0 -1.921875 -0.65625q-0.734375 -0.65625 -0.84375 -1.734375z" fill-rule="nonzero"/><path fill="#d9d9d9" d="m354.28085 8.569553l67.52756 0l0 23.716537l-67.52756 0z" fill-rule="evenodd"/><path fill="#000000" d="m390.67645 18.463446l-1.046875 0.078125q-0.140625 -0.625 -0.390625 -0.90625q-0.4375 -0.453125 -1.0625 -0.453125q-0.5 0 -0.890625 0.28125q-0.484375 0.375 -0.78125 1.078125q-0.28125 0.6875 -0.296875 1.96875q0.375 -0.578125 0.921875 -0.859375q0.5625 -0.28125 1.171875 -0.28125q1.046875 0 1.78125 0.78125q0.75 0.78125 0.75 2.0q0 0.8125 -0.359375 1.515625q-0.34375 0.6875 -0.953125 1.0625q-0.609375 0.359375 -1.375 0.359375q-1.328125 0 -2.15625 -0.96875q-0.828125 -0.96875 -0.828125 -3.1875q0 -2.5 0.921875 -3.625q0.796875 -0.984375 2.15625 -0.984375q1.015625 0 1.65625 0.578125q0.65625 0.5625 0.78125 1.5625zm-4.296875 3.703125q0 0.546875 0.21875 1.046875q0.234375 0.484375 0.640625 0.75q0.421875 0.265625 0.890625 0.265625q0.65625 0 1.140625 -0.53125q0.484375 -0.546875 0.484375 -1.46875q0 -0.890625 -0.484375 -1.40625q-0.46875 -0.515625 -1.1875 -0.515625q-0.71875 0 -1.21875 0.515625q-0.484375 0.515625 -0.484375 1.34375z" fill-rule="nonzero"/><path fill="#d9d9d9" d="m434.28085 8.569553l67.52756 0l0 23.716537l-67.52756 0z" fill-rule="evenodd"/><path fill="#000000" d="m465.2702 17.47907l0 -1.015625l5.5625 0l0 0.828125q-0.8125 0.875 -1.625 2.328125q-0.796875 1.4375 -1.234375 2.96875q-0.328125 1.078125 -0.40625 2.359375l-1.09375 0q0.015625 -1.015625 0.390625 -2.453125q0.390625 -1.4375 1.09375 -2.765625q0.71875 -1.328125 1.53125 -2.25l-4.21875 0z" fill-rule="nonzero"/><path fill="#d9d9d9" d="m514.2808 8.569553l67.52759 0l0 23.716537l-67.52759 0z" fill-rule="evenodd"/><path fill="#000000" d="m546.8327 20.29157q-0.65625 -0.25 -0.984375 -0.6875q-0.3125 -0.453125 -0.3125 -1.0625q0 -0.9375 0.671875 -1.578125q0.6875 -0.640625 1.796875 -0.640625q1.125 0 1.8125 0.65625q0.6875 0.65625 0.6875 1.59375q0 0.59375 -0.3125 1.03125q-0.3125 0.4375 -0.953125 0.6875q0.796875 0.25 1.203125 0.828125q0.40625 0.578125 0.40625 1.375q0 1.09375 -0.78125 1.84375q-0.765625 0.75 -2.046875 0.75q-1.265625 0 -2.046875 -0.75q-0.78125 -0.75 -0.78125 -1.875q0 -0.84375 0.421875 -1.40625q0.4375 -0.5625 1.21875 -0.765625zm-0.21875 -1.796875q0 0.609375 0.390625 1.0q0.40625 0.390625 1.03125 0.390625q0.609375 0 1.0 -0.375q0.390625 -0.390625 0.390625 -0.953125q0 -0.578125 -0.40625 -0.96875q-0.40625 -0.40625 -1.0 -0.40625q-0.609375 0 -1.015625 0.390625q-0.390625 0.390625 -0.390625 0.921875zm-0.328125 3.96875q0 0.453125 0.203125 0.875q0.21875 0.421875 0.640625 0.65625q0.421875 0.234375 0.90625 0.234375q0.75 0 1.234375 -0.484375q0.5 -0.484375 0.5 -1.234375q0 -0.765625 -0.5 -1.265625q-0.5 -0.5 -1.265625 -0.5q-0.75 0 -1.234375 0.5q-0.484375 0.484375 -0.484375 1.21875z" fill-rule="nonzero"/><path fill="#d9d9d9" d="m594.2808 8.569553l67.52759 0l0 23.716537l-67.52759 0z" fill-rule="evenodd"/><path fill="#000000" d="m625.36395 22.963446l1.015625 -0.09375q0.125 0.71875 0.484375 1.046875q0.375 0.3125 0.9375 0.3125q0.484375 0 0.84375 -0.21875q0.375 -0.234375 0.609375 -0.59375q0.234375 -0.375 0.390625 -1.0q0.15625 -0.640625 0.15625 -1.296875q0 -0.078125 0 -0.21875q-0.3125 0.5 -0.859375 0.828125q-0.546875 0.3125 -1.1875 0.3125q-1.078125 0 -1.8125 -0.765625q-0.734375 -0.78125 -0.734375 -2.046875q0 -1.3125 0.765625 -2.109375q0.78125 -0.796875 1.9375 -0.796875q0.828125 0 1.515625 0.453125q0.703125 0.453125 1.0625 1.296875q0.359375 0.828125 0.359375 2.40625q0 1.640625 -0.359375 2.625q-0.34375 0.96875 -1.0625 1.484375q-0.703125 0.5 -1.640625 0.5q-1.015625 0 -1.65625 -0.546875q-0.640625 -0.5625 -0.765625 -1.578125zm4.3125 -3.796875q0 -0.90625 -0.484375 -1.4375q-0.46875 -0.53125 -1.15625 -0.53125q-0.703125 0 -1.234375 0.578125q-0.515625 0.5625 -0.515625 1.484375q0 0.8125 0.5 1.328125q0.5 0.515625 1.21875 0.515625q0.734375 0 1.203125 -0.515625q0.46875 -0.515625 0.46875 -1.421875z" fill-rule="nonzero"/><path fill="#d9d9d9" d="m674.2808 8.569553l67.52759 0l0 23.716537l-67.52759 0z" fill-rule="evenodd"/><path fill="#000000" d="m705.83954 24.94782l-1.046875 0l0 -6.71875q-0.390625 0.359375 -1.015625 0.734375q-0.609375 0.359375 -1.09375 0.53125l0 -1.015625q0.875 -0.421875 1.53125 -1.0q0.671875 -0.59375 0.953125 -1.15625l0.671875 0l0 8.625zm2.7050781 -4.234375q0 -1.53125 0.3125 -2.453125q0.3125 -0.9375 0.921875 -1.4375q0.625 -0.5 1.5625 -0.5q0.6875 0 1.203125 0.28125q0.53125 0.28125 0.875 0.8125q0.34375 0.515625 0.53125 1.265625q0.1875 0.75 0.1875 2.03125q0 1.515625 -0.3125 2.4375q-0.296875 0.921875 -0.921875 1.4375q-0.609375 0.5 -1.5625 0.5q-1.234375 0 -1.953125 -0.890625q-0.84375 -1.0625 -0.84375 -3.484375zm1.078125 0q0 2.109375 0.5 2.8125q0.5 0.703125 1.21875 0.703125q0.734375 0 1.21875 -0.703125q0.5 -0.703125 0.5 -2.8125q0 -2.125 -0.5 -2.8125q-0.484375 -0.703125 -1.234375 -0.703125q-0.71875 0 -1.15625 0.609375q-0.546875 0.78125 -0.546875 2.90625z" fill-rule="nonzero"/><path fill="#d9d9d9" d="m754.2808 8.569553l67.52759 0l0 23.716537l-67.52759 0z" fill-rule="evenodd"/><path fill="#000000" d="m786.28485 24.94782l-1.046875 0l0 -6.71875q-0.390625 0.359375 -1.015625 0.734375q-0.609375 0.359375 -1.09375 0.53125l0 -1.015625q0.875 -0.421875 1.53125 -1.0q0.671875 -0.59375 0.953125 -1.15625l0.671875 0l0 8.625zm5.783203 0l-1.046875 0l0 -6.71875q-0.390625 0.359375 -1.015625 0.734375q-0.609375 0.359375 -1.09375 0.53125l0 -1.015625q0.875 -0.421875 1.53125 -1.0q0.671875 -0.59375 0.953125 -1.15625l0.671875 0l0 8.625z" fill-rule="nonzero"/><path fill="#cfe2f3" d="m114.28084 40.569553l147.52757 0l0 23.716534l-147.52757 0z" fill-rule="evenodd"/><path fill="#000000" d="m172.95868 56.947823l0 -8.59375l3.25 0q0.84375 0 1.296875 0.078125q0.640625 0.109375 1.0625 0.40625q0.4375 0.296875 0.6875 0.828125q0.265625 0.53125 0.265625 1.171875q0 1.09375 -0.703125 1.859375q-0.6875 0.75 -2.515625 0.75l-2.203125 0l0 3.5l-1.140625 0zm1.140625 -4.5l2.21875 0q1.109375 0 1.5625 -0.40625q0.46875 -0.421875 0.46875 -1.171875q0 -0.53125 -0.28125 -0.90625q-0.265625 -0.390625 -0.703125 -0.515625q-0.296875 -0.078125 -1.0625 -0.078125l-2.203125 0l0 3.078125zm10.800781 3.734375q-0.59375 0.5 -1.140625 0.703125q-0.53125 0.203125 -1.15625 0.203125q-1.03125 0 -1.578125 -0.5q-0.546875 -0.5 -0.546875 -1.28125q0 -0.453125 0.203125 -0.828125q0.203125 -0.390625 0.546875 -0.609375q0.34375 -0.234375 0.765625 -0.34375q0.296875 -0.09375 0.9375 -0.171875q1.265625 -0.140625 1.875 -0.359375q0 -0.21875 0 -0.265625q0 -0.65625 -0.296875 -0.921875q-0.40625 -0.34375 -1.203125 -0.34375q-0.734375 0 -1.09375 0.265625q-0.359375 0.25 -0.53125 0.90625l-1.03125 -0.140625q0.140625 -0.65625 0.46875 -1.0625q0.328125 -0.40625 0.9375 -0.625q0.609375 -0.21875 1.40625 -0.21875q0.796875 0 1.296875 0.1875q0.5 0.1875 0.734375 0.46875q0.234375 0.28125 0.328125 0.71875q0.046875 0.265625 0.046875 0.96875l0 1.40625q0 1.46875 0.0625 1.859375q0.078125 0.390625 0.28125 0.75l-1.109375 0q-0.15625 -0.328125 -0.203125 -0.765625zm-0.09375 -2.359375q-0.578125 0.234375 -1.71875 0.40625q-0.65625 0.09375 -0.921875 0.21875q-0.265625 0.109375 -0.421875 0.328125q-0.140625 0.21875 -0.140625 0.5q0 0.421875 0.3125 0.703125q0.328125 0.28125 0.9375 0.28125q0.609375 0 1.078125 -0.265625q0.484375 -0.265625 0.703125 -0.734375q0.171875 -0.359375 0.171875 -1.046875l0 -0.390625zm2.6894531 3.125l0 -6.21875l0.953125 0l0 0.9375q0.359375 -0.65625 0.65625 -0.859375q0.3125 -0.21875 0.6875 -0.21875q0.53125 0 1.078125 0.328125l-0.359375 0.984375q-0.390625 -0.234375 -0.765625 -0.234375q-0.359375 0 -0.640625 0.21875q-0.265625 0.203125 -0.375 0.578125q-0.1875 0.5625 -0.1875 1.21875l0 3.265625l-1.046875 0zm6.3085938 -0.9375l0.15625 0.921875q-0.453125 0.09375 -0.796875 0.09375q-0.578125 0 -0.890625 -0.171875q-0.3125 -0.1875 -0.453125 -0.484375q-0.125 -0.296875 -0.125 -1.25l0 -3.578125l-0.765625 0l0 -0.8125l0.765625 0l0 -1.546875l1.046875 -0.625l0 2.171875l1.0625 0l0 0.8125l-1.0625 0l0 3.640625q0 0.453125 0.046875 0.578125q0.0625 0.125 0.1875 0.203125q0.125 0.078125 0.359375 0.078125q0.1875 0 0.46875 -0.03125zm8.042969 0.9375l-1.046875 0l0 -6.71875q-0.390625 0.359375 -1.015625 0.734375q-0.609375 0.359375 -1.09375 0.53125l0 -1.015625q0.875 -0.421875 1.53125 -1.0q0.671875 -0.59375 0.953125 -1.15625l0.671875 0l0 8.625z" fill-rule="nonzero"/><path fill="#d9ead3" d="m274.28085 40.569553l147.52756 0l0 23.716534l-147.52756 0z" fill-rule="evenodd"/><path fill="#000000" d="m332.95868 56.947823l0 -8.59375l3.25 0q0.84375 0 1.296875 0.078125q0.640625 0.109375 1.0625 0.40625q0.4375 0.296875 0.6875 0.828125q0.265625 0.53125 0.265625 1.171875q0 1.09375 -0.703125 1.859375q-0.6875 0.75 -2.515625 0.75l-2.203125 0l0 3.5l-1.140625 0zm1.140625 -4.5l2.21875 0q1.109375 0 1.5625 -0.40625q0.46875 -0.421875 0.46875 -1.171875q0 -0.53125 -0.28125 -0.90625q-0.265625 -0.390625 -0.703125 -0.515625q-0.296875 -0.078125 -1.0625 -0.078125l-2.203125 0l0 3.078125zm10.800781 3.734375q-0.59375 0.5 -1.140625 0.703125q-0.53125 0.203125 -1.15625 0.203125q-1.03125 0 -1.578125 -0.5q-0.546875 -0.5 -0.546875 -1.28125q0 -0.453125 0.203125 -0.828125q0.203125 -0.390625 0.546875 -0.609375q0.34375 -0.234375 0.765625 -0.34375q0.296875 -0.09375 0.9375 -0.171875q1.265625 -0.140625 1.875 -0.359375q0 -0.21875 0 -0.265625q0 -0.65625 -0.296875 -0.921875q-0.40625 -0.34375 -1.203125 -0.34375q-0.734375 0 -1.09375 0.265625q-0.359375 0.25 -0.53125 0.90625l-1.03125 -0.140625q0.140625 -0.65625 0.46875 -1.0625q0.328125 -0.40625 0.9375 -0.625q0.609375 -0.21875 1.40625 -0.21875q0.796875 0 1.296875 0.1875q0.5 0.1875 0.734375 0.46875q0.234375 0.28125 0.328125 0.71875q0.046875 0.265625 0.046875 0.96875l0 1.40625q0 1.46875 0.0625 1.859375q0.078125 0.390625 0.28125 0.75l-1.109375 0q-0.15625 -0.328125 -0.203125 -0.765625zm-0.09375 -2.359375q-0.578125 0.234375 -1.71875 0.40625q-0.65625 0.09375 -0.921875 0.21875q-0.265625 0.109375 -0.421875 0.328125q-0.140625 0.21875 -0.140625 0.5q0 0.421875 0.3125 0.703125q0.328125 0.28125 0.9375 0.28125q0.609375 0 1.078125 -0.265625q0.484375 -0.265625 0.703125 -0.734375q0.171875 -0.359375 0.171875 -1.046875l0 -0.390625zm2.6894531 3.125l0 -6.21875l0.953125 0l0 0.9375q0.359375 -0.65625 0.65625 -0.859375q0.3125 -0.21875 0.6875 -0.21875q0.53125 0 1.078125 0.328125l-0.359375 0.984375q-0.390625 -0.234375 -0.765625 -0.234375q-0.359375 0 -0.640625 0.21875q-0.265625 0.203125 -0.375 0.578125q-0.1875 0.5625 -0.1875 1.21875l0 3.265625l-1.046875 0zm6.3085938 -0.9375l0.15625 0.921875q-0.453125 0.09375 -0.796875 0.09375q-0.578125 0 -0.890625 -0.171875q-0.3125 -0.1875 -0.453125 -0.484375q-0.125 -0.296875 -0.125 -1.25l0 -3.578125l-0.765625 0l0 -0.8125l0.765625 0l0 -1.546875l1.046875 -0.625l0 2.171875l1.0625 0l0 0.8125l-1.0625 0l0 3.640625q0 0.453125 0.046875 0.578125q0.0625 0.125 0.1875 0.203125q0.125 0.078125 0.359375 0.078125q0.1875 0 0.46875 -0.03125zm9.621094 -0.078125l0 1.015625l-5.6875 0q0 -0.375 0.125 -0.734375q0.21875 -0.578125 0.6875 -1.140625q0.484375 -0.5625 1.390625 -1.296875q1.40625 -1.15625 1.890625 -1.828125q0.5 -0.671875 0.5 -1.265625q0 -0.625 -0.453125 -1.046875q-0.453125 -0.4375 -1.171875 -0.4375q-0.765625 0 -1.21875 0.453125q-0.453125 0.453125 -0.46875 1.265625l-1.078125 -0.109375q0.109375 -1.21875 0.828125 -1.84375q0.734375 -0.640625 1.96875 -0.640625q1.234375 0 1.953125 0.6875q0.71875 0.6875 0.71875 1.703125q0 0.515625 -0.21875 1.015625q-0.203125 0.484375 -0.703125 1.046875q-0.484375 0.546875 -1.609375 1.5q-0.953125 0.796875 -1.234375 1.09375q-0.265625 0.28125 -0.4375 0.5625l4.21875 0z" fill-rule="nonzero"/><path fill="#fce5cd" d="m514.2808 40.569553l147.52759 0l0 23.716534l-147.52759 0z" fill-rule="evenodd"/><path fill="#000000" d="m572.9587 56.947823l0 -8.59375l3.25 0q0.84375 0 1.296875 0.078125q0.640625 0.109375 1.0625 0.40625q0.4375 0.296875 0.6875 0.828125q0.265625 0.53125 0.265625 1.171875q0 1.09375 -0.703125 1.859375q-0.6875 0.75 -2.515625 0.75l-2.203125 0l0 3.5l-1.140625 0zm1.140625 -4.5l2.21875 0q1.109375 0 1.5625 -0.40625q0.46875 -0.421875 0.46875 -1.171875q0 -0.53125 -0.28125 -0.90625q-0.265625 -0.390625 -0.703125 -0.515625q-0.296875 -0.078125 -1.0625 -0.078125l-2.203125 0l0 3.078125zm10.800781 3.734375q-0.59375 0.5 -1.140625 0.703125q-0.53125 0.203125 -1.15625 0.203125q-1.03125 0 -1.578125 -0.5q-0.546875 -0.5 -0.546875 -1.28125q0 -0.453125 0.203125 -0.828125q0.203125 -0.390625 0.546875 -0.609375q0.34375 -0.234375 0.765625 -0.34375q0.296875 -0.09375 0.9375 -0.171875q1.265625 -0.140625 1.875 -0.359375q0 -0.21875 0 -0.265625q0 -0.65625 -0.296875 -0.921875q-0.40625 -0.34375 -1.203125 -0.34375q-0.734375 0 -1.09375 0.265625q-0.359375 0.25 -0.53125 0.90625l-1.03125 -0.140625q0.140625 -0.65625 0.46875 -1.0625q0.328125 -0.40625 0.9375 -0.625q0.609375 -0.21875 1.40625 -0.21875q0.796875 0 1.296875 0.1875q0.5 0.1875 0.734375 0.46875q0.234375 0.28125 0.328125 0.71875q0.046875 0.265625 0.046875 0.96875l0 1.40625q0 1.46875 0.0625 1.859375q0.078125 0.390625 0.28125 0.75l-1.109375 0q-0.15625 -0.328125 -0.203125 -0.765625zm-0.09375 -2.359375q-0.578125 0.234375 -1.71875 0.40625q-0.65625 0.09375 -0.921875 0.21875q-0.265625 0.109375 -0.421875 0.328125q-0.140625 0.21875 -0.140625 0.5q0 0.421875 0.3125 0.703125q0.328125 0.28125 0.9375 0.28125q0.609375 0 1.078125 -0.265625q0.484375 -0.265625 0.703125 -0.734375q0.171875 -0.359375 0.171875 -1.046875l0 -0.390625zm2.6894531 3.125l0 -6.21875l0.953125 0l0 0.9375q0.359375 -0.65625 0.65625 -0.859375q0.3125 -0.21875 0.6875 -0.21875q0.53125 0 1.078125 0.328125l-0.359375 0.984375q-0.390625 -0.234375 -0.765625 -0.234375q-0.359375 0 -0.640625 0.21875q-0.265625 0.203125 -0.375 0.578125q-0.1875 0.5625 -0.1875 1.21875l0 3.265625l-1.046875 0zm6.3085938 -0.9375l0.15625 0.921875q-0.453125 0.09375 -0.796875 0.09375q-0.578125 0 -0.890625 -0.171875q-0.3125 -0.1875 -0.453125 -0.484375q-0.125 -0.296875 -0.125 -1.25l0 -3.578125l-0.765625 0l0 -0.8125l0.765625 0l0 -1.546875l1.046875 -0.625l0 2.171875l1.0625 0l0 0.8125l-1.0625 0l0 3.640625q0 0.453125 0.046875 0.578125q0.0625 0.125 0.1875 0.203125q0.125 0.078125 0.359375 0.078125q0.1875 0 0.46875 -0.03125zm4.0742188 -1.328125l1.0625 -0.140625q0.171875 0.890625 0.609375 1.296875q0.4375 0.390625 1.0625 0.390625q0.75 0 1.265625 -0.515625q0.515625 -0.515625 0.515625 -1.28125q0 -0.71875 -0.484375 -1.1875q-0.46875 -0.484375 -1.203125 -0.484375q-0.296875 0 -0.75 0.125l0.125 -0.9375q0.109375 0.015625 0.171875 0.015625q0.671875 0 1.203125 -0.34375q0.546875 -0.359375 0.546875 -1.09375q0 -0.578125 -0.390625 -0.953125q-0.390625 -0.390625 -1.015625 -0.390625q-0.609375 0 -1.03125 0.390625q-0.40625 0.390625 -0.515625 1.15625l-1.0625 -0.1875q0.1875 -1.046875 0.875 -1.625q0.6875 -0.59375 1.703125 -0.59375q0.703125 0 1.296875 0.3125q0.59375 0.296875 0.90625 0.8125q0.3125 0.515625 0.3125 1.109375q0 0.546875 -0.296875 1.015625q-0.296875 0.453125 -0.875 0.71875q0.75 0.171875 1.171875 0.734375q0.421875 0.546875 0.421875 1.390625q0 1.125 -0.828125 1.90625q-0.8125 0.78125 -2.0625 0.78125q-1.125 0 -1.875 -0.671875q-0.75 -0.6875 -0.859375 -1.75z" fill-rule="nonzero"/><path fill="#f4cccc" d="m674.2808 40.569553l147.52759 0l0 23.716534l-147.52759 0z" fill-rule="evenodd"/><path fill="#000000" d="m732.9587 56.947823l0 -8.59375l3.25 0q0.84375 0 1.296875 0.078125q0.640625 0.109375 1.0625 0.40625q0.4375 0.296875 0.6875 0.828125q0.265625 0.53125 0.265625 1.171875q0 1.09375 -0.703125 1.859375q-0.6875 0.75 -2.515625 0.75l-2.203125 0l0 3.5l-1.140625 0zm1.140625 -4.5l2.21875 0q1.109375 0 1.5625 -0.40625q0.46875 -0.421875 0.46875 -1.171875q0 -0.53125 -0.28125 -0.90625q-0.265625 -0.390625 -0.703125 -0.515625q-0.296875 -0.078125 -1.0625 -0.078125l-2.203125 0l0 3.078125zm10.800781 3.734375q-0.59375 0.5 -1.140625 0.703125q-0.53125 0.203125 -1.15625 0.203125q-1.03125 0 -1.578125 -0.5q-0.546875 -0.5 -0.546875 -1.28125q0 -0.453125 0.203125 -0.828125q0.203125 -0.390625 0.546875 -0.609375q0.34375 -0.234375 0.765625 -0.34375q0.296875 -0.09375 0.9375 -0.171875q1.265625 -0.140625 1.875 -0.359375q0 -0.21875 0 -0.265625q0 -0.65625 -0.296875 -0.921875q-0.40625 -0.34375 -1.203125 -0.34375q-0.734375 0 -1.09375 0.265625q-0.359375 0.25 -0.53125 0.90625l-1.03125 -0.140625q0.140625 -0.65625 0.46875 -1.0625q0.328125 -0.40625 0.9375 -0.625q0.609375 -0.21875 1.40625 -0.21875q0.796875 0 1.296875 0.1875q0.5 0.1875 0.734375 0.46875q0.234375 0.28125 0.328125 0.71875q0.046875 0.265625 0.046875 0.96875l0 1.40625q0 1.46875 0.0625 1.859375q0.078125 0.390625 0.28125 0.75l-1.109375 0q-0.15625 -0.328125 -0.203125 -0.765625zm-0.09375 -2.359375q-0.578125 0.234375 -1.71875 0.40625q-0.65625 0.09375 -0.921875 0.21875q-0.265625 0.109375 -0.421875 0.328125q-0.140625 0.21875 -0.140625 0.5q0 0.421875 0.3125 0.703125q0.328125 0.28125 0.9375 0.28125q0.609375 0 1.078125 -0.265625q0.484375 -0.265625 0.703125 -0.734375q0.171875 -0.359375 0.171875 -1.046875l0 -0.390625zm2.6894531 3.125l0 -6.21875l0.953125 0l0 0.9375q0.359375 -0.65625 0.65625 -0.859375q0.3125 -0.21875 0.6875 -0.21875q0.53125 0 1.078125 0.328125l-0.359375 0.984375q-0.390625 -0.234375 -0.765625 -0.234375q-0.359375 0 -0.640625 0.21875q-0.265625 0.203125 -0.375 0.578125q-0.1875 0.5625 -0.1875 1.21875l0 3.265625l-1.046875 0zm6.3085938 -0.9375l0.15625 0.921875q-0.453125 0.09375 -0.796875 0.09375q-0.578125 0 -0.890625 -0.171875q-0.3125 -0.1875 -0.453125 -0.484375q-0.125 -0.296875 -0.125 -1.25l0 -3.578125l-0.765625 0l0 -0.8125l0.765625 0l0 -1.546875l1.046875 -0.625l0 2.171875l1.0625 0l0 0.8125l-1.0625 0l0 3.640625q0 0.453125 0.046875 0.578125q0.0625 0.125 0.1875 0.203125q0.125 0.078125 0.359375 0.078125q0.1875 0 0.46875 -0.03125zm7.4492188 0.9375l0 -2.0625l-3.71875 0l0 -0.96875l3.921875 -5.5625l0.859375 0l0 5.5625l1.15625 0l0 0.96875l-1.15625 0l0 2.0625l-1.0625 0zm0 -3.03125l0 -3.859375l-2.6875 3.859375l2.6875 0z" fill-rule="nonzero"/><path fill="#666666" d="m434.28085 104.56956l67.52756 0l0 23.71653l-67.52756 0z" fill-rule="evenodd"/><path fill="#ffffff" d="m446.5661 120.94782l0 -8.59375l6.375 0l0 1.453125l-4.640625 0l0 1.90625l4.3125 0l0 1.453125l-4.3125 0l0 2.328125l4.796875 0l0 1.453125l-6.53125 0zm7.4101562 -1.78125l1.65625 -0.25q0.109375 0.484375 0.421875 0.734375q0.328125 0.25 0.90625 0.25q0.640625 0 0.953125 -0.234375q0.21875 -0.171875 0.21875 -0.4375q0 -0.1875 -0.109375 -0.3125q-0.125 -0.125 -0.546875 -0.21875q-2.0 -0.4375 -2.53125 -0.796875q-0.734375 -0.515625 -0.734375 -1.40625q0 -0.8125 0.625 -1.359375q0.640625 -0.546875 1.984375 -0.546875q1.28125 0 1.90625 0.421875q0.625 0.40625 0.859375 1.21875l-1.5625 0.28125q-0.09375 -0.359375 -0.375 -0.546875q-0.28125 -0.203125 -0.796875 -0.203125q-0.640625 0 -0.921875 0.1875q-0.1875 0.125 -0.1875 0.328125q0 0.1875 0.15625 0.3125q0.21875 0.15625 1.53125 0.453125q1.328125 0.296875 1.84375 0.734375q0.515625 0.4375 0.515625 1.21875q0 0.859375 -0.71875 1.484375q-0.703125 0.609375 -2.109375 0.609375q-1.265625 0 -2.015625 -0.515625q-0.734375 -0.515625 -0.96875 -1.40625zm6.673828 0l1.65625 -0.25q0.109375 0.484375 0.421875 0.734375q0.328125 0.25 0.90625 0.25q0.640625 0 0.953125 -0.234375q0.21875 -0.171875 0.21875 -0.4375q0 -0.1875 -0.109375 -0.3125q-0.125 -0.125 -0.546875 -0.21875q-2.0 -0.4375 -2.53125 -0.796875q-0.734375 -0.515625 -0.734375 -1.40625q0 -0.8125 0.625 -1.359375q0.640625 -0.546875 1.984375 -0.546875q1.28125 0 1.90625 0.421875q0.625 0.40625 0.859375 1.21875l-1.5625 0.28125q-0.09375 -0.359375 -0.375 -0.546875q-0.28125 -0.203125 -0.796875 -0.203125q-0.640625 0 -0.921875 0.1875q-0.1875 0.125 -0.1875 0.328125q0 0.1875 0.15625 0.3125q0.21875 0.15625 1.53125 0.453125q1.328125 0.296875 1.84375 0.734375q0.515625 0.4375 0.515625 1.21875q0 0.859375 -0.71875 1.484375q-0.703125 0.609375 -2.109375 0.609375q-1.265625 0 -2.015625 -0.515625q-0.734375 -0.515625 -0.96875 -1.40625zm8.486328 -2.546875l-1.5 -0.265625q0.25 -0.90625 0.859375 -1.328125q0.625 -0.4375 1.84375 -0.4375q1.09375 0 1.625 0.265625q0.546875 0.25 0.765625 0.65625q0.21875 0.390625 0.21875 1.46875l-0.015625 1.921875q0 0.828125 0.078125 1.21875q0.078125 0.375 0.296875 0.828125l-1.625 0q-0.0625 -0.171875 -0.15625 -0.484375q-0.046875 -0.15625 -0.0625 -0.203125q-0.421875 0.421875 -0.90625 0.625q-0.46875 0.203125 -1.015625 0.203125q-0.96875 0 -1.53125 -0.515625q-0.546875 -0.53125 -0.546875 -1.328125q0 -0.53125 0.25 -0.9375q0.265625 -0.40625 0.71875 -0.625q0.453125 -0.234375 1.3125 -0.390625q1.140625 -0.21875 1.59375 -0.40625l0 -0.15625q0 -0.484375 -0.234375 -0.6875q-0.234375 -0.203125 -0.890625 -0.203125q-0.4375 0 -0.6875 0.171875q-0.234375 0.171875 -0.390625 0.609375zm2.203125 1.34375q-0.3125 0.09375 -1.0 0.25q-0.6875 0.140625 -0.90625 0.28125q-0.3125 0.234375 -0.3125 0.578125q0 0.34375 0.25 0.609375q0.265625 0.25 0.65625 0.25q0.453125 0 0.859375 -0.296875q0.296875 -0.21875 0.390625 -0.546875q0.0625 -0.203125 0.0625 -0.796875l0 -0.328125zm2.4550781 -3.234375l1.75 0l1.5 4.40625l1.453125 -4.40625l1.703125 0l-2.203125 5.984375l-0.390625 1.078125q-0.21875 0.546875 -0.421875 0.828125q-0.1875 0.296875 -0.453125 0.46875q-0.25 0.1875 -0.625 0.28125q-0.359375 0.109375 -0.828125 0.109375q-0.484375 0 -0.9375 -0.109375l-0.140625 -1.28125q0.390625 0.078125 0.6875 0.078125q0.578125 0 0.84375 -0.34375q0.28125 -0.328125 0.4375 -0.859375l-2.375 -6.234375zm14.6484375 6.21875l-1.640625 0l0 -6.203125q-0.90625 0.84375 -2.125 1.25l0 -1.5q0.640625 -0.203125 1.390625 -0.796875q0.765625 -0.59375 1.046875 -1.375l1.328125 0l0 8.625z" fill-rule="nonzero"/><path fill="#666666" d="m674.2808 104.56956l147.52759 0l0 23.71653l-147.52759 0z" fill-rule="evenodd"/><path fill="#ffffff" d="m726.5661 120.94782l0 -8.59375l6.375 0l0 1.453125l-4.640625 0l0 1.90625l4.3125 0l0 1.453125l-4.3125 0l0 2.328125l4.796875 0l0 1.453125l-6.53125 0zm7.4101562 -1.78125l1.65625 -0.25q0.109375 0.484375 0.421875 0.734375q0.328125 0.25 0.90625 0.25q0.640625 0 0.953125 -0.234375q0.21875 -0.171875 0.21875 -0.4375q0 -0.1875 -0.109375 -0.3125q-0.125 -0.125 -0.546875 -0.21875q-2.0 -0.4375 -2.53125 -0.796875q-0.734375 -0.515625 -0.734375 -1.40625q0 -0.8125 0.625 -1.359375q0.640625 -0.546875 1.984375 -0.546875q1.28125 0 1.90625 0.421875q0.625 0.40625 0.859375 1.21875l-1.5625 0.28125q-0.09375 -0.359375 -0.375 -0.546875q-0.28125 -0.203125 -0.796875 -0.203125q-0.640625 0 -0.921875 0.1875q-0.1875 0.125 -0.1875 0.328125q0 0.1875 0.15625 0.3125q0.21875 0.15625 1.53125 0.453125q1.328125 0.296875 1.84375 0.734375q0.515625 0.4375 0.515625 1.21875q0 0.859375 -0.71875 1.484375q-0.703125 0.609375 -2.109375 0.609375q-1.265625 0 -2.015625 -0.515625q-0.734375 -0.515625 -0.96875 -1.40625zm6.673828 0l1.65625 -0.25q0.109375 0.484375 0.421875 0.734375q0.328125 0.25 0.90625 0.25q0.640625 0 0.953125 -0.234375q0.21875 -0.171875 0.21875 -0.4375q0 -0.1875 -0.109375 -0.3125q-0.125 -0.125 -0.546875 -0.21875q-2.0 -0.4375 -2.53125 -0.796875q-0.734375 -0.515625 -0.734375 -1.40625q0 -0.8125 0.625 -1.359375q0.640625 -0.546875 1.984375 -0.546875q1.28125 0 1.90625 0.421875q0.625 0.40625 0.859375 1.21875l-1.5625 0.28125q-0.09375 -0.359375 -0.375 -0.546875q-0.28125 -0.203125 -0.796875 -0.203125q-0.640625 0 -0.921875 0.1875q-0.1875 0.125 -0.1875 0.328125q0 0.1875 0.15625 0.3125q0.21875 0.15625 1.53125 0.453125q1.328125 0.296875 1.84375 0.734375q0.515625 0.4375 0.515625 1.21875q0 0.859375 -0.71875 1.484375q-0.703125 0.609375 -2.109375 0.609375q-1.265625 0 -2.015625 -0.515625q-0.734375 -0.515625 -0.96875 -1.40625zm8.486328 -2.546875l-1.5 -0.265625q0.25 -0.90625 0.859375 -1.328125q0.625 -0.4375 1.84375 -0.4375q1.09375 0 1.625 0.265625q0.546875 0.25 0.765625 0.65625q0.21875 0.390625 0.21875 1.46875l-0.015625 1.921875q0 0.828125 0.078125 1.21875q0.078125 0.375 0.296875 0.828125l-1.625 0q-0.0625 -0.171875 -0.15625 -0.484375q-0.046875 -0.15625 -0.0625 -0.203125q-0.421875 0.421875 -0.90625 0.625q-0.46875 0.203125 -1.015625 0.203125q-0.96875 0 -1.53125 -0.515625q-0.546875 -0.53125 -0.546875 -1.328125q0 -0.53125 0.25 -0.9375q0.265625 -0.40625 0.71875 -0.625q0.453125 -0.234375 1.3125 -0.390625q1.140625 -0.21875 1.59375 -0.40625l0 -0.15625q0 -0.484375 -0.234375 -0.6875q-0.234375 -0.203125 -0.890625 -0.203125q-0.4375 0 -0.6875 0.171875q-0.234375 0.171875 -0.390625 0.609375zm2.203125 1.34375q-0.3125 0.09375 -1.0 0.25q-0.6875 0.140625 -0.90625 0.28125q-0.3125 0.234375 -0.3125 0.578125q0 0.34375 0.25 0.609375q0.265625 0.25 0.65625 0.25q0.453125 0 0.859375 -0.296875q0.296875 -0.21875 0.390625 -0.546875q0.0625 -0.203125 0.0625 -0.796875l0 -0.328125zm2.4550781 -3.234375l1.75 0l1.5 4.40625l1.453125 -4.40625l1.703125 0l-2.203125 5.984375l-0.390625 1.078125q-0.21875 0.546875 -0.421875 0.828125q-0.1875 0.296875 -0.453125 0.46875q-0.25 0.1875 -0.625 0.28125q-0.359375 0.109375 -0.828125 0.109375q-0.484375 0 -0.9375 -0.109375l-0.140625 -1.28125q0.390625 0.078125 0.6875 0.078125q0.578125 0 0.84375 -0.34375q0.28125 -0.328125 0.4375 -0.859375l-2.375 -6.234375zm16.007812 4.6875l0 1.53125l-5.78125 0q0.09375 -0.875 0.5625 -1.640625q0.46875 -0.78125 1.859375 -2.0625q1.109375 -1.03125 1.359375 -1.40625q0.34375 -0.515625 0.34375 -1.015625q0 -0.546875 -0.296875 -0.84375q-0.296875 -0.296875 -0.8125 -0.296875q-0.515625 0 -0.828125 0.3125q-0.296875 0.3125 -0.34375 1.03125l-1.640625 -0.15625q0.140625 -1.359375 0.90625 -1.953125q0.78125 -0.59375 1.9375 -0.59375q1.28125 0 2.0 0.6875q0.734375 0.6875 0.734375 1.703125q0 0.578125 -0.21875 1.109375q-0.203125 0.515625 -0.65625 1.09375q-0.296875 0.375 -1.078125 1.09375q-0.78125 0.71875 -0.984375 0.953125q-0.203125 0.234375 -0.34375 0.453125l3.28125 0z" fill-rule="nonzero"/><path fill="#ead1dc" d="m114.28084 72.56956l147.52757 0l0 23.71653l-147.52757 0z" fill-rule="evenodd"/><path fill="#000000" d="m166.48798 88.94782l0 -8.59375l1.125 0l0 8.59375l-1.125 0zm3.0058594 0l0 -6.21875l0.9375 0l0 0.875q0.6875 -1.015625 1.984375 -1.015625q0.5625 0 1.03125 0.203125q0.484375 0.203125 0.71875 0.53125q0.234375 0.328125 0.328125 0.765625q0.046875 0.296875 0.046875 1.03125l0 3.828125l-1.046875 0l0 -3.78125q0 -0.65625 -0.125 -0.96875q-0.125 -0.3125 -0.4375 -0.5q-0.3125 -0.203125 -0.734375 -0.203125q-0.671875 0 -1.171875 0.4375q-0.484375 0.421875 -0.484375 1.609375l0 3.40625l-1.046875 0zm6.251953 -1.859375l1.03125 -0.15625q0.09375 0.625 0.484375 0.953125q0.40625 0.328125 1.140625 0.328125q0.71875 0 1.0625 -0.28125q0.359375 -0.296875 0.359375 -0.703125q0 -0.359375 -0.3125 -0.5625q-0.21875 -0.140625 -1.078125 -0.359375q-1.15625 -0.296875 -1.609375 -0.5q-0.4375 -0.21875 -0.671875 -0.59375q-0.234375 -0.375 -0.234375 -0.84375q0 -0.40625 0.1875 -0.765625q0.1875 -0.359375 0.515625 -0.59375q0.25 -0.171875 0.671875 -0.296875q0.421875 -0.125 0.921875 -0.125q0.71875 0 1.265625 0.21875q0.5625 0.203125 0.828125 0.5625q0.265625 0.359375 0.359375 0.953125l-1.03125 0.140625q-0.0625 -0.46875 -0.40625 -0.734375q-0.328125 -0.28125 -0.953125 -0.28125q-0.71875 0 -1.03125 0.25q-0.3125 0.234375 -0.3125 0.5625q0 0.203125 0.125 0.359375q0.140625 0.171875 0.40625 0.28125q0.15625 0.0625 0.9375 0.265625q1.125 0.3125 1.5625 0.5q0.4375 0.1875 0.6875 0.546875q0.25 0.359375 0.25 0.90625q0 0.53125 -0.3125 1.0q-0.296875 0.453125 -0.875 0.71875q-0.578125 0.25 -1.3125 0.25q-1.21875 0 -1.859375 -0.5q-0.625 -0.515625 -0.796875 -1.5zm6.421875 -5.515625l0 -1.21875l1.0625 0l0 1.21875l-1.0625 0zm0 7.375l0 -6.21875l1.0625 0l0 6.21875l-1.0625 0zm2.4628906 0.515625l1.03125 0.15625q0.0625 0.46875 0.359375 0.6875q0.390625 0.296875 1.0625 0.296875q0.734375 0 1.125 -0.296875q0.40625 -0.296875 0.546875 -0.8125q0.09375 -0.328125 0.078125 -1.359375q-0.6875 0.8125 -1.71875 0.8125q-1.28125 0 -1.984375 -0.921875q-0.703125 -0.9375 -0.703125 -2.21875q0 -0.890625 0.3125 -1.640625q0.328125 -0.765625 0.9375 -1.171875q0.609375 -0.40625 1.4375 -0.40625q1.109375 0 1.828125 0.890625l0 -0.75l0.96875 0l0 5.375q0 1.453125 -0.296875 2.0625q-0.296875 0.609375 -0.9375 0.953125q-0.640625 0.359375 -1.578125 0.359375q-1.109375 0 -1.796875 -0.5q-0.6875 -0.5 -0.671875 -1.515625zm0.875 -3.734375q0 1.21875 0.484375 1.78125q0.484375 0.5625 1.21875 0.5625q0.734375 0 1.21875 -0.5625q0.5 -0.5625 0.5 -1.75q0 -1.140625 -0.515625 -1.71875q-0.5 -0.578125 -1.21875 -0.578125q-0.703125 0 -1.203125 0.578125q-0.484375 0.5625 -0.484375 1.6875zm6.001953 3.21875l0 -8.59375l1.046875 0l0 3.078125q0.734375 -0.84375 1.859375 -0.84375q0.703125 0 1.203125 0.28125q0.515625 0.265625 0.734375 0.75q0.21875 0.46875 0.21875 1.390625l0 3.9375l-1.046875 0l0 -3.9375q0 -0.796875 -0.34375 -1.15625q-0.34375 -0.359375 -0.96875 -0.359375q-0.46875 0 -0.890625 0.25q-0.40625 0.234375 -0.59375 0.65625q-0.171875 0.40625 -0.171875 1.140625l0 3.40625l-1.046875 0zm8.970703 -0.9375l0.15625 0.921875q-0.453125 0.09375 -0.796875 0.09375q-0.578125 0 -0.890625 -0.171875q-0.3125 -0.1875 -0.453125 -0.484375q-0.125 -0.296875 -0.125 -1.25l0 -3.578125l-0.765625 0l0 -0.8125l0.765625 0l0 -1.546875l1.046875 -0.625l0 2.171875l1.0625 0l0 0.8125l-1.0625 0l0 3.640625q0 0.453125 0.046875 0.578125q0.0625 0.125 0.1875 0.203125q0.125 0.078125 0.359375 0.078125q0.1875 0 0.46875 -0.03125zm8.042969 0.9375l-1.046875 0l0 -6.71875q-0.390625 0.359375 -1.015625 0.734375q-0.609375 0.359375 -1.09375 0.53125l0 -1.015625q0.875 -0.421875 1.53125 -1.0q0.671875 -0.59375 0.953125 -1.15625l0.671875 0l0 8.625z" fill-rule="nonzero"/><path fill="#ead1dc" d="m274.28085 72.56956l147.52756 0l0 23.71653l-147.52756 0z" fill-rule="evenodd"/><path fill="#000000" d="m326.48798 88.94782l0 -8.59375l1.125 0l0 8.59375l-1.125 0zm3.0058594 0l0 -6.21875l0.9375 0l0 0.875q0.6875 -1.015625 1.984375 -1.015625q0.5625 0 1.03125 0.203125q0.484375 0.203125 0.71875 0.53125q0.234375 0.328125 0.328125 0.765625q0.046875 0.296875 0.046875 1.03125l0 3.828125l-1.046875 0l0 -3.78125q0 -0.65625 -0.125 -0.96875q-0.125 -0.3125 -0.4375 -0.5q-0.3125 -0.203125 -0.734375 -0.203125q-0.671875 0 -1.171875 0.4375q-0.484375 0.421875 -0.484375 1.609375l0 3.40625l-1.046875 0zm6.251953 -1.859375l1.03125 -0.15625q0.09375 0.625 0.484375 0.953125q0.40625 0.328125 1.140625 0.328125q0.71875 0 1.0625 -0.28125q0.359375 -0.296875 0.359375 -0.703125q0 -0.359375 -0.3125 -0.5625q-0.21875 -0.140625 -1.078125 -0.359375q-1.15625 -0.296875 -1.609375 -0.5q-0.4375 -0.21875 -0.671875 -0.59375q-0.234375 -0.375 -0.234375 -0.84375q0 -0.40625 0.1875 -0.765625q0.1875 -0.359375 0.515625 -0.59375q0.25 -0.171875 0.671875 -0.296875q0.421875 -0.125 0.921875 -0.125q0.71875 0 1.265625 0.21875q0.5625 0.203125 0.828125 0.5625q0.265625 0.359375 0.359375 0.953125l-1.03125 0.140625q-0.0625 -0.46875 -0.40625 -0.734375q-0.328125 -0.28125 -0.953125 -0.28125q-0.71875 0 -1.03125 0.25q-0.3125 0.234375 -0.3125 0.5625q0 0.203125 0.125 0.359375q0.140625 0.171875 0.40625 0.28125q0.15625 0.0625 0.9375 0.265625q1.125 0.3125 1.5625 0.5q0.4375 0.1875 0.6875 0.546875q0.25 0.359375 0.25 0.90625q0 0.53125 -0.3125 1.0q-0.296875 0.453125 -0.875 0.71875q-0.578125 0.25 -1.3125 0.25q-1.21875 0 -1.859375 -0.5q-0.625 -0.515625 -0.796875 -1.5zm6.421875 -5.515625l0 -1.21875l1.0625 0l0 1.21875l-1.0625 0zm0 7.375l0 -6.21875l1.0625 0l0 6.21875l-1.0625 0zm2.4628906 0.515625l1.03125 0.15625q0.0625 0.46875 0.359375 0.6875q0.390625 0.296875 1.0625 0.296875q0.734375 0 1.125 -0.296875q0.40625 -0.296875 0.546875 -0.8125q0.09375 -0.328125 0.078125 -1.359375q-0.6875 0.8125 -1.71875 0.8125q-1.28125 0 -1.984375 -0.921875q-0.703125 -0.9375 -0.703125 -2.21875q0 -0.890625 0.3125 -1.640625q0.328125 -0.765625 0.9375 -1.171875q0.609375 -0.40625 1.4375 -0.40625q1.109375 0 1.828125 0.890625l0 -0.75l0.96875 0l0 5.375q0 1.453125 -0.296875 2.0625q-0.296875 0.609375 -0.9375 0.953125q-0.640625 0.359375 -1.578125 0.359375q-1.109375 0 -1.796875 -0.5q-0.6875 -0.5 -0.671875 -1.515625zm0.875 -3.734375q0 1.21875 0.484375 1.78125q0.484375 0.5625 1.21875 0.5625q0.734375 0 1.21875 -0.5625q0.5 -0.5625 0.5 -1.75q0 -1.140625 -0.515625 -1.71875q-0.5 -0.578125 -1.21875 -0.578125q-0.703125 0 -1.203125 0.578125q-0.484375 0.5625 -0.484375 1.6875zm6.001953 3.21875l0 -8.59375l1.046875 0l0 3.078125q0.734375 -0.84375 1.859375 -0.84375q0.703125 0 1.203125 0.28125q0.515625 0.265625 0.734375 0.75q0.21875 0.46875 0.21875 1.390625l0 3.9375l-1.046875 0l0 -3.9375q0 -0.796875 -0.34375 -1.15625q-0.34375 -0.359375 -0.96875 -0.359375q-0.46875 0 -0.890625 0.25q-0.40625 0.234375 -0.59375 0.65625q-0.171875 0.40625 -0.171875 1.140625l0 3.40625l-1.046875 0zm8.970703 -0.9375l0.15625 0.921875q-0.453125 0.09375 -0.796875 0.09375q-0.578125 0 -0.890625 -0.171875q-0.3125 -0.1875 -0.453125 -0.484375q-0.125 -0.296875 -0.125 -1.25l0 -3.578125l-0.765625 0l0 -0.8125l0.765625 0l0 -1.546875l1.046875 -0.625l0 2.171875l1.0625 0l0 0.8125l-1.0625 0l0 3.640625q0 0.453125 0.046875 0.578125q0.0625 0.125 0.1875 0.203125q0.125 0.078125 0.359375 0.078125q0.1875 0 0.46875 -0.03125zm9.621094 -0.078125l0 1.015625l-5.6875 0q0 -0.375 0.125 -0.734375q0.21875 -0.578125 0.6875 -1.140625q0.484375 -0.5625 1.390625 -1.296875q1.40625 -1.15625 1.890625 -1.828125q0.5 -0.671875 0.5 -1.265625q0 -0.625 -0.453125 -1.046875q-0.453125 -0.4375 -1.171875 -0.4375q-0.765625 0 -1.21875 0.453125q-0.453125 0.453125 -0.46875 1.265625l-1.078125 -0.109375q0.109375 -1.21875 0.828125 -1.84375q0.734375 -0.640625 1.96875 -0.640625q1.234375 0 1.953125 0.6875q0.71875 0.6875 0.71875 1.703125q0 0.515625 -0.21875 1.015625q-0.203125 0.484375 -0.703125 1.046875q-0.484375 0.546875 -1.609375 1.5q-0.953125 0.796875 -1.234375 1.09375q-0.265625 0.28125 -0.4375 0.5625l4.21875 0z" fill-rule="nonzero"/><path fill="#ead1dc" d="m514.2808 72.56956l147.52759 0l0 23.71653l-147.52759 0z" fill-rule="evenodd"/><path fill="#000000" d="m566.488 88.94782l0 -8.59375l1.125 0l0 8.59375l-1.125 0zm3.0058594 0l0 -6.21875l0.9375 0l0 0.875q0.6875 -1.015625 1.984375 -1.015625q0.5625 0 1.03125 0.203125q0.484375 0.203125 0.71875 0.53125q0.234375 0.328125 0.328125 0.765625q0.046875 0.296875 0.046875 1.03125l0 3.828125l-1.046875 0l0 -3.78125q0 -0.65625 -0.125 -0.96875q-0.125 -0.3125 -0.4375 -0.5q-0.3125 -0.203125 -0.734375 -0.203125q-0.671875 0 -1.171875 0.4375q-0.484375 0.421875 -0.484375 1.609375l0 3.40625l-1.046875 0zm6.251953 -1.859375l1.03125 -0.15625q0.09375 0.625 0.484375 0.953125q0.40625 0.328125 1.140625 0.328125q0.71875 0 1.0625 -0.28125q0.359375 -0.296875 0.359375 -0.703125q0 -0.359375 -0.3125 -0.5625q-0.21875 -0.140625 -1.078125 -0.359375q-1.15625 -0.296875 -1.609375 -0.5q-0.4375 -0.21875 -0.671875 -0.59375q-0.234375 -0.375 -0.234375 -0.84375q0 -0.40625 0.1875 -0.765625q0.1875 -0.359375 0.515625 -0.59375q0.25 -0.171875 0.671875 -0.296875q0.421875 -0.125 0.921875 -0.125q0.71875 0 1.265625 0.21875q0.5625 0.203125 0.828125 0.5625q0.265625 0.359375 0.359375 0.953125l-1.03125 0.140625q-0.0625 -0.46875 -0.40625 -0.734375q-0.328125 -0.28125 -0.953125 -0.28125q-0.71875 0 -1.03125 0.25q-0.3125 0.234375 -0.3125 0.5625q0 0.203125 0.125 0.359375q0.140625 0.171875 0.40625 0.28125q0.15625 0.0625 0.9375 0.265625q1.125 0.3125 1.5625 0.5q0.4375 0.1875 0.6875 0.546875q0.25 0.359375 0.25 0.90625q0 0.53125 -0.3125 1.0q-0.296875 0.453125 -0.875 0.71875q-0.578125 0.25 -1.3125 0.25q-1.21875 0 -1.859375 -0.5q-0.625 -0.515625 -0.796875 -1.5zm6.421875 -5.515625l0 -1.21875l1.0625 0l0 1.21875l-1.0625 0zm0 7.375l0 -6.21875l1.0625 0l0 6.21875l-1.0625 0zm2.4628906 0.515625l1.03125 0.15625q0.0625 0.46875 0.359375 0.6875q0.390625 0.296875 1.0625 0.296875q0.734375 0 1.125 -0.296875q0.40625 -0.296875 0.546875 -0.8125q0.09375 -0.328125 0.078125 -1.359375q-0.6875 0.8125 -1.71875 0.8125q-1.28125 0 -1.984375 -0.921875q-0.703125 -0.9375 -0.703125 -2.21875q0 -0.890625 0.3125 -1.640625q0.328125 -0.765625 0.9375 -1.171875q0.609375 -0.40625 1.4375 -0.40625q1.109375 0 1.828125 0.890625l0 -0.75l0.96875 0l0 5.375q0 1.453125 -0.296875 2.0625q-0.296875 0.609375 -0.9375 0.953125q-0.640625 0.359375 -1.578125 0.359375q-1.109375 0 -1.796875 -0.5q-0.6875 -0.5 -0.671875 -1.515625zm0.875 -3.734375q0 1.21875 0.484375 1.78125q0.484375 0.5625 1.21875 0.5625q0.734375 0 1.21875 -0.5625q0.5 -0.5625 0.5 -1.75q0 -1.140625 -0.515625 -1.71875q-0.5 -0.578125 -1.21875 -0.578125q-0.703125 0 -1.203125 0.578125q-0.484375 0.5625 -0.484375 1.6875zm6.001953 3.21875l0 -8.59375l1.046875 0l0 3.078125q0.734375 -0.84375 1.859375 -0.84375q0.703125 0 1.203125 0.28125q0.515625 0.265625 0.734375 0.75q0.21875 0.46875 0.21875 1.390625l0 3.9375l-1.046875 0l0 -3.9375q0 -0.796875 -0.34375 -1.15625q-0.34375 -0.359375 -0.96875 -0.359375q-0.46875 0 -0.890625 0.25q-0.40625 0.234375 -0.59375 0.65625q-0.171875 0.40625 -0.171875 1.140625l0 3.40625l-1.046875 0zm8.970703 -0.9375l0.15625 0.921875q-0.453125 0.09375 -0.796875 0.09375q-0.578125 0 -0.890625 -0.171875q-0.3125 -0.1875 -0.453125 -0.484375q-0.125 -0.296875 -0.125 -1.25l0 -3.578125l-0.765625 0l0 -0.8125l0.765625 0l0 -1.546875l1.046875 -0.625l0 2.171875l1.0625 0l0 0.8125l-1.0625 0l0 3.640625q0 0.453125 0.046875 0.578125q0.0625 0.125 0.1875 0.203125q0.125 0.078125 0.359375 0.078125q0.1875 0 0.46875 -0.03125zm4.0742188 -1.328125l1.0625 -0.140625q0.171875 0.890625 0.609375 1.296875q0.4375 0.390625 1.0625 0.390625q0.75 0 1.265625 -0.515625q0.515625 -0.515625 0.515625 -1.28125q0 -0.71875 -0.484375 -1.1875q-0.46875 -0.484375 -1.203125 -0.484375q-0.296875 0 -0.75 0.125l0.125 -0.9375q0.109375 0.015625 0.171875 0.015625q0.671875 0 1.203125 -0.34375q0.546875 -0.359375 0.546875 -1.09375q0 -0.578125 -0.390625 -0.953125q-0.390625 -0.390625 -1.015625 -0.390625q-0.609375 0 -1.03125 0.390625q-0.40625 0.390625 -0.515625 1.15625l-1.0625 -0.1875q0.1875 -1.046875 0.875 -1.625q0.6875 -0.59375 1.703125 -0.59375q0.703125 0 1.296875 0.3125q0.59375 0.296875 0.90625 0.8125q0.3125 0.515625 0.3125 1.109375q0 0.546875 -0.296875 1.015625q-0.296875 0.453125 -0.875 0.71875q0.75 0.171875 1.171875 0.734375q0.421875 0.546875 0.421875 1.390625q0 1.125 -0.828125 1.90625q-0.8125 0.78125 -2.0625 0.78125q-1.125 0 -1.875 -0.671875q-0.75 -0.6875 -0.859375 -1.75z" fill-rule="nonzero"/><path fill="#ead1dc" d="m674.2808 72.56956l147.52759 0l0 23.71653l-147.52759 0z" fill-rule="evenodd"/><path fill="#000000" d="m726.488 88.94782l0 -8.59375l1.125 0l0 8.59375l-1.125 0zm3.0058594 0l0 -6.21875l0.9375 0l0 0.875q0.6875 -1.015625 1.984375 -1.015625q0.5625 0 1.03125 0.203125q0.484375 0.203125 0.71875 0.53125q0.234375 0.328125 0.328125 0.765625q0.046875 0.296875 0.046875 1.03125l0 3.828125l-1.046875 0l0 -3.78125q0 -0.65625 -0.125 -0.96875q-0.125 -0.3125 -0.4375 -0.5q-0.3125 -0.203125 -0.734375 -0.203125q-0.671875 0 -1.171875 0.4375q-0.484375 0.421875 -0.484375 1.609375l0 3.40625l-1.046875 0zm6.251953 -1.859375l1.03125 -0.15625q0.09375 0.625 0.484375 0.953125q0.40625 0.328125 1.140625 0.328125q0.71875 0 1.0625 -0.28125q0.359375 -0.296875 0.359375 -0.703125q0 -0.359375 -0.3125 -0.5625q-0.21875 -0.140625 -1.078125 -0.359375q-1.15625 -0.296875 -1.609375 -0.5q-0.4375 -0.21875 -0.671875 -0.59375q-0.234375 -0.375 -0.234375 -0.84375q0 -0.40625 0.1875 -0.765625q0.1875 -0.359375 0.515625 -0.59375q0.25 -0.171875 0.671875 -0.296875q0.421875 -0.125 0.921875 -0.125q0.71875 0 1.265625 0.21875q0.5625 0.203125 0.828125 0.5625q0.265625 0.359375 0.359375 0.953125l-1.03125 0.140625q-0.0625 -0.46875 -0.40625 -0.734375q-0.328125 -0.28125 -0.953125 -0.28125q-0.71875 0 -1.03125 0.25q-0.3125 0.234375 -0.3125 0.5625q0 0.203125 0.125 0.359375q0.140625 0.171875 0.40625 0.28125q0.15625 0.0625 0.9375 0.265625q1.125 0.3125 1.5625 0.5q0.4375 0.1875 0.6875 0.546875q0.25 0.359375 0.25 0.90625q0 0.53125 -0.3125 1.0q-0.296875 0.453125 -0.875 0.71875q-0.578125 0.25 -1.3125 0.25q-1.21875 0 -1.859375 -0.5q-0.625 -0.515625 -0.796875 -1.5zm6.421875 -5.515625l0 -1.21875l1.0625 0l0 1.21875l-1.0625 0zm0 7.375l0 -6.21875l1.0625 0l0 6.21875l-1.0625 0zm2.4628906 0.515625l1.03125 0.15625q0.0625 0.46875 0.359375 0.6875q0.390625 0.296875 1.0625 0.296875q0.734375 0 1.125 -0.296875q0.40625 -0.296875 0.546875 -0.8125q0.09375 -0.328125 0.078125 -1.359375q-0.6875 0.8125 -1.71875 0.8125q-1.28125 0 -1.984375 -0.921875q-0.703125 -0.9375 -0.703125 -2.21875q0 -0.890625 0.3125 -1.640625q0.328125 -0.765625 0.9375 -1.171875q0.609375 -0.40625 1.4375 -0.40625q1.109375 0 1.828125 0.890625l0 -0.75l0.96875 0l0 5.375q0 1.453125 -0.296875 2.0625q-0.296875 0.609375 -0.9375 0.953125q-0.640625 0.359375 -1.578125 0.359375q-1.109375 0 -1.796875 -0.5q-0.6875 -0.5 -0.671875 -1.515625zm0.875 -3.734375q0 1.21875 0.484375 1.78125q0.484375 0.5625 1.21875 0.5625q0.734375 0 1.21875 -0.5625q0.5 -0.5625 0.5 -1.75q0 -1.140625 -0.515625 -1.71875q-0.5 -0.578125 -1.21875 -0.578125q-0.703125 0 -1.203125 0.578125q-0.484375 0.5625 -0.484375 1.6875zm6.001953 3.21875l0 -8.59375l1.046875 0l0 3.078125q0.734375 -0.84375 1.859375 -0.84375q0.703125 0 1.203125 0.28125q0.515625 0.265625 0.734375 0.75q0.21875 0.46875 0.21875 1.390625l0 3.9375l-1.046875 0l0 -3.9375q0 -0.796875 -0.34375 -1.15625q-0.34375 -0.359375 -0.96875 -0.359375q-0.46875 0 -0.890625 0.25q-0.40625 0.234375 -0.59375 0.65625q-0.171875 0.40625 -0.171875 1.140625l0 3.40625l-1.046875 0zm8.970703 -0.9375l0.15625 0.921875q-0.453125 0.09375 -0.796875 0.09375q-0.578125 0 -0.890625 -0.171875q-0.3125 -0.1875 -0.453125 -0.484375q-0.125 -0.296875 -0.125 -1.25l0 -3.578125l-0.765625 0l0 -0.8125l0.765625 0l0 -1.546875l1.046875 -0.625l0 2.171875l1.0625 0l0 0.8125l-1.0625 0l0 3.640625q0 0.453125 0.046875 0.578125q0.0625 0.125 0.1875 0.203125q0.125 0.078125 0.359375 0.078125q0.1875 0 0.46875 -0.03125zm7.4492188 0.9375l0 -2.0625l-3.71875 0l0 -0.96875l3.921875 -5.5625l0.859375 0l0 5.5625l1.15625 0l0 0.96875l-1.15625 0l0 2.0625l-1.0625 0zm0 -3.03125l0 -3.859375l-2.6875 3.859375l2.6875 0z" fill-rule="nonzero"/><path fill="#d9d9d9" d="m7.6456695 8.569553l94.17323 0l0 23.716537l-94.17323 0z" fill-rule="evenodd"/><path fill="#000000" d="m41.92564 24.94782l-2.28125 -8.59375l1.171875 0l1.3125 5.640625q0.203125 0.875 0.359375 1.75q0.328125 -1.375 0.390625 -1.59375l1.625 -5.796875l1.375 0l1.234375 4.34375q0.453125 1.625 0.671875 3.046875q0.15625 -0.8125 0.421875 -1.875l1.34375 -5.515625l1.140625 0l-2.34375 8.59375l-1.109375 0l-1.796875 -6.546875q-0.234375 -0.8125 -0.28125 -1.0q-0.125 0.578125 -0.25 1.0l-1.8125 6.546875l-1.171875 0zm13.734375 -2.0l1.09375 0.125q-0.25 0.953125 -0.953125 1.484375q-0.703125 0.53125 -1.78125 0.53125q-1.359375 0 -2.171875 -0.84375q-0.796875 -0.84375 -0.796875 -2.359375q0 -1.5625 0.8125 -2.421875q0.8125 -0.875 2.09375 -0.875q1.25 0 2.03125 0.84375q0.796875 0.84375 0.796875 2.390625q0 0.09375 0 0.28125l-4.640625 0q0.0625 1.03125 0.578125 1.578125q0.515625 0.53125 1.296875 0.53125q0.578125 0 0.984375 -0.296875q0.421875 -0.3125 0.65625 -0.96875zm-3.453125 -1.703125l3.46875 0q-0.0625 -0.796875 -0.390625 -1.1875q-0.515625 -0.609375 -1.3125 -0.609375q-0.734375 0 -1.234375 0.484375q-0.484375 0.484375 -0.53125 1.3125zm10.126953 1.703125l1.09375 0.125q-0.25 0.953125 -0.953125 1.484375q-0.703125 0.53125 -1.78125 0.53125q-1.359375 0 -2.171875 -0.84375q-0.796875 -0.84375 -0.796875 -2.359375q0 -1.5625 0.8125 -2.421875q0.8125 -0.875 2.09375 -0.875q1.25 0 2.03125 0.84375q0.796875 0.84375 0.796875 2.390625q0 0.09375 0 0.28125l-4.640625 0q0.0625 1.03125 0.578125 1.578125q0.515625 0.53125 1.296875 0.53125q0.578125 0 0.984375 -0.296875q0.421875 -0.3125 0.65625 -0.96875zm-3.453125 -1.703125l3.46875 0q-0.0625 -0.796875 -0.390625 -1.1875q-0.515625 -0.609375 -1.3125 -0.609375q-0.734375 0 -1.234375 0.484375q-0.484375 0.484375 -0.53125 1.3125zm5.876957 3.703125l0 -8.59375l1.0625 0l0 4.90625l2.484375 -2.53125l1.375 0l-2.390625 2.296875l2.625 3.921875l-1.296875 0l-2.0625 -3.1875l-0.734375 0.71875l0 2.46875l-1.0625 0z" fill-rule="nonzero"/><path fill="#cfe2f3" d="m7.6456695 40.569553l94.17323 0l0 23.716534l-94.17323 0z" fill-rule="evenodd"/><path fill="#000000" d="m35.944195 56.947823l0 -8.59375l1.71875 0l2.03125 6.078125q0.28125 0.859375 0.40625 1.28125q0.140625 -0.46875 0.453125 -1.375l2.0625 -5.984375l1.53125 0l0 8.59375l-1.09375 0l0 -7.1875l-2.5 7.1875l-1.03125 0l-2.484375 -7.3125l0 7.3125l-1.09375 0zm9.511719 -3.109375q0 -1.734375 0.953125 -2.5625q0.796875 -0.6875 1.953125 -0.6875q1.28125 0 2.09375 0.84375q0.828125 0.828125 0.828125 2.3125q0 1.203125 -0.359375 1.890625q-0.359375 0.6875 -1.0625 1.078125q-0.6875 0.375 -1.5 0.375q-1.296875 0 -2.109375 -0.828125q-0.796875 -0.84375 -0.796875 -2.421875zm1.078125 0q0 1.1875 0.515625 1.78125q0.53125 0.59375 1.3125 0.59375q0.796875 0 1.3125 -0.59375q0.515625 -0.59375 0.515625 -1.8125q0 -1.15625 -0.53125 -1.75q-0.515625 -0.59375 -1.296875 -0.59375q-0.78125 0 -1.3125 0.59375q-0.515625 0.578125 -0.515625 1.78125zm10.017578 3.109375l0 -0.78125q-0.59375 0.921875 -1.734375 0.921875q-0.75 0 -1.375 -0.40625q-0.625 -0.421875 -0.96875 -1.15625q-0.34375 -0.734375 -0.34375 -1.6875q0 -0.921875 0.3125 -1.6875q0.3125 -0.765625 0.9375 -1.15625q0.625 -0.40625 1.390625 -0.40625q0.5625 0 1.0 0.234375q0.4375 0.234375 0.71875 0.609375l0 -3.078125l1.046875 0l0 8.59375l-0.984375 0zm-3.328125 -3.109375q0 1.203125 0.5 1.796875q0.5 0.578125 1.1875 0.578125q0.6875 0 1.171875 -0.5625q0.484375 -0.5625 0.484375 -1.71875q0 -1.28125 -0.5 -1.875q-0.484375 -0.59375 -1.203125 -0.59375q-0.703125 0 -1.171875 0.578125q-0.46875 0.5625 -0.46875 1.796875zm10.048828 3.109375l0 -0.921875q-0.734375 1.0625 -1.984375 1.0625q-0.546875 0 -1.03125 -0.203125q-0.46875 -0.21875 -0.703125 -0.53125q-0.234375 -0.328125 -0.328125 -0.796875q-0.0625 -0.296875 -0.0625 -0.984375l0 -3.84375l1.0625 0l0 3.453125q0 0.8125 0.0625 1.109375q0.09375 0.40625 0.40625 0.65625q0.328125 0.234375 0.8125 0.234375q0.46875 0 0.875 -0.234375q0.421875 -0.25 0.59375 -0.671875q0.1875 -0.421875 0.1875 -1.21875l0 -3.328125l1.0468788 0l0 6.21875l-0.9375038 0zm2.564457 0l0 -8.59375l1.0625 0l0 8.59375l-1.0625 0zm6.947258 -2.0l1.09375 0.125q-0.25 0.953125 -0.953125 1.484375q-0.703125 0.53125 -1.7812424 0.53125q-1.359375 0 -2.171875 -0.84375q-0.796875 -0.84375 -0.796875 -2.359375q0 -1.5625 0.8125 -2.421875q0.8125 -0.875 2.09375 -0.875q1.2499924 0 2.0312424 0.84375q0.796875 0.84375 0.796875 2.390625q0 0.09375 0 0.28125l-4.6406174 0q0.0625 1.03125 0.578125 1.578125q0.515625 0.53125 1.296875 0.53125q0.5781174 0 0.9843674 -0.296875q0.421875 -0.3125 0.65625 -0.96875zm-3.4531174 -1.703125l3.4687424 0q-0.0625 -0.796875 -0.390625 -1.1875q-0.515625 -0.609375 -1.3124924 -0.609375q-0.734375 0 -1.234375 0.484375q-0.484375 0.484375 -0.53125 1.3125z" fill-rule="nonzero"/><path fill="#ead1dc" d="m7.6456695 72.56956l94.17323 0l0 23.71653l-94.17323 0z" fill-rule="evenodd"/><path fill="#000000" d="m17.630045 88.94782l0 -8.59375l5.796875 0l0 1.015625l-4.65625 0l0 2.65625l4.03125 0l0 1.015625l-4.03125 0l0 3.90625l-1.140625 0zm6.751953 -3.109375q0 -1.734375 0.953125 -2.5625q0.796875 -0.6875 1.953125 -0.6875q1.28125 0 2.09375 0.84375q0.828125 0.828125 0.828125 2.3125q0 1.203125 -0.359375 1.890625q-0.359375 0.6875 -1.0625 1.078125q-0.6875 0.375 -1.5 0.375q-1.296875 0 -2.109375 -0.828125q-0.796875 -0.84375 -0.796875 -2.421875zm1.078125 0q0 1.1875 0.515625 1.78125q0.53125 0.59375 1.3125 0.59375q0.796875 0 1.3125 -0.59375q0.515625 -0.59375 0.515625 -1.8125q0 -1.15625 -0.53125 -1.75q-0.515625 -0.59375 -1.296875 -0.59375q-0.78125 0 -1.3125 0.59375q-0.515625 0.578125 -0.515625 1.78125zm5.970703 3.109375l0 -6.21875l0.9531231 0l0 0.9375q0.359375 -0.65625 0.65625 -0.859375q0.3125 -0.21875 0.6875 -0.21875q0.53125 0 1.078125 0.328125l-0.359375 0.984375q-0.390625 -0.234375 -0.765625 -0.234375q-0.359375 0 -0.640625 0.21875q-0.265625 0.203125 -0.375 0.578125q-0.1875 0.5625 -0.1875 1.21875l0 3.265625l-1.0468731 0zm8.089842 0l0 -0.921875q-0.734375 1.0625 -1.984375 1.0625q-0.546875 0 -1.03125 -0.203125q-0.46875 -0.21875 -0.703125 -0.53125q-0.234375 -0.328125 -0.328125 -0.796875q-0.0625 -0.296875 -0.0625 -0.984375l0 -3.84375l1.0625 0l0 3.453125q0 0.8125 0.0625 1.109375q0.09375 0.40625 0.40625 0.65625q0.328125 0.234375 0.8125 0.234375q0.46875 0 0.875 -0.234375q0.421875 -0.25 0.59375 -0.671875q0.1875 -0.421875 0.1875 -1.21875l0 -3.328125l1.046875 0l0 6.21875l-0.9375 0zm2.5957031 0l0 -6.21875l0.9375 0l0 0.875q0.296875 -0.46875 0.78125 -0.734375q0.484375 -0.28125 1.109375 -0.28125q0.6875 0 1.125 0.28125q0.453125 0.28125 0.625 0.796875q0.75 -1.078125 1.921875 -1.078125q0.9375 0 1.421875 0.515625q0.5 0.5 0.5 1.578125l0 4.265625l-1.046875 0l0 -3.921875q0 -0.625 -0.109375 -0.90625q-0.09375 -0.28125 -0.359375 -0.453125q-0.265625 -0.171875 -0.640625 -0.171875q-0.65625 0 -1.09375 0.4375q-0.421875 0.4375 -0.421875 1.40625l0 3.609375l-1.0625 0l0 -4.046875q0 -0.703125 -0.265625 -1.046875q-0.25 -0.359375 -0.828125 -0.359375q-0.453125 0 -0.828125 0.234375q-0.375 0.234375 -0.546875 0.6875q-0.171875 0.453125 -0.171875 1.296875l0 3.234375l-1.046875 0zm15.345703 2.53125q-0.875 -1.109375 -1.484375 -2.578125q-0.59375 -1.484375 -0.59375 -3.0625q0 -1.390625 0.4375 -2.671875q0.53125 -1.484375 1.640625 -2.953125l0.75 0q-0.703125 1.21875 -0.9375 1.734375q-0.359375 0.8125 -0.5625 1.6875q-0.25 1.09375 -0.25 2.203125q0 2.828125 1.75 5.640625l-0.75 0zm1.9648438 -2.53125l0 -6.21875l0.953125 0l0 0.9375q0.359375 -0.65625 0.65625 -0.859375q0.3125 -0.21875 0.6875 -0.21875q0.53125 0 1.078125 0.328125l-0.359375 0.984375q-0.390625 -0.234375 -0.765625 -0.234375q-0.359375 0 -0.640625 0.21875q-0.265625 0.203125 -0.375 0.578125q-0.1875 0.5625 -0.1875 1.21875l0 3.265625l-1.046875 0zm8.261719 -2.0l1.09375 0.125q-0.25 0.953125 -0.953125 1.484375q-0.703125 0.53125 -1.78125 0.53125q-1.359375 0 -2.171875 -0.84375q-0.796875 -0.84375 -0.796875 -2.359375q0 -1.5625 0.8125 -2.421875q0.8125 -0.875 2.09375 -0.875q1.25 0 2.03125 0.84375q0.796875 0.84375 0.796875 2.390625q0 0.09375 0 0.28125l-4.640625 0q0.0625 1.03125 0.578125 1.578125q0.515625 0.53125 1.296875 0.53125q0.578125 0 0.984375 -0.296875q0.421875 -0.3125 0.65625 -0.96875zm-3.453125 -1.703125l3.46875 0q-0.0625 -0.796875 -0.390625 -1.1875q-0.515625 -0.609375 -1.3125 -0.609375q-0.734375 0 -1.234375 0.484375q-0.484375 0.484375 -0.53125 1.3125zm9.845703 6.09375l0 -3.046875q-0.25 0.34375 -0.703125 0.578125q-0.4375 0.21875 -0.9375 0.21875q-1.109375 0 -1.90625 -0.875q-0.796875 -0.890625 -0.796875 -2.4375q0 -0.9375 0.328125 -1.671875q0.328125 -0.75 0.9375 -1.125q0.625 -0.390625 1.359375 -0.390625q1.15625 0 1.8125 0.96875l0 -0.828125l0.953125 0l0 8.609375l-1.046875 0zm-3.265625 -5.515625q0 1.203125 0.5 1.796875q0.515625 0.59375 1.21875 0.59375q0.671875 0 1.15625 -0.5625q0.484375 -0.578125 0.484375 -1.734375q0 -1.25 -0.515625 -1.875q-0.5 -0.625 -1.203125 -0.625q-0.671875 0 -1.15625 0.59375q-0.484375 0.578125 -0.484375 1.8125zm6.658203 5.65625l-0.75 0q1.75 -2.8125 1.75 -5.640625q0 -1.09375 -0.25 -2.1875q-0.203125 -0.875 -0.5625 -1.6875q-0.234375 -0.515625 -0.9375 -1.75l0.75 0q1.09375 1.46875 1.625 2.953125q0.453125 1.28125 0.453125 2.671875q0 1.578125 -0.609375 3.0625q-0.609375 1.46875 -1.46875 2.578125z" fill-rule="nonzero"/><path fill="#666666" d="m7.6456695 104.56956l94.17323 0l0 23.71653l-94.17323 0z" fill-rule="evenodd"/><path fill="#ffffff" d="m39.59654 120.94782l0 -8.59375l6.375 0l0 1.453125l-4.640625 0l0 1.90625l4.3125 0l0 1.453125l-4.3125 0l0 2.328125l4.796875 0l0 1.453125l-6.53125 0zm7.2070312 0l2.234375 -3.203125l-2.140625 -3.015625l2.0 0l1.109375 1.703125l1.15625 -1.703125l1.9375 0l-2.109375 2.9375l2.296875 3.28125l-2.015625 0l-1.265625 -1.921875l-1.28125 1.921875l-1.921875 0zm8.689453 -4.328125l-1.5 -0.265625q0.25 -0.90625 0.859375 -1.328125q0.625 -0.4375 1.84375 -0.4375q1.09375 0 1.625 0.265625q0.546875 0.25 0.765625 0.65625q0.21875 0.390625 0.21875 1.46875l-0.015625 1.921875q0 0.828125 0.078125 1.21875q0.078125 0.375 0.296875 0.828125l-1.625 0q-0.0625 -0.171875 -0.15625 -0.484375q-0.046875 -0.15625 -0.0625 -0.203125q-0.421875 0.421875 -0.90625 0.625q-0.46875 0.203125 -1.015625 0.203125q-0.96875 0 -1.53125 -0.515625q-0.546875 -0.53125 -0.546875 -1.328125q0 -0.53125 0.25 -0.9375q0.265625 -0.40625 0.71875 -0.625q0.453125 -0.234375 1.3125 -0.390625q1.140625 -0.21875 1.59375 -0.40625l0 -0.15625q0 -0.484375 -0.234375 -0.6875q-0.234375 -0.203125 -0.890625 -0.203125q-0.4375 0 -0.6875 0.171875q-0.234375 0.171875 -0.390625 0.609375zm2.203125 1.34375q-0.3125 0.09375 -1.0 0.25q-0.6875 0.140625 -0.90625 0.28125q-0.3125 0.234375 -0.3125 0.578125q0 0.34375 0.25 0.609375q0.265625 0.25 0.65625 0.25q0.453125 0 0.859375 -0.296875q0.296875 -0.21875 0.390625 -0.546875q0.0625 -0.203125 0.0625 -0.796875l0 -0.328125zm3.1113281 -3.234375l1.515625 0l0 0.84375q0.828125 -0.984375 1.9531288 -0.984375q0.59375 0 1.03125 0.25q0.4375 0.234375 0.71875 0.734375q0.40625 -0.5 0.875 -0.734375q0.484375 -0.25 1.03125 -0.25q0.671875 0 1.140625 0.28125q0.484375 0.265625 0.71875 0.8125q0.171875 0.390625 0.171875 1.28125l0 3.984375l-1.640625 0l0 -3.5625q0 -0.921875 -0.171875 -1.1875q-0.234375 -0.359375 -0.703125 -0.359375q-0.34375 0 -0.65625 0.21875q-0.296875 0.203125 -0.4375 0.609375q-0.140625 0.40625 -0.140625 1.296875l0 2.984375l-1.640625 0l0 -3.40625q0 -0.90625 -0.09375 -1.171875q-0.078125 -0.265625 -0.265625 -0.390625q-0.1875 -0.140625 -0.5000038 -0.140625q-0.375 0 -0.6875 0.21875q-0.296875 0.203125 -0.4375 0.59375q-0.125 0.375 -0.125 1.265625l0 3.03125l-1.65625 0l0 -6.21875z" fill-rule="nonzero"/><path fill="#000000" fill-opacity="0.0" d="m113.69029 9.019607l1.8582611 149.79527" fill-rule="evenodd"/><path stroke="#b7b7b7" stroke-width="1.0" stroke-linejoin="round" stroke-linecap="butt" d="m113.69029 9.019607l1.8582611 149.79527" fill-rule="evenodd"/><path fill="#000000" fill-opacity="0.0" d="m114.950134 136.56955l79.33858 0l0 23.716537l-79.33858 0z" fill-rule="evenodd"/><path fill="#000000" d="m130.21576 149.49594l1.015625 0.25q-0.328125 1.25 -1.15625 1.90625q-0.8125 0.640625 -2.015625 0.640625q-1.234375 0 -2.0 -0.5q-0.765625 -0.5 -1.171875 -1.453125q-0.40625 -0.953125 -0.40625 -2.046875q0 -1.1875 0.453125 -2.078125q0.453125 -0.890625 1.296875 -1.34375q0.84375 -0.46875 1.84375 -0.46875q1.15625 0 1.9375 0.59375q0.78125 0.578125 1.078125 1.640625l-0.984375 0.234375q-0.265625 -0.84375 -0.78125 -1.21875q-0.5 -0.375 -1.265625 -0.375q-0.875 0 -1.46875 0.421875q-0.59375 0.421875 -0.828125 1.140625q-0.234375 0.703125 -0.234375 1.453125q0 0.96875 0.28125 1.703125q0.28125 0.71875 0.875 1.078125q0.59375 0.359375 1.296875 0.359375q0.84375 0 1.4375 -0.484375q0.59375 -0.5 0.796875 -1.453125zm1.7893524 -0.09375q0 -1.53125 0.84375 -2.265625q0.71875 -0.625 1.734375 -0.625q1.140625 0 1.859375 0.75q0.734375 0.75 0.734375 2.0625q0 1.0625 -0.328125 1.6875q-0.3125 0.609375 -0.921875 0.953125q-0.609375 0.328125 -1.34375 0.328125q-1.15625 0 -1.875 -0.734375q-0.703125 -0.75 -0.703125 -2.15625zm0.953125 0q0 1.0625 0.46875 1.59375q0.46875 0.53125 1.15625 0.53125q0.703125 0 1.15625 -0.53125q0.46875 -0.53125 0.46875 -1.625q0 -1.015625 -0.46875 -1.546875q-0.453125 -0.53125 -1.15625 -0.53125q-0.6875 0 -1.15625 0.53125q-0.46875 0.515625 -0.46875 1.578125zm8.942123 2.765625l0 -0.8125q-0.65625 0.9375 -1.75 0.9375q-0.5 0 -0.921875 -0.1875q-0.421875 -0.1875 -0.625 -0.46875q-0.203125 -0.28125 -0.296875 -0.703125q-0.046875 -0.265625 -0.046875 -0.875l0 -3.421875l0.9375 0l0 3.0625q0 0.734375 0.046875 1.0q0.09375 0.359375 0.375 0.578125q0.296875 0.203125 0.703125 0.203125q0.421875 0 0.796875 -0.203125q0.375 -0.21875 0.515625 -0.59375q0.15625 -0.375 0.15625 -1.078125l0 -2.96875l0.9375 0l0 5.53125l-0.828125 0zm2.2858734 0l0 -5.53125l0.84375 0l0 0.84375q0.328125 -0.59375 0.59375 -0.78125q0.28125 -0.1875 0.609375 -0.1875q0.46875 0 0.953125 0.3125l-0.3125 0.859375q-0.34375 -0.203125 -0.6875 -0.203125q-0.3125 0 -0.5625 0.1875q-0.234375 0.1875 -0.34375 0.515625q-0.15625 0.5 -0.15625 1.09375l0 2.890625l-0.9375 0zm3.1892395 -1.65625l0.921875 -0.140625q0.078125 0.5625 0.4375 0.859375q0.359375 0.296875 1.0 0.296875q0.640625 0 0.953125 -0.265625q0.3125 -0.265625 0.3125 -0.625q0 -0.3125 -0.28125 -0.5q-0.1875 -0.125 -0.953125 -0.3125q-1.03125 -0.265625 -1.4375 -0.453125q-0.390625 -0.1875 -0.59375 -0.515625q-0.203125 -0.34375 -0.203125 -0.75q0 -0.359375 0.171875 -0.671875q0.171875 -0.328125 0.453125 -0.53125q0.21875 -0.15625 0.59375 -0.265625q0.390625 -0.125 0.8125 -0.125q0.65625 0 1.140625 0.1875q0.5 0.1875 0.734375 0.515625q0.234375 0.3125 0.3125 0.859375l-0.90625 0.125q-0.0625 -0.4375 -0.375 -0.671875q-0.296875 -0.234375 -0.828125 -0.234375q-0.65625 0 -0.9375 0.21875q-0.265625 0.203125 -0.265625 0.484375q0 0.1875 0.109375 0.328125q0.125 0.15625 0.359375 0.25q0.140625 0.0625 0.828125 0.25q1.0 0.265625 1.390625 0.4375q0.390625 0.15625 0.609375 0.484375q0.234375 0.3125 0.234375 0.796875q0 0.46875 -0.28125 0.890625q-0.265625 0.40625 -0.78125 0.640625q-0.515625 0.21875 -1.171875 0.21875q-1.078125 0 -1.640625 -0.4375q-0.5625 -0.453125 -0.71875 -1.34375zm9.484375 -0.125l0.96875 0.125q-0.234375 0.84375 -0.859375 1.3125q-0.609375 0.46875 -1.578125 0.46875q-1.203125 0 -1.921875 -0.75q-0.703125 -0.75 -0.703125 -2.09375q0 -1.390625 0.71875 -2.15625q0.71875 -0.78125 1.859375 -0.78125q1.109375 0 1.8125 0.765625q0.703125 0.75 0.703125 2.125q0 0.078125 0 0.234375l-4.125 0q0.046875 0.921875 0.515625 1.40625q0.46875 0.484375 1.15625 0.484375q0.515625 0 0.875 -0.265625q0.359375 -0.28125 0.578125 -0.875zm-3.078125 -1.515625l3.09375 0q-0.0625 -0.6875 -0.359375 -1.046875q-0.453125 -0.53125 -1.15625 -0.53125q-0.640625 0 -1.09375 0.4375q-0.4375 0.421875 -0.484375 1.140625zm7.809021 1.640625l0.921875 -0.140625q0.078125 0.5625 0.4375 0.859375q0.359375 0.296875 1.0 0.296875q0.640625 0 0.953125 -0.265625q0.3125 -0.265625 0.3125 -0.625q0 -0.3125 -0.28125 -0.5q-0.1875 -0.125 -0.953125 -0.3125q-1.03125 -0.265625 -1.4375 -0.453125q-0.390625 -0.1875 -0.59375 -0.515625q-0.203125 -0.34375 -0.203125 -0.75q0 -0.359375 0.171875 -0.671875q0.171875 -0.328125 0.453125 -0.53125q0.21875 -0.15625 0.59375 -0.265625q0.390625 -0.125 0.8125 -0.125q0.65625 0 1.140625 0.1875q0.5 0.1875 0.734375 0.515625q0.234375 0.3125 0.3125 0.859375l-0.90625 0.125q-0.0625 -0.4375 -0.375 -0.671875q-0.296875 -0.234375 -0.828125 -0.234375q-0.65625 0 -0.9375 0.21875q-0.265625 0.203125 -0.265625 0.484375q0 0.1875 0.109375 0.328125q0.125 0.15625 0.359375 0.25q0.140625 0.0625 0.828125 0.25q1.0 0.265625 1.390625 0.4375q0.390625 0.15625 0.609375 0.484375q0.234375 0.3125 0.234375 0.796875q0 0.46875 -0.28125 0.890625q-0.265625 0.40625 -0.78125 0.640625q-0.515625 0.21875 -1.171875 0.21875q-1.078125 0 -1.640625 -0.4375q-0.5625 -0.453125 -0.71875 -1.34375zm7.75 0.8125l0.125 0.828125q-0.390625 0.09375 -0.703125 0.09375q-0.5 0 -0.78125 -0.15625q-0.28125 -0.171875 -0.40625 -0.4375q-0.109375 -0.265625 -0.109375 -1.109375l0 -3.171875l-0.6875 0l0 -0.734375l0.6875 0l0 -1.359375l0.9375 -0.5625l0 1.921875l0.9375 0l0 0.734375l-0.9375 0l0 3.234375q0 0.390625 0.046875 0.515625q0.046875 0.109375 0.15625 0.1875q0.109375 0.0625 0.328125 0.0625q0.15625 0 0.40625 -0.046875zm4.5231476 0.15625q-0.53125 0.453125 -1.015625 0.640625q-0.46875 0.171875 -1.015625 0.171875q-0.921875 0 -1.40625 -0.4375q-0.484375 -0.453125 -0.484375 -1.140625q0 -0.40625 0.171875 -0.734375q0.1875 -0.34375 0.484375 -0.546875q0.3125 -0.203125 0.6875 -0.3125q0.265625 -0.0625 0.828125 -0.140625q1.125 -0.125 1.671875 -0.3125q0 -0.203125 0 -0.25q0 -0.578125 -0.265625 -0.8125q-0.359375 -0.3125 -1.0625 -0.3125q-0.65625 0 -0.984375 0.234375q-0.3125 0.234375 -0.453125 0.8125l-0.921875 -0.125q0.125 -0.578125 0.40625 -0.9375q0.296875 -0.375 0.828125 -0.5625q0.546875 -0.203125 1.25 -0.203125q0.71875 0 1.15625 0.171875q0.4375 0.171875 0.640625 0.421875q0.21875 0.25 0.296875 0.640625q0.046875 0.234375 0.046875 0.859375l0 1.25q0 1.296875 0.0625 1.65625q0.0625 0.34375 0.234375 0.65625l-0.96875 0q-0.15625 -0.296875 -0.1875 -0.6875zm-0.078125 -2.078125q-0.515625 0.203125 -1.53125 0.34375q-0.578125 0.078125 -0.828125 0.1875q-0.234375 0.109375 -0.359375 0.3125q-0.125 0.1875 -0.125 0.4375q0 0.375 0.28125 0.625q0.28125 0.25 0.828125 0.25q0.53125 0 0.953125 -0.234375q0.421875 -0.234375 0.625 -0.65625q0.15625 -0.3125 0.15625 -0.9375l0 -0.328125zm2.3796234 2.765625l0 -5.53125l0.84375 0l0 0.84375q0.328125 -0.59375 0.59375 -0.78125q0.28125 -0.1875 0.609375 -0.1875q0.46875 0 0.953125 0.3125l-0.3125 0.859375q-0.34375 -0.203125 -0.6875 -0.203125q-0.3125 0 -0.5625 0.1875q-0.234375 0.1875 -0.34375 0.515625q-0.15625 0.5 -0.15625 1.09375l0 2.890625l-0.9375 0zm5.6111145 -0.84375l0.125 0.828125q-0.390625 0.09375 -0.703125 0.09375q-0.5 0 -0.78125 -0.15625q-0.28125 -0.171875 -0.40625 -0.4375q-0.109375 -0.265625 -0.109375 -1.109375l0 -3.171875l-0.6875 0l0 -0.734375l0.6875 0l0 -1.359375l0.9375 -0.5625l0 1.921875l0.9375 0l0 0.734375l-0.9375 0l0 3.234375q0 0.390625 0.046875 0.515625q0.046875 0.109375 0.15625 0.1875q0.109375 0.0625 0.328125 0.0625q0.15625 0 0.40625 -0.046875z" fill-rule="nonzero"/></g></svg>