<svg version="1.1" viewBox="0.0 0.0 691.6981627296587 202.67191601049868" fill="none" stroke="none" stroke-linecap="square" stroke-miterlimit="10" xmlns:xlink="http://www.w3.org/1999/xlink" xmlns="http://www.w3.org/2000/svg"><clipPath id="p.0"><path d="m0 0l691.6982 0l0 202.67192l-691.6982 0l0 -202.67192z" clip-rule="nonzero"/></clipPath><g clip-path="url(#p.0)"><path fill="#000000" fill-opacity="0.0" d="m0 0l691.6982 0l0 202.67192l-691.6982 0z" fill-rule="evenodd"/><path fill="#e06666" d="m127.821526 87.85827l0 0c0 -5.053192 4.0964127 -9.149605 9.149605 -9.149605l0 0c2.4266205 0 4.7538605 0.963974 6.469742 2.6798553c1.7158966 1.7158813 2.6798553 4.0431213 2.6798553 6.4697495l0 0c0 5.0531845 -4.096405 9.149605 -9.149597 9.149605l0 0c-5.053192 0 -9.149605 -4.0964203 -9.149605 -9.149605z" fill-rule="evenodd"/><path stroke="#ffffff" stroke-width="2.0" stroke-linejoin="round" stroke-linecap="butt" d="m127.821526 87.85827l0 0c0 -5.053192 4.0964127 -9.149605 9.149605 -9.149605l0 0c2.4266205 0 4.7538605 0.963974 6.469742 2.6798553c1.7158966 1.7158813 2.6798553 4.0431213 2.6798553 6.4697495l0 0c0 5.0531845 -4.096405 9.149605 -9.149597 9.149605l0 0c-5.053192 0 -9.149605 -4.0964203 -9.149605 -9.149605z" fill-rule="evenodd"/><path fill="#e06666" d="m167.82152 87.85827l0 0c0 -5.053192 4.0964203 -9.149605 9.149612 -9.149605l0 0c2.4266205 0 4.7538605 0.963974 6.469742 2.6798553c1.7158966 1.7158813 2.6798553 4.0431213 2.6798553 6.4697495l0 0c0 5.0531845 -4.096405 9.149605 -9.149597 9.149605l0 0c-5.053192 0 -9.149612 -4.0964203 -9.149612 -9.149605z" fill-rule="evenodd"/><path stroke="#ffffff" stroke-width="2.0" stroke-linejoin="round" stroke-linecap="butt" d="m167.82152 87.85827l0 0c0 -5.053192 4.0964203 -9.149605 9.149612 -9.149605l0 0c2.4266205 0 4.7538605 0.963974 6.469742 2.6798553c1.7158966 1.7158813 2.6798553 4.0431213 2.6798553 6.4697495l0 0c0 5.0531845 -4.096405 9.149605 -9.149597 9.149605l0 0c-5.053192 0 -9.149612 -4.0964203 -9.149612 -9.149605z" fill-rule="evenodd"/><path fill="#93c47d" d="m127.821526 135.85826l0 0c0 -5.053177 4.0964127 -9.149597 9.149605 -9.149597l0 0c2.4266205 0 4.7538605 0.963974 6.469742 2.6798553c1.7158966 1.7158813 2.6798553 4.0431213 2.6798553 6.469742l0 0c0 5.053192 -4.096405 9.149612 -9.149597 9.149612l0 0c-5.053192 0 -9.149605 -4.0964203 -9.149605 -9.149612z" fill-rule="evenodd"/><path stroke="#ffffff" stroke-width="2.0" stroke-linejoin="round" stroke-linecap="butt" d="m127.821526 135.85826l0 0c0 -5.053177 4.0964127 -9.149597 9.149605 -9.149597l0 0c2.4266205 0 4.7538605 0.963974 6.469742 2.6798553c1.7158966 1.7158813 2.6798553 4.0431213 2.6798553 6.469742l0 0c0 5.053192 -4.096405 9.149612 -9.149597 9.149612l0 0c-5.053192 0 -9.149605 -4.0964203 -9.149605 -9.149612z" fill-rule="evenodd"/><path fill="#93c47d" d="m167.82152 135.85826l0 0c0 -5.053177 4.0964203 -9.149597 9.149612 -9.149597l0 0c2.4266205 0 4.7538605 0.963974 6.469742 2.6798553c1.7158966 1.7158813 2.6798553 4.0431213 2.6798553 6.469742l0 0c0 5.053192 -4.096405 9.149612 -9.149597 9.149612l0 0c-5.053192 0 -9.149612 -4.0964203 -9.149612 -9.149612z" fill-rule="evenodd"/><path stroke="#ffffff" stroke-width="2.0" stroke-linejoin="round" stroke-linecap="butt" d="m167.82152 135.85826l0 0c0 -5.053177 4.0964203 -9.149597 9.149612 -9.149597l0 0c2.4266205 0 4.7538605 0.963974 6.469742 2.6798553c1.7158966 1.7158813 2.6798553 4.0431213 2.6798553 6.469742l0 0c0 5.053192 -4.096405 9.149612 -9.149597 9.149612l0 0c-5.053192 0 -9.149612 -4.0964203 -9.149612 -9.149612z" fill-rule="evenodd"/><path fill="#e06666" d="m279.82153 87.85827l0 0c0 -5.053192 4.096405 -9.149605 9.149597 -9.149605l0 0c2.4266357 0 4.7538757 0.963974 6.469757 2.6798553c1.7158813 1.7158813 2.67984 4.0431213 2.67984 6.4697495l0 0c0 5.0531845 -4.096405 9.149605 -9.149597 9.149605l0 0c-5.053192 0 -9.149597 -4.0964203 -9.149597 -9.149605z" fill-rule="evenodd"/><path stroke="#ffffff" stroke-width="2.0" stroke-linejoin="round" stroke-linecap="butt" d="m279.82153 87.85827l0 0c0 -5.053192 4.096405 -9.149605 9.149597 -9.149605l0 0c2.4266357 0 4.7538757 0.963974 6.469757 2.6798553c1.7158813 1.7158813 2.67984 4.0431213 2.67984 6.4697495l0 0c0 5.0531845 -4.096405 9.149605 -9.149597 9.149605l0 0c-5.053192 0 -9.149597 -4.0964203 -9.149597 -9.149605z" fill-rule="evenodd"/><path fill="#e06666" d="m319.82153 87.85827l0 0c0 -5.053192 4.096405 -9.149605 9.149597 -9.149605l0 0c2.4266357 0 4.7538757 0.963974 6.469757 2.6798553c1.7158813 1.7158813 2.67984 4.0431213 2.67984 6.4697495l0 0c0 5.0531845 -4.096405 9.149605 -9.149597 9.149605l0 0c-5.053192 0 -9.149597 -4.0964203 -9.149597 -9.149605z" fill-rule="evenodd"/><path stroke="#ffffff" stroke-width="2.0" stroke-linejoin="round" stroke-linecap="butt" d="m319.82153 87.85827l0 0c0 -5.053192 4.096405 -9.149605 9.149597 -9.149605l0 0c2.4266357 0 4.7538757 0.963974 6.469757 2.6798553c1.7158813 1.7158813 2.67984 4.0431213 2.67984 6.4697495l0 0c0 5.0531845 -4.096405 9.149605 -9.149597 9.149605l0 0c-5.053192 0 -9.149597 -4.0964203 -9.149597 -9.149605z" fill-rule="evenodd"/><path fill="#93c47d" d="m279.82153 135.85826l0 0c0 -5.053177 4.096405 -9.149597 9.149597 -9.149597l0 0c2.4266357 0 4.7538757 0.963974 6.469757 2.6798553c1.7158813 1.7158813 2.67984 4.0431213 2.67984 6.469742l0 0c0 5.053192 -4.096405 9.149612 -9.149597 9.149612l0 0c-5.053192 0 -9.149597 -4.0964203 -9.149597 -9.149612z" fill-rule="evenodd"/><path stroke="#ffffff" stroke-width="2.0" stroke-linejoin="round" stroke-linecap="butt" d="m279.82153 135.85826l0 0c0 -5.053177 4.096405 -9.149597 9.149597 -9.149597l0 0c2.4266357 0 4.7538757 0.963974 6.469757 2.6798553c1.7158813 1.7158813 2.67984 4.0431213 2.67984 6.469742l0 0c0 5.053192 -4.096405 9.149612 -9.149597 9.149612l0 0c-5.053192 0 -9.149597 -4.0964203 -9.149597 -9.149612z" fill-rule="evenodd"/><path fill="#93c47d" d="m319.82153 135.85826l0 0c0 -5.053177 4.096405 -9.149597 9.149597 -9.149597l0 0c2.4266357 0 4.7538757 0.963974 6.469757 2.6798553c1.7158813 1.7158813 2.67984 4.0431213 2.67984 6.469742l0 0c0 5.053192 -4.096405 9.149612 -9.149597 9.149612l0 0c-5.053192 0 -9.149597 -4.0964203 -9.149597 -9.149612z" fill-rule="evenodd"/><path stroke="#ffffff" stroke-width="2.0" stroke-linejoin="round" stroke-linecap="butt" d="m319.82153 135.85826l0 0c0 -5.053177 4.096405 -9.149597 9.149597 -9.149597l0 0c2.4266357 0 4.7538757 0.963974 6.469757 2.6798553c1.7158813 1.7158813 2.67984 4.0431213 2.67984 6.469742l0 0c0 5.053192 -4.096405 9.149612 -9.149597 9.149612l0 0c-5.053192 0 -9.149597 -4.0964203 -9.149597 -9.149612z" fill-rule="evenodd"/><path fill="#e06666" d="m431.82153 87.85827l0 0c0 -5.053192 4.096405 -9.149605 9.149597 -9.149605l0 0c2.4266357 0 4.7538757 0.963974 6.469757 2.6798553c1.7158813 1.7158813 2.67984 4.0431213 2.67984 6.4697495l0 0c0 5.0531845 -4.096405 9.149605 -9.149597 9.149605l0 0c-5.053192 0 -9.149597 -4.0964203 -9.149597 -9.149605z" fill-rule="evenodd"/><path stroke="#ffffff" stroke-width="2.0" stroke-linejoin="round" stroke-linecap="butt" d="m431.82153 87.85827l0 0c0 -5.053192 4.096405 -9.149605 9.149597 -9.149605l0 0c2.4266357 0 4.7538757 0.963974 6.469757 2.6798553c1.7158813 1.7158813 2.67984 4.0431213 2.67984 6.4697495l0 0c0 5.0531845 -4.096405 9.149605 -9.149597 9.149605l0 0c-5.053192 0 -9.149597 -4.0964203 -9.149597 -9.149605z" fill-rule="evenodd"/><path fill="#e06666" d="m471.82153 87.85827l0 0c0 -5.053192 4.096405 -9.149605 9.149597 -9.149605l0 0c2.4266357 0 4.7538757 0.963974 6.469757 2.6798553c1.7158813 1.7158813 2.67984 4.0431213 2.67984 6.4697495l0 0c0 5.0531845 -4.096405 9.149605 -9.149597 9.149605l0 0c-5.053192 0 -9.149597 -4.0964203 -9.149597 -9.149605z" fill-rule="evenodd"/><path stroke="#ffffff" stroke-width="2.0" stroke-linejoin="round" stroke-linecap="butt" d="m471.82153 87.85827l0 0c0 -5.053192 4.096405 -9.149605 9.149597 -9.149605l0 0c2.4266357 0 4.7538757 0.963974 6.469757 2.6798553c1.7158813 1.7158813 2.67984 4.0431213 2.67984 6.4697495l0 0c0 5.0531845 -4.096405 9.149605 -9.149597 9.149605l0 0c-5.053192 0 -9.149597 -4.0964203 -9.149597 -9.149605z" fill-rule="evenodd"/><path fill="#93c47d" d="m431.82153 135.85826l0 0c0 -5.053177 4.096405 -9.149597 9.149597 -9.149597l0 0c2.4266357 0 4.7538757 0.963974 6.469757 2.6798553c1.7158813 1.7158813 2.67984 4.0431213 2.67984 6.469742l0 0c0 5.053192 -4.096405 9.149612 -9.149597 9.149612l0 0c-5.053192 0 -9.149597 -4.0964203 -9.149597 -9.149612z" fill-rule="evenodd"/><path stroke="#ffffff" stroke-width="2.0" stroke-linejoin="round" stroke-linecap="butt" d="m431.82153 135.85826l0 0c0 -5.053177 4.096405 -9.149597 9.149597 -9.149597l0 0c2.4266357 0 4.7538757 0.963974 6.469757 2.6798553c1.7158813 1.7158813 2.67984 4.0431213 2.67984 6.469742l0 0c0 5.053192 -4.096405 9.149612 -9.149597 9.149612l0 0c-5.053192 0 -9.149597 -4.0964203 -9.149597 -9.149612z" fill-rule="evenodd"/><path fill="#93c47d" d="m471.82153 135.85826l0 0c0 -5.053177 4.096405 -9.149597 9.149597 -9.149597l0 0c2.4266357 0 4.7538757 0.963974 6.469757 2.6798553c1.7158813 1.7158813 2.67984 4.0431213 2.67984 6.469742l0 0c0 5.053192 -4.096405 9.149612 -9.149597 9.149612l0 0c-5.053192 0 -9.149597 -4.0964203 -9.149597 -9.149612z" fill-rule="evenodd"/><path stroke="#ffffff" stroke-width="2.0" stroke-linejoin="round" stroke-linecap="butt" d="m471.82153 135.85826l0 0c0 -5.053177 4.096405 -9.149597 9.149597 -9.149597l0 0c2.4266357 0 4.7538757 0.963974 6.469757 2.6798553c1.7158813 1.7158813 2.67984 4.0431213 2.67984 6.469742l0 0c0 5.053192 -4.096405 9.149612 -9.149597 9.149612l0 0c-5.053192 0 -9.149597 -4.0964203 -9.149597 -9.149612z" fill-rule="evenodd"/><path fill="#e06666" d="m583.82153 87.85827l0 0c0 -5.053192 4.0964355 -9.149605 9.149597 -9.149605l0 0c2.4266357 0 4.753845 0.963974 6.4697266 2.6798553c1.7158813 1.7158813 2.6798706 4.0431213 2.6798706 6.4697495l0 0c0 5.0531845 -4.0964355 9.149605 -9.149597 9.149605l0 0c-5.0531616 0 -9.149597 -4.0964203 -9.149597 -9.149605z" fill-rule="evenodd"/><path stroke="#ffffff" stroke-width="2.0" stroke-linejoin="round" stroke-linecap="butt" d="m583.82153 87.85827l0 0c0 -5.053192 4.0964355 -9.149605 9.149597 -9.149605l0 0c2.4266357 0 4.753845 0.963974 6.4697266 2.6798553c1.7158813 1.7158813 2.6798706 4.0431213 2.6798706 6.4697495l0 0c0 5.0531845 -4.0964355 9.149605 -9.149597 9.149605l0 0c-5.0531616 0 -9.149597 -4.0964203 -9.149597 -9.149605z" fill-rule="evenodd"/><path fill="#e06666" d="m623.82153 87.85827l0 0c0 -5.053192 4.0964355 -9.149605 9.149597 -9.149605l0 0c2.4266357 0 4.753845 0.963974 6.4697266 2.6798553c1.7158813 1.7158813 2.6798706 4.0431213 2.6798706 6.4697495l0 0c0 5.0531845 -4.0964355 9.149605 -9.149597 9.149605l0 0c-5.0531616 0 -9.149597 -4.0964203 -9.149597 -9.149605z" fill-rule="evenodd"/><path stroke="#ffffff" stroke-width="2.0" stroke-linejoin="round" stroke-linecap="butt" d="m623.82153 87.85827l0 0c0 -5.053192 4.0964355 -9.149605 9.149597 -9.149605l0 0c2.4266357 0 4.753845 0.963974 6.4697266 2.6798553c1.7158813 1.7158813 2.6798706 4.0431213 2.6798706 6.4697495l0 0c0 5.0531845 -4.0964355 9.149605 -9.149597 9.149605l0 0c-5.0531616 0 -9.149597 -4.0964203 -9.149597 -9.149605z" fill-rule="evenodd"/><path fill="#93c47d" d="m583.82153 135.85826l0 0c0 -5.053177 4.0964355 -9.149597 9.149597 -9.149597l0 0c2.4266357 0 4.753845 0.963974 6.4697266 2.6798553c1.7158813 1.7158813 2.6798706 4.0431213 2.6798706 6.469742l0 0c0 5.053192 -4.0964355 9.149612 -9.149597 9.149612l0 0c-5.0531616 0 -9.149597 -4.0964203 -9.149597 -9.149612z" fill-rule="evenodd"/><path stroke="#ffffff" stroke-width="2.0" stroke-linejoin="round" stroke-linecap="butt" d="m583.82153 135.85826l0 0c0 -5.053177 4.0964355 -9.149597 9.149597 -9.149597l0 0c2.4266357 0 4.753845 0.963974 6.4697266 2.6798553c1.7158813 1.7158813 2.6798706 4.0431213 2.6798706 6.469742l0 0c0 5.053192 -4.0964355 9.149612 -9.149597 9.149612l0 0c-5.0531616 0 -9.149597 -4.0964203 -9.149597 -9.149612z" fill-rule="evenodd"/><path fill="#93c47d" d="m623.82153 135.85826l0 0c0 -5.053177 4.0964355 -9.149597 9.149597 -9.149597l0 0c2.4266357 0 4.753845 0.963974 6.4697266 2.6798553c1.7158813 1.7158813 2.6798706 4.0431213 2.6798706 6.469742l0 0c0 5.053192 -4.0964355 9.149612 -9.149597 9.149612l0 0c-5.0531616 0 -9.149597 -4.0964203 -9.149597 -9.149612z" fill-rule="evenodd"/><path stroke="#ffffff" stroke-width="2.0" stroke-linejoin="round" stroke-linecap="butt" d="m623.82153 135.85826l0 0c0 -5.053177 4.0964355 -9.149597 9.149597 -9.149597l0 0c2.4266357 0 4.753845 0.963974 6.4697266 2.6798553c1.7158813 1.7158813 2.6798706 4.0431213 2.6798706 6.469742l0 0c0 5.053192 -4.0964355 9.149612 -9.149597 9.149612l0 0c-5.0531616 0 -9.149597 -4.0964203 -9.149597 -9.149612z" fill-rule="evenodd"/><path fill="#000000" fill-opacity="0.0" d="m136.97113 97.00787l0 29.70079" fill-rule="evenodd"/><path stroke="#6d9eeb" stroke-width="2.0" stroke-linejoin="round" stroke-linecap="butt" d="m136.97113 97.00787l0 29.70079" fill-rule="evenodd"/><path fill="#000000" fill-opacity="0.0" d="m176.97113 97.00787l0 29.70079" fill-rule="evenodd"/><path stroke="#6d9eeb" stroke-width="2.0" stroke-linejoin="round" stroke-linecap="butt" d="m176.97113 97.00787l0 29.70079" fill-rule="evenodd"/><path fill="#000000" fill-opacity="0.0" d="m288.97113 97.00787l0 29.70079" fill-rule="evenodd"/><path stroke="#6d9eeb" stroke-width="2.0" stroke-linejoin="round" stroke-linecap="butt" d="m288.97113 97.00787l0 29.70079" fill-rule="evenodd"/><path fill="#000000" fill-opacity="0.0" d="m322.50137 94.32802l-27.055115 35.055115" fill-rule="evenodd"/><path stroke="#6d9eeb" stroke-width="2.0" stroke-linejoin="round" stroke-linecap="butt" d="m322.50137 94.32802l-27.055115 35.055115" fill-rule="evenodd"/><path fill="#000000" fill-opacity="0.0" d="m440.97113 97.00787l0 29.70079" fill-rule="evenodd"/><path stroke="#6d9eeb" stroke-width="2.0" stroke-linejoin="round" stroke-linecap="butt" d="m440.97113 97.00787l0 29.70079" fill-rule="evenodd"/><path fill="#000000" fill-opacity="0.0" d="m480.97113 97.00787l0 29.70079" fill-rule="evenodd"/><path stroke="#6d9eeb" stroke-width="2.0" stroke-linejoin="round" stroke-linecap="butt" d="m480.97113 97.00787l0 29.70079" fill-rule="evenodd"/><path fill="#000000" fill-opacity="0.0" d="m450.12073 135.85826l21.700806 0" fill-rule="evenodd"/><path stroke="#6d9eeb" stroke-width="2.0" stroke-linejoin="round" stroke-linecap="butt" d="m450.12073 135.85826l21.700806 0" fill-rule="evenodd"/><path fill="#000000" fill-opacity="0.0" d="m602.1207 87.85827l21.700806 0" fill-rule="evenodd"/><path stroke="#6d9eeb" stroke-width="2.0" stroke-linejoin="round" stroke-linecap="butt" d="m602.1207 87.85827l21.700806 0" fill-rule="evenodd"/><path fill="#000000" fill-opacity="0.0" d="m592.9711 97.00787l0 29.70079" fill-rule="evenodd"/><path stroke="#6d9eeb" stroke-width="2.0" stroke-linejoin="round" stroke-linecap="butt" d="m592.9711 97.00787l0 29.70079" fill-rule="evenodd"/><path fill="#000000" fill-opacity="0.0" d="m632.9711 97.00787l0 29.70079" fill-rule="evenodd"/><path stroke="#6d9eeb" stroke-width="2.0" stroke-linejoin="round" stroke-linecap="butt" d="m632.9711 97.00787l0 29.70079" fill-rule="evenodd"/><path fill="#000000" fill-opacity="0.0" d="m119.04462 28.934383l112.220474 0l0 42.01575l-112.220474 0z" fill-rule="evenodd"/><path fill="#000000" d="m129.77899 55.85438l0 -13.359375l1.765625 0l0 13.359375l-1.765625 0zm4.027054 -2.890625l1.625 -0.25q0.125 0.96875 0.75 1.5q0.625 0.515625 1.75 0.515625q1.125 0 1.671875 -0.453125q0.546875 -0.46875 0.546875 -1.09375q0 -0.546875 -0.484375 -0.875q-0.328125 -0.21875 -1.671875 -0.546875q-1.8125 -0.46875 -2.515625 -0.796875q-0.6875 -0.328125 -1.046875 -0.90625q-0.359375 -0.59375 -0.359375 -1.3125q0 -0.640625 0.296875 -1.1875q0.296875 -0.5625 0.8125 -0.921875q0.375 -0.28125 1.03125 -0.46875q0.671875 -0.203125 1.421875 -0.203125q1.140625 0 2.0 0.328125q0.859375 0.328125 1.265625 0.890625q0.421875 0.5625 0.578125 1.5l-1.609375 0.21875q-0.109375 -0.75 -0.640625 -1.171875q-0.515625 -0.421875 -1.46875 -0.421875q-1.140625 0 -1.625 0.375q-0.46875 0.375 -0.46875 0.875q0 0.3125 0.1875 0.578125q0.203125 0.265625 0.640625 0.4375q0.234375 0.09375 1.4375 0.421875q1.75 0.453125 2.4375 0.75q0.6875 0.296875 1.078125 0.859375q0.390625 0.5625 0.390625 1.40625q0 0.828125 -0.484375 1.546875q-0.46875 0.71875 -1.375 1.125q-0.90625 0.390625 -2.046875 0.390625q-1.875 0 -2.875 -0.78125q-0.984375 -0.78125 -1.25 -2.328125zm9.375 -1.953125q0 -2.6875 1.484375 -3.96875q1.25 -1.078125 3.046875 -1.078125q2.0 0 3.265625 1.3125q1.265625 1.296875 1.265625 3.609375q0 1.859375 -0.5625 2.9375q-0.5625 1.0625 -1.640625 1.65625q-1.0625 0.59375 -2.328125 0.59375q-2.03125 0 -3.28125 -1.296875q-1.25 -1.3125 -1.25 -3.765625zm1.6875 0q0 1.859375 0.796875 2.796875q0.8125 0.921875 2.046875 0.921875q1.21875 0 2.03125 -0.921875q0.8125 -0.9375 0.8125 -2.84375q0 -1.796875 -0.8125 -2.71875q-0.8125 -0.921875 -2.03125 -0.921875q-1.234375 0 -2.046875 0.921875q-0.796875 0.90625 -0.796875 2.765625zm9.250717 4.84375l0 -13.359375l1.640625 0l0 13.359375l-1.640625 0zm10.504196 -1.1875q-0.921875 0.765625 -1.765625 1.09375q-0.828125 0.3125 -1.796875 0.3125q-1.59375 0 -2.453125 -0.78125q-0.859375 -0.78125 -0.859375 -1.984375q0 -0.71875 0.328125 -1.296875q0.328125 -0.59375 0.84375 -0.9375q0.53125 -0.359375 1.1875 -0.546875q0.46875 -0.125 1.453125 -0.25q1.984375 -0.234375 2.921875 -0.5625q0.015625 -0.34375 0.015625 -0.421875q0 -1.0 -0.46875 -1.421875q-0.625 -0.546875 -1.875 -0.546875q-1.15625 0 -1.703125 0.40625q-0.546875 0.40625 -0.8125 1.421875l-1.609375 -0.21875q0.21875 -1.015625 0.71875 -1.640625q0.5 -0.640625 1.453125 -0.984375q0.953125 -0.34375 2.1875 -0.34375q1.25 0 2.015625 0.296875q0.78125 0.28125 1.140625 0.734375q0.375 0.4375 0.515625 1.109375q0.078125 0.421875 0.078125 1.515625l0 2.1875q0 2.28125 0.109375 2.890625q0.109375 0.59375 0.40625 1.15625l-1.703125 0q-0.265625 -0.515625 -0.328125 -1.1875zm-0.140625 -3.671875q-0.890625 0.375 -2.671875 0.625q-1.015625 0.140625 -1.4375 0.328125q-0.421875 0.1875 -0.65625 0.53125q-0.21875 0.34375 -0.21875 0.78125q0 0.65625 0.5 1.09375q0.5 0.4375 1.453125 0.4375q0.9375 0 1.671875 -0.40625q0.75 -0.421875 1.09375 -1.140625q0.265625 -0.5625 0.265625 -1.640625l0 -0.609375zm7.781967 3.390625l0.234375 1.453125q-0.6875 0.140625 -1.234375 0.140625q-0.890625 0 -1.390625 -0.28125q-0.484375 -0.28125 -0.6875 -0.734375q-0.203125 -0.46875 -0.203125 -1.9375l0 -5.578125l-1.203125 0l0 -1.265625l1.203125 0l0 -2.390625l1.625 -0.984375l0 3.375l1.65625 0l0 1.265625l-1.65625 0l0 5.671875q0 0.6875 0.078125 0.890625q0.09375 0.203125 0.28125 0.328125q0.203125 0.109375 0.578125 0.109375q0.265625 0 0.71875 -0.0625zm8.230179 -1.640625l1.6875 0.203125q-0.40625 1.484375 -1.484375 2.3125q-1.078125 0.8125 -2.765625 0.8125q-2.125 0 -3.375 -1.296875q-1.234375 -1.3125 -1.234375 -3.671875q0 -2.453125 1.25 -3.796875q1.265625 -1.34375 3.265625 -1.34375q1.9375 0 3.15625 1.328125q1.234375 1.3125 1.234375 3.703125q0 0.15625 0 0.4375l-7.21875 0q0.09375 1.59375 0.90625 2.453125q0.8125 0.84375 2.015625 0.84375q0.90625 0 1.546875 -0.46875q0.640625 -0.484375 1.015625 -1.515625zm-5.390625 -2.65625l5.40625 0q-0.109375 -1.21875 -0.625 -1.828125q-0.78125 -0.953125 -2.03125 -0.953125q-1.125 0 -1.90625 0.765625q-0.765625 0.75 -0.84375 2.015625zm15.406967 5.765625l0 -1.21875q-0.90625 1.4375 -2.703125 1.4375q-1.15625 0 -2.125 -0.640625q-0.96875 -0.640625 -1.5 -1.78125q-0.53125 -1.140625 -0.53125 -2.625q0 -1.453125 0.484375 -2.625q0.484375 -1.1875 1.4375 -1.8125q0.96875 -0.625 2.171875 -0.625q0.875 0 1.546875 0.375q0.6875 0.359375 1.109375 0.953125l0 -4.796875l1.640625 0l0 13.359375l-1.53125 0zm-5.171875 -4.828125q0 1.859375 0.78125 2.78125q0.78125 0.921875 1.84375 0.921875q1.078125 0 1.828125 -0.875q0.75 -0.890625 0.75 -2.6875q0 -1.984375 -0.765625 -2.90625q-0.765625 -0.9375 -1.890625 -0.9375q-1.078125 0 -1.8125 0.890625q-0.734375 0.890625 -0.734375 2.8125z" fill-rule="nonzero"/><path fill="#000000" fill-opacity="0.0" d="m271.04462 28.934383l112.22049 0l0 42.01575l-112.22049 0z" fill-rule="evenodd"/><path fill="#000000" d="m280.88837 51.557507l1.65625 -0.140625q0.125 1.0 0.546875 1.640625q0.4375 0.640625 1.34375 1.046875q0.921875 0.390625 2.0625 0.390625q1.0 0 1.78125 -0.296875q0.78125 -0.296875 1.15625 -0.8125q0.375 -0.53125 0.375 -1.15625q0 -0.625 -0.375 -1.09375q-0.359375 -0.46875 -1.1875 -0.796875q-0.546875 -0.203125 -2.390625 -0.640625q-1.828125 -0.453125 -2.5625 -0.84375q-0.96875 -0.5 -1.4375 -1.234375q-0.46875 -0.75 -0.46875 -1.671875q0 -1.0 0.578125 -1.875q0.578125 -0.890625 1.671875 -1.34375q1.109375 -0.453125 2.453125 -0.453125q1.484375 0 2.609375 0.484375q1.140625 0.46875 1.75 1.40625q0.609375 0.921875 0.65625 2.09375l-1.6875 0.125q-0.140625 -1.265625 -0.9375 -1.90625q-0.78125 -0.65625 -2.3125 -0.65625q-1.609375 0 -2.34375 0.59375q-0.734375 0.59375 -0.734375 1.421875q0 0.71875 0.53125 1.171875q0.5 0.46875 2.65625 0.96875q2.15625 0.484375 2.953125 0.84375q1.171875 0.53125 1.71875 1.359375q0.5625 0.828125 0.5625 1.90625q0 1.0625 -0.609375 2.015625q-0.609375 0.9375 -1.75 1.46875q-1.140625 0.515625 -2.578125 0.515625q-1.8125 0 -3.046875 -0.53125q-1.21875 -0.53125 -1.921875 -1.59375q-0.6875 -1.0625 -0.71875 -2.40625zm12.834198 4.296875l0 -13.359375l1.640625 0l0 4.796875q1.140625 -1.328125 2.890625 -1.328125q1.078125 0 1.859375 0.421875q0.796875 0.421875 1.140625 1.171875q0.34375 0.75 0.34375 2.171875l0 6.125l-1.640625 0l0 -6.125q0 -1.234375 -0.53125 -1.796875q-0.53125 -0.5625 -1.515625 -0.5625q-0.71875 0 -1.359375 0.390625q-0.640625 0.375 -0.921875 1.015625q-0.265625 0.640625 -0.265625 1.78125l0 5.296875l-1.640625 0zm16.688232 -1.1875q-0.921875 0.765625 -1.765625 1.09375q-0.828125 0.3125 -1.796875 0.3125q-1.59375 0 -2.453125 -0.78125q-0.859375 -0.78125 -0.859375 -1.984375q0 -0.71875 0.328125 -1.296875q0.328125 -0.59375 0.84375 -0.9375q0.53125 -0.359375 1.1875 -0.546875q0.46875 -0.125 1.453125 -0.25q1.984375 -0.234375 2.921875 -0.5625q0.015625 -0.34375 0.015625 -0.421875q0 -1.0 -0.46875 -1.421875q-0.625 -0.546875 -1.875 -0.546875q-1.15625 0 -1.703125 0.40625q-0.546875 0.40625 -0.8125 1.421875l-1.609375 -0.21875q0.21875 -1.015625 0.71875 -1.640625q0.5 -0.640625 1.453125 -0.984375q0.953125 -0.34375 2.1875 -0.34375q1.25 0 2.015625 0.296875q0.78125 0.28125 1.140625 0.734375q0.375 0.4375 0.515625 1.109375q0.078125 0.421875 0.078125 1.515625l0 2.1875q0 2.28125 0.109375 2.890625q0.109375 0.59375 0.40625 1.15625l-1.703125 0q-0.265625 -0.515625 -0.328125 -1.1875zm-0.140625 -3.671875q-0.890625 0.375 -2.671875 0.625q-1.015625 0.140625 -1.4375 0.328125q-0.421875 0.1875 -0.65625 0.53125q-0.21875 0.34375 -0.21875 0.78125q0 0.65625 0.5 1.09375q0.5 0.4375 1.453125 0.4375q0.9375 0 1.671875 -0.40625q0.75 -0.421875 1.09375 -1.140625q0.265625 -0.5625 0.265625 -1.640625l0 -0.609375zm4.188202 4.859375l0 -9.671875l1.46875 0l0 1.46875q0.5625 -1.03125 1.03125 -1.359375q0.484375 -0.328125 1.0625 -0.328125q0.828125 0 1.6875 0.53125l-0.5625 1.515625q-0.609375 -0.359375 -1.203125 -0.359375q-0.546875 0 -0.96875 0.328125q-0.421875 0.328125 -0.609375 0.890625q-0.28125 0.875 -0.28125 1.921875l0 5.0625l-1.625 0zm12.853302 -3.109375l1.6875 0.203125q-0.40625 1.484375 -1.484375 2.3125q-1.078125 0.8125 -2.765625 0.8125q-2.125 0 -3.375 -1.296875q-1.234375 -1.3125 -1.234375 -3.671875q0 -2.453125 1.25 -3.796875q1.265625 -1.34375 3.265625 -1.34375q1.9375 0 3.15625 1.328125q1.234375 1.3125 1.234375 3.703125q0 0.15625 0 0.4375l-7.21875 0q0.09375 1.59375 0.90625 2.453125q0.8125 0.84375 2.015625 0.84375q0.90625 0 1.546875 -0.46875q0.640625 -0.484375 1.015625 -1.515625zm-5.390625 -2.65625l5.40625 0q-0.109375 -1.21875 -0.625 -1.828125q-0.78125 -0.953125 -2.03125 -0.953125q-1.125 0 -1.90625 0.765625q-0.765625 0.75 -0.84375 2.015625zm15.406982 5.765625l0 -1.21875q-0.90625 1.4375 -2.703125 1.4375q-1.15625 0 -2.125 -0.640625q-0.96875 -0.640625 -1.5 -1.78125q-0.53125 -1.140625 -0.53125 -2.625q0 -1.453125 0.484375 -2.625q0.484375 -1.1875 1.4375 -1.8125q0.96875 -0.625 2.171875 -0.625q0.875 0 1.546875 0.375q0.6875 0.359375 1.109375 0.953125l0 -4.796875l1.640625 0l0 13.359375l-1.53125 0zm-5.171875 -4.828125q0 1.859375 0.78125 2.78125q0.78125 0.921875 1.84375 0.921875q1.078125 0 1.828125 -0.875q0.75 -0.890625 0.75 -2.6875q0 -1.984375 -0.765625 -2.90625q-0.765625 -0.9375 -1.890625 -0.9375q-1.078125 0 -1.8125 0.890625q-0.734375 0.890625 -0.734375 2.8125z" fill-rule="nonzero"/><path fill="#000000" fill-opacity="0.0" d="m423.04462 28.934383l112.22046 0l0 42.01575l-112.22046 0z" fill-rule="evenodd"/><path fill="#000000" d="m433.779 55.85438l0 -13.359375l1.765625 0l0 13.359375l-1.765625 0zm4.683319 0l0 -9.671875l1.46875 0l0 1.375q1.0625 -1.59375 3.078125 -1.59375q0.875 0 1.609375 0.3125q0.734375 0.3125 1.09375 0.828125q0.375 0.5 0.515625 1.203125q0.09375 0.453125 0.09375 1.59375l0 5.953125l-1.640625 0l0 -5.890625q0 -1.0 -0.203125 -1.484375q-0.1875 -0.5 -0.671875 -0.796875q-0.484375 -0.296875 -1.140625 -0.296875q-1.046875 0 -1.8125 0.671875q-0.75 0.65625 -0.75 2.515625l0 5.28125l-1.640625 0zm16.641327 0l0 -1.21875q-0.90625 1.4375 -2.703125 1.4375q-1.15625 0 -2.125 -0.640625q-0.96875 -0.640625 -1.5 -1.78125q-0.53125 -1.140625 -0.53125 -2.625q0 -1.453125 0.484375 -2.625q0.484375 -1.1875 1.4375 -1.8125q0.96875 -0.625 2.171875 -0.625q0.875 0 1.546875 0.375q0.6875 0.359375 1.109375 0.953125l0 -4.796875l1.640625 0l0 13.359375l-1.53125 0zm-5.171875 -4.828125q0 1.859375 0.78125 2.78125q0.78125 0.921875 1.84375 0.921875q1.078125 0 1.828125 -0.875q0.75 -0.890625 0.75 -2.6875q0 -1.984375 -0.765625 -2.90625q-0.765625 -0.9375 -1.890625 -0.9375q-1.078125 0 -1.8125 0.890625q-0.734375 0.890625 -0.734375 2.8125zm9.281982 -6.640625l0 -1.890625l1.640625 0l0 1.890625l-1.640625 0zm0 11.46875l0 -9.671875l1.640625 0l0 9.671875l-1.640625 0zm4.129181 0l0 -9.671875l1.46875 0l0 1.46875q0.5625 -1.03125 1.03125 -1.359375q0.484375 -0.328125 1.0625 -0.328125q0.828125 0 1.6875 0.53125l-0.5625 1.515625q-0.609375 -0.359375 -1.203125 -0.359375q-0.546875 0 -0.96875 0.328125q-0.421875 0.328125 -0.609375 0.890625q-0.28125 0.875 -0.28125 1.921875l0 5.0625l-1.625 0zm12.853302 -3.109375l1.6875 0.203125q-0.40625 1.484375 -1.484375 2.3125q-1.078125 0.8125 -2.765625 0.8125q-2.125 0 -3.375 -1.296875q-1.234375 -1.3125 -1.234375 -3.671875q0 -2.453125 1.25 -3.796875q1.265625 -1.34375 3.265625 -1.34375q1.9375 0 3.15625 1.328125q1.234375 1.3125 1.234375 3.703125q0 0.15625 0 0.4375l-7.21875 0q0.09375 1.59375 0.90625 2.453125q0.8125 0.84375 2.015625 0.84375q0.90625 0 1.546875 -0.46875q0.640625 -0.484375 1.015625 -1.515625zm-5.390625 -2.65625l5.40625 0q-0.109375 -1.21875 -0.625 -1.828125q-0.78125 -0.953125 -2.03125 -0.953125q-1.125 0 -1.90625 0.765625q-0.765625 0.75 -0.84375 2.015625zm15.453857 2.21875l1.609375 0.21875q-0.265625 1.65625 -1.359375 2.609375q-1.078125 0.9375 -2.671875 0.9375q-1.984375 0 -3.1875 -1.296875q-1.203125 -1.296875 -1.203125 -3.71875q0 -1.578125 0.515625 -2.75q0.515625 -1.171875 1.578125 -1.75q1.0625 -0.59375 2.3125 -0.59375q1.578125 0 2.578125 0.796875q1.0 0.796875 1.28125 2.265625l-1.59375 0.234375q-0.234375 -0.96875 -0.8125 -1.453125q-0.578125 -0.5 -1.390625 -0.5q-1.234375 0 -2.015625 0.890625q-0.78125 0.890625 -0.78125 2.8125q0 1.953125 0.75 2.84375q0.75 0.875 1.953125 0.875q0.96875 0 1.609375 -0.59375q0.65625 -0.59375 0.828125 -1.828125zm6.59375 2.078125l0.234375 1.453125q-0.6875 0.140625 -1.234375 0.140625q-0.890625 0 -1.390625 -0.28125q-0.484375 -0.28125 -0.6875 -0.734375q-0.203125 -0.46875 -0.203125 -1.9375l0 -5.578125l-1.203125 0l0 -1.265625l1.203125 0l0 -2.390625l1.625 -0.984375l0 3.375l1.65625 0l0 1.265625l-1.65625 0l0 5.671875q0 0.6875 0.078125 0.890625q0.09375 0.203125 0.28125 0.328125q0.203125 0.109375 0.578125 0.109375q0.265625 0 0.71875 -0.0625z" fill-rule="nonzero"/><path fill="#000000" fill-opacity="0.0" d="m575.0446 28.934383l112.22046 0l0 42.01575l-112.22046 0z" fill-rule="evenodd"/><path fill="#000000" d="m585.4821 55.85438l0 -13.359375l4.609375 0q1.546875 0 2.375 0.203125q1.140625 0.25 1.953125 0.953125q1.0625 0.890625 1.578125 2.28125q0.53125 1.390625 0.53125 3.171875q0 1.515625 -0.359375 2.703125q-0.359375 1.171875 -0.921875 1.9375q-0.546875 0.765625 -1.203125 1.21875q-0.65625 0.4375 -1.59375 0.671875q-0.9375 0.21875 -2.140625 0.21875l-4.828125 0zm1.765625 -1.578125l2.859375 0q1.3125 0 2.0625 -0.234375q0.75 -0.25 1.203125 -0.703125q0.625 -0.625 0.96875 -1.6875q0.359375 -1.0625 0.359375 -2.578125q0 -2.09375 -0.6875 -3.21875q-0.6875 -1.125 -1.671875 -1.5q-0.703125 -0.28125 -2.28125 -0.28125l-2.8125 0l0 10.203125zm11.504211 -9.890625l0 -1.890625l1.640625 0l0 1.890625l-1.640625 0zm0 11.46875l0 -9.671875l1.640625 0l0 9.671875l-1.640625 0zm4.1292114 0l0 -9.671875l1.46875 0l0 1.46875q0.5625 -1.03125 1.03125 -1.359375q0.484375 -0.328125 1.0625 -0.328125q0.828125 0 1.6875 0.53125l-0.5625 1.515625q-0.609375 -0.359375 -1.203125 -0.359375q-0.546875 0 -0.96875 0.328125q-0.421875 0.328125 -0.609375 0.890625q-0.28125 0.875 -0.28125 1.921875l0 5.0625l-1.625 0zm12.8532715 -3.109375l1.6875 0.203125q-0.40625 1.484375 -1.484375 2.3125q-1.078125 0.8125 -2.765625 0.8125q-2.125 0 -3.375 -1.296875q-1.234375 -1.3125 -1.234375 -3.671875q0 -2.453125 1.25 -3.796875q1.265625 -1.34375 3.265625 -1.34375q1.9375 0 3.15625 1.328125q1.234375 1.3125 1.234375 3.703125q0 0.15625 0 0.4375l-7.21875 0q0.09375 1.59375 0.90625 2.453125q0.8125 0.84375 2.015625 0.84375q0.90625 0 1.546875 -0.46875q0.640625 -0.484375 1.015625 -1.515625zm-5.390625 -2.65625l5.40625 0q-0.109375 -1.21875 -0.625 -1.828125q-0.78125 -0.953125 -2.03125 -0.953125q-1.125 0 -1.90625 0.765625q-0.765625 0.75 -0.84375 2.015625zm15.453857 2.21875l1.609375 0.21875q-0.265625 1.65625 -1.359375 2.609375q-1.078125 0.9375 -2.671875 0.9375q-1.984375 0 -3.1875 -1.296875q-1.203125 -1.296875 -1.203125 -3.71875q0 -1.578125 0.515625 -2.75q0.515625 -1.171875 1.578125 -1.75q1.0625 -0.59375 2.3125 -0.59375q1.578125 0 2.578125 0.796875q1.0 0.796875 1.28125 2.265625l-1.59375 0.234375q-0.234375 -0.96875 -0.8125 -1.453125q-0.578125 -0.5 -1.390625 -0.5q-1.234375 0 -2.015625 0.890625q-0.78125 0.890625 -0.78125 2.8125q0 1.953125 0.75 2.84375q0.75 0.875 1.953125 0.875q0.96875 0 1.609375 -0.59375q0.65625 -0.59375 0.828125 -1.828125zm6.59375 2.078125l0.234375 1.453125q-0.6875 0.140625 -1.234375 0.140625q-0.890625 0 -1.390625 -0.28125q-0.484375 -0.28125 -0.6875 -0.734375q-0.203125 -0.46875 -0.203125 -1.9375l0 -5.578125l-1.203125 0l0 -1.265625l1.203125 0l0 -2.390625l1.625 -0.984375l0 3.375l1.65625 0l0 1.265625l-1.65625 0l0 5.671875q0 0.6875 0.078125 0.890625q0.09375 0.203125 0.28125 0.328125q0.203125 0.109375 0.578125 0.109375q0.265625 0 0.71875 -0.0625z" fill-rule="nonzero"/><path fill="#000000" fill-opacity="0.0" d="m38.750656 66.84983l101.38583 0l0 38.771652l-101.38583 0z" fill-rule="evenodd"/><path fill="#cc0000" d="m51.094406 79.75671l0 4.203125q1.0625 -1.234375 2.53125 -1.234375q0.765625 0 1.375 0.28125q0.609375 0.28125 0.90625 0.71875q0.3125 0.4375 0.421875 0.96875q0.125 0.53125 0.125 1.640625l0 4.875l-2.203125 0l0 -4.390625q0 -1.296875 -0.125 -1.640625q-0.125 -0.359375 -0.4375 -0.5625q-0.3125 -0.21875 -0.796875 -0.21875q-0.546875 0 -0.984375 0.265625q-0.421875 0.265625 -0.625 0.8125q-0.1875 0.53125 -0.1875 1.578125l0 4.15625l-2.203125 0l0 -11.453125l2.203125 0zm13.0390625 11.453125l0 -1.25q-0.453125 0.671875 -1.1875 1.0625q-0.734375 0.375 -1.5625 0.375q-0.828125 0 -1.5 -0.359375q-0.65625 -0.375 -0.953125 -1.03125q-0.296875 -0.671875 -0.296875 -1.84375l0 -5.25l2.1875 0l0 3.8125q0 1.75 0.125 2.140625q0.125 0.390625 0.4375 0.625q0.328125 0.234375 0.8125 0.234375q0.5625 0 1.0 -0.3125q0.453125 -0.3125 0.609375 -0.765625q0.171875 -0.453125 0.171875 -2.234375l0 -3.5l2.203125 0l0 8.296875l-2.046875 0zm4.1484375 -8.296875l2.03125 0l0 1.125q1.078125 -1.3125 2.578125 -1.3125q0.796875 0 1.375 0.328125q0.59375 0.328125 0.96875 0.984375q0.546875 -0.65625 1.171875 -0.984375q0.640625 -0.328125 1.359375 -0.328125q0.921875 0 1.546875 0.375q0.640625 0.359375 0.953125 1.078125q0.21875 0.53125 0.21875 1.71875l0 5.3125l-2.1875 0l0 -4.75q0 -1.234375 -0.234375 -1.59375q-0.296875 -0.46875 -0.9375 -0.46875q-0.453125 0 -0.859375 0.28125q-0.40625 0.28125 -0.59375 0.828125q-0.171875 0.546875 -0.171875 1.71875l0 3.984375l-2.203125 0l0 -4.546875q0 -1.21875 -0.125 -1.5625q-0.109375 -0.359375 -0.359375 -0.53125q-0.234375 -0.171875 -0.65625 -0.171875q-0.515625 0 -0.921875 0.28125q-0.40625 0.265625 -0.578125 0.78125q-0.171875 0.515625 -0.171875 1.71875l0 4.03125l-2.203125 0l0 -8.296875zm16.039062 2.53125l-2.0 -0.359375q0.34375 -1.203125 1.15625 -1.78125q0.828125 -0.578125 2.4375 -0.578125q1.46875 0 2.1875 0.34375q0.71875 0.34375 1.015625 0.890625q0.296875 0.53125 0.296875 1.953125l-0.03125 2.5625q0 1.09375 0.109375 1.625q0.109375 0.515625 0.390625 1.109375l-2.171875 0q-0.078125 -0.21875 -0.203125 -0.65625q-0.0625 -0.1875 -0.078125 -0.25q-0.5625 0.546875 -1.203125 0.828125q-0.640625 0.265625 -1.375 0.265625q-1.28125 0 -2.015625 -0.6875q-0.734375 -0.703125 -0.734375 -1.765625q0 -0.703125 0.328125 -1.25q0.34375 -0.5625 0.9375 -0.84375q0.609375 -0.296875 1.75 -0.515625q1.546875 -0.296875 2.140625 -0.546875l0 -0.21875q0 -0.625 -0.3125 -0.890625q-0.3125 -0.28125 -1.1875 -0.28125q-0.578125 0 -0.90625 0.234375q-0.328125 0.234375 -0.53125 0.8125zm2.9375 1.78125q-0.421875 0.140625 -1.34375 0.34375q-0.90625 0.1875 -1.1875 0.375q-0.4375 0.296875 -0.4375 0.765625q0 0.46875 0.34375 0.8125q0.34375 0.328125 0.875 0.328125q0.59375 0 1.140625 -0.390625q0.390625 -0.296875 0.515625 -0.734375q0.09375 -0.28125 0.09375 -1.0625l0 -0.4375zm11.8671875 3.984375l-2.203125 0l0 -4.234375q0 -1.34375 -0.140625 -1.734375q-0.140625 -0.40625 -0.453125 -0.625q-0.3125 -0.21875 -0.765625 -0.21875q-0.5625 0 -1.015625 0.3125q-0.453125 0.3125 -0.625 0.828125q-0.171875 0.515625 -0.171875 1.90625l0 3.765625l-2.1875 0l0 -8.296875l2.03125 0l0 1.21875q1.09375 -1.40625 2.734375 -1.40625q0.734375 0 1.328125 0.265625q0.609375 0.25 0.90625 0.65625q0.3125 0.40625 0.4375 0.921875q0.125 0.515625 0.125 1.484375l0 5.15625z" fill-rule="nonzero"/><path fill="#000000" fill-opacity="0.0" d="m38.750656 114.84983l101.38583 0l0 38.77166l-101.38583 0z" fill-rule="evenodd"/><path fill="#6aa84f" d="m56.45378 139.20984l-2.203125 0l0 -4.234375q0 -1.34375 -0.140625 -1.734375q-0.140625 -0.40625 -0.453125 -0.625q-0.3125 -0.21875 -0.765625 -0.21875q-0.5625 0 -1.015625 0.3125q-0.453125 0.3125 -0.625 0.828125q-0.171875 0.515625 -0.171875 1.90625l0 3.765625l-2.1875 0l0 -8.296875l2.03125 0l0 1.21875q1.09375 -1.40625 2.734375 -1.40625q0.734375 0 1.328125 0.265625q0.609375 0.25 0.90625 0.65625q0.3125 0.40625 0.4375 0.921875q0.125 0.515625 0.125 1.484375l0 5.15625zm3.8671875 -5.765625l-2.0 -0.359375q0.34375 -1.203125 1.15625 -1.78125q0.828125 -0.578125 2.4375 -0.578125q1.46875 0 2.1875 0.34375q0.71875 0.34375 1.015625 0.890625q0.296875 0.53125 0.296875 1.953125l-0.03125 2.5625q0 1.09375 0.109375 1.625q0.109375 0.515625 0.390625 1.109375l-2.171875 0q-0.078125 -0.21875 -0.203125 -0.65625q-0.0625 -0.1875 -0.078125 -0.25q-0.5625 0.546875 -1.203125 0.828125q-0.640625 0.265625 -1.375 0.265625q-1.28125 0 -2.015625 -0.6875q-0.734375 -0.703125 -0.734375 -1.765625q0 -0.703125 0.328125 -1.25q0.34375 -0.5625 0.9375 -0.84375q0.609375 -0.296875 1.75 -0.515625q1.546875 -0.296875 2.140625 -0.546875l0 -0.21875q0 -0.625 -0.3125 -0.890625q-0.3125 -0.28125 -1.1875 -0.28125q-0.578125 0 -0.90625 0.234375q-0.328125 0.234375 -0.53125 0.8125zm2.9375 1.78125q-0.421875 0.140625 -1.34375 0.34375q-0.90625 0.1875 -1.1875 0.375q-0.4375 0.296875 -0.4375 0.765625q0 0.46875 0.34375 0.8125q0.34375 0.328125 0.875 0.328125q0.59375 0 1.140625 -0.390625q0.390625 -0.296875 0.515625 -0.734375q0.09375 -0.28125 0.09375 -1.0625l0 -0.4375zm8.1171875 -4.3125l0 1.75l-1.5 0l0 3.34375q0 1.015625 0.046875 1.1875q0.046875 0.15625 0.1875 0.265625q0.15625 0.109375 0.375 0.109375q0.3125 0 0.890625 -0.203125l0.1875 1.703125q-0.765625 0.328125 -1.734375 0.328125q-0.59375 0 -1.078125 -0.203125q-0.46875 -0.203125 -0.703125 -0.515625q-0.21875 -0.3125 -0.296875 -0.859375q-0.078125 -0.375 -0.078125 -1.546875l0 -3.609375l-1.0 0l0 -1.75l1.0 0l0 -1.65625l2.203125 -1.2812576l0 2.9375076l1.5 0zm6.984375 8.296875l0 -1.25q-0.453125 0.671875 -1.1875 1.0625q-0.734375 0.375 -1.5625 0.375q-0.828125 0 -1.5 -0.359375q-0.65625 -0.375 -0.953125 -1.03125q-0.296875 -0.671875 -0.296875 -1.84375l0 -5.25l2.1875 0l0 3.8125q0 1.75 0.125 2.140625q0.125 0.390625 0.4375 0.625q0.328125 0.234375 0.8125 0.234375q0.5625 0 1.0 -0.3125q0.453125 -0.3125 0.609375 -0.765625q0.171875 -0.453125 0.171875 -2.234375l0 -3.5l2.203125 0l0 8.296875l-2.046875 0zm6.4140625 0l-2.1875 0l0 -8.296875l2.03125 0l0 1.171875q0.53125 -0.828125 0.9375 -1.09375q0.421875 -0.265625 0.953125 -0.265625q0.75 0 1.453125 0.40625l-0.6875 1.921875q-0.546875 -0.359375 -1.03125 -0.359375q-0.453125 0 -0.78125 0.25q-0.3125 0.25 -0.5 0.921875q-0.1875 0.65625 -0.1875 2.78125l0 2.5625zm8.9296875 -2.640625l2.1875 0.359375q-0.421875 1.203125 -1.328125 1.84375q-0.90625 0.625 -2.28125 0.625q-2.15625 0 -3.203125 -1.421875q-0.8125 -1.125 -0.8125 -2.859375q0 -2.0625 1.078125 -3.21875q1.078125 -1.171875 2.71875 -1.171875q1.859375 0 2.921875 1.21875q1.078125 1.21875 1.03125 3.75l-5.5 0q0.015625 0.96875 0.515625 1.515625q0.515625 0.546875 1.28125 0.546875q0.515625 0 0.859375 -0.28125q0.359375 -0.28125 0.53125 -0.90625zm0.125 -2.21875q-0.015625 -0.953125 -0.484375 -1.453125q-0.46875 -0.5 -1.140625 -0.5q-0.71875 0 -1.1875 0.53125q-0.46875 0.515625 -0.46875 1.421875l3.28125 0z" fill-rule="nonzero"/></g></svg>