<svg version="1.1" viewBox="0.0 0.0 886.3622047244095 326.8241469816273" fill="none" stroke="none" stroke-linecap="square" stroke-miterlimit="10" xmlns:xlink="http://www.w3.org/1999/xlink" xmlns="http://www.w3.org/2000/svg"><clipPath id="p.0"><path d="m0 0l886.3622 0l0 326.82416l-886.3622 0l0 -326.82416z" clip-rule="nonzero"/></clipPath><g clip-path="url(#p.0)"><path fill="#000000" fill-opacity="0.0" d="m0 0l886.3622 0l0 326.82416l-886.3622 0z" fill-rule="evenodd"/><path fill="#000000" fill-opacity="0.0" d="m785.57745 213.30183l-36.409485 5.9212646" fill-rule="evenodd"/><path stroke="#000000" stroke-width="1.0" stroke-linejoin="round" stroke-linecap="butt" d="m785.57745 213.30183l-36.409485 5.9212646" fill-rule="evenodd"/><path fill="#000000" fill-opacity="0.0" d="m683.9921 158.27559l48.251953 25.385834" fill-rule="evenodd"/><path stroke="#000000" stroke-width="1.0" stroke-linejoin="round" stroke-linecap="butt" d="m683.9921 158.27559l48.251953 25.385834" fill-rule="evenodd"/><path fill="#000000" fill-opacity="0.0" d="m678.0656 211.60892l55.02362 -29.637787" fill-rule="evenodd"/><path stroke="#000000" stroke-width="1.0" stroke-linejoin="round" stroke-linecap="butt" d="m678.0656 211.60892l55.02362 -29.637787" fill-rule="evenodd"/><path fill="#000000" fill-opacity="0.0" d="m746.6352 222.61417l-12.692932 -37.259842" fill-rule="evenodd"/><path stroke="#000000" stroke-width="1.0" stroke-linejoin="round" stroke-linecap="butt" d="m746.6352 222.61417l-12.692932 -37.259842" fill-rule="evenodd"/><path fill="#000000" fill-opacity="0.0" d="m734.7848 181.13124l-10.173218 -36.409454" fill-rule="evenodd"/><path stroke="#000000" stroke-width="1.0" stroke-linejoin="round" stroke-linecap="butt" d="m734.7848 181.13124l-10.173218 -36.409454" fill-rule="evenodd"/><path fill="#000000" fill-opacity="0.0" d="m775.4199 161.66142l-41.480286 22.866135" fill-rule="evenodd"/><path stroke="#000000" stroke-width="1.0" stroke-linejoin="round" stroke-linecap="butt" d="m775.4199 161.66142l-41.480286 22.866135" fill-rule="evenodd"/><path fill="#3c78d8" d="m726.5696 183.69948l0 0c0 -4.0790863 3.3067017 -7.3858337 7.385803 -7.3858337l0 0c1.9588623 0 3.8374634 0.77815247 5.222595 2.163269c1.3850708 1.3851013 2.163208 3.2637177 2.163208 5.2225647l0 0c0 4.079071 -3.3067017 7.3858185 -7.385803 7.3858185l0 0c-4.0791016 0 -7.385803 -3.3067474 -7.385803 -7.3858185z" fill-rule="evenodd"/><path fill="#000000" fill-opacity="0.0" d="m659.4409 122.71916l22.015747 35.55905" fill-rule="evenodd"/><path stroke="#000000" stroke-width="1.0" stroke-linejoin="round" stroke-linecap="butt" d="m659.4409 122.71916l22.015747 35.55905" fill-rule="evenodd"/><path fill="#000000" fill-opacity="0.0" d="m646.7428 187.05774l35.55902 -28.7874" fill-rule="evenodd"/><path stroke="#000000" stroke-width="1.0" stroke-linejoin="round" stroke-linecap="butt" d="m646.7428 187.05774l35.55902 -28.7874" fill-rule="evenodd"/><path fill="#000000" fill-opacity="0.0" d="m724.6247 145.57742l3.4015503 2.5511932" fill-rule="evenodd"/><path stroke="#000000" stroke-width="1.0" stroke-linejoin="round" stroke-linecap="butt" d="m724.6247 145.57742l3.4015503 2.5511932" fill-rule="evenodd"/><path fill="#000000" fill-opacity="0.0" d="m725.4724 96.47507l-1.7007446 46.551178" fill-rule="evenodd"/><path stroke="#000000" stroke-width="1.0" stroke-linejoin="round" stroke-linecap="butt" d="m725.4724 96.47507l-1.7007446 46.551178" fill-rule="evenodd"/><path fill="#000000" fill-opacity="0.0" d="m805.895 133.72441l-28.787415 26.236221" fill-rule="evenodd"/><path stroke="#000000" stroke-width="1.0" stroke-linejoin="round" stroke-linecap="butt" d="m805.895 133.72441l-28.787415 26.236221" fill-rule="evenodd"/><path fill="#3d85c6" d="m652.66406 123.89239l0 0c0 -4.0790787 3.3067017 -7.385826 7.385803 -7.385826l0 0c1.9588623 0 3.8374634 0.77814484 5.222595 2.1632614c1.3850708 1.385109 2.163208 3.2637253 2.163208 5.2225647l0 0c0 4.0790787 -3.3067017 7.385826 -7.385803 7.385826l0 0c-4.0791016 0 -7.385803 -3.3067474 -7.385803 -7.385826z" fill-rule="evenodd"/><path fill="#3d85c6" d="m716.07086 98.87664l0 0c0 -4.0790787 3.3067627 -7.385826 7.385803 -7.385826l0 0c1.9588623 0 3.8374634 0.77814484 5.222595 2.1632614c1.3851318 1.385109 2.163269 3.2637253 2.163269 5.2225647l0 0c0 4.0790787 -3.3067627 7.385826 -7.3858643 7.385826l0 0c-4.0790405 0 -7.385803 -3.3067474 -7.385803 -7.385826z" fill-rule="evenodd"/><path fill="#3d85c6" d="m637.8924 186.66405l0 0c0 -4.0790863 3.3067627 -7.3858337 7.385803 -7.3858337l0 0c1.9588623 0 3.8374634 0.77815247 5.222595 2.1632538c1.3850708 1.3851166 2.163269 3.263733 2.163269 5.22258l0 0c0 4.079071 -3.3067627 7.3858185 -7.3858643 7.3858185l0 0c-4.0790405 0 -7.385803 -3.3067474 -7.385803 -7.3858185z" fill-rule="evenodd"/><path fill="#3d85c6" d="m716.07086 144.75853l0 0c0 -4.0790863 3.3067627 -7.3858337 7.385803 -7.3858337l0 0c1.9588623 0 3.8374634 0.77815247 5.222595 2.163269c1.3851318 1.3851013 2.163269 3.2637177 2.163269 5.2225647l0 0c0 4.0790863 -3.3067627 7.3858337 -7.3858643 7.3858337l0 0c-4.0790405 0 -7.385803 -3.3067474 -7.385803 -7.3858337z" fill-rule="evenodd"/><path fill="#3d85c6" d="m797.93176 133.3307l0 0c0 -4.079071 3.3067627 -7.3858185 7.385803 -7.3858185l0 0c1.9588623 0 3.8374634 0.77814484 5.222595 2.1632538c1.3851318 1.3851166 2.163269 3.263733 2.163269 5.2225647l0 0c0 4.0790863 -3.3067627 7.3858337 -7.3858643 7.3858337l0 0c-4.0790405 0 -7.385803 -3.3067474 -7.385803 -7.3858337z" fill-rule="evenodd"/><path fill="#3d85c6" d="m673.4042 158.64043l0 0c0 -4.0790863 3.3067627 -7.3858337 7.3858643 -7.3858337l0 0c1.9588013 0 3.8374634 0.77815247 5.222534 2.1632538c1.3851318 1.3851166 2.163269 3.263733 2.163269 5.22258l0 0c0 4.079071 -3.3067627 7.3858185 -7.385803 7.3858185l0 0c-4.0791016 0 -7.3858643 -3.3067474 -7.3858643 -7.3858185z" fill-rule="evenodd"/><path fill="#3d85c6" d="m667.43567 211.88977l0 0c0 -4.0790863 3.3067627 -7.3858337 7.3858643 -7.3858337l0 0c1.9588623 0 3.8374634 0.77815247 5.222534 2.1632538c1.3851318 1.3851166 2.163269 3.263733 2.163269 5.22258l0 0c0 4.079071 -3.3067627 7.3858185 -7.385803 7.3858185l0 0c-4.0791016 0 -7.3858643 -3.3067474 -7.3858643 -7.3858185z" fill-rule="evenodd"/><path fill="#3d85c6" d="m767.96326 162.19685l0 0c0 -4.0790863 3.3067627 -7.3858337 7.385803 -7.3858337l0 0c1.9588623 0 3.8374634 0.77815247 5.222595 2.163269c1.3851318 1.3851013 2.163269 3.2637177 2.163269 5.2225647l0 0c0 4.079071 -3.3067627 7.3858185 -7.3858643 7.3858185l0 0c-4.0790405 0 -7.385803 -3.3067474 -7.385803 -7.3858185z" fill-rule="evenodd"/><path fill="#3d85c6" d="m737.4042 222.64043l0 0c0 -4.0790863 3.3067627 -7.3858337 7.3858643 -7.3858337l0 0c1.9588013 0 3.8374634 0.77815247 5.222534 2.1632538c1.3851318 1.3851166 2.163269 3.263733 2.163269 5.22258l0 0c0 4.079071 -3.3067627 7.3858185 -7.385803 7.3858185l0 0c-4.0791016 0 -7.3858643 -3.3067474 -7.3858643 -7.3858185z" fill-rule="evenodd"/><path fill="#3d85c6" d="m777.1076 217.47769l0 0c0 -4.0790863 3.3067627 -7.3858337 7.385803 -7.3858337l0 0c1.9588623 0 3.8374634 0.77815247 5.222595 2.163269c1.3851318 1.3851013 2.163269 3.2637177 2.163269 5.2225647l0 0c0 4.079071 -3.3067627 7.3858185 -7.3858643 7.3858185l0 0c-4.0790405 0 -7.385803 -3.3067474 -7.385803 -7.3858185z" fill-rule="evenodd"/><path fill="#000000" fill-opacity="0.0" d="m503.042 212.07349l-36.409454 5.9212646" fill-rule="evenodd"/><path stroke="#000000" stroke-width="1.0" stroke-linejoin="round" stroke-linecap="butt" d="m503.042 212.07349l-36.409454 5.9212646" fill-rule="evenodd"/><path fill="#000000" fill-opacity="0.0" d="m401.4567 157.04724l48.251953 25.385834" fill-rule="evenodd"/><path stroke="#000000" stroke-width="1.0" stroke-linejoin="round" stroke-linecap="butt" d="m401.4567 157.04724l48.251953 25.385834" fill-rule="evenodd"/><path fill="#000000" fill-opacity="0.0" d="m395.53018 210.38058l55.02362 -29.637802" fill-rule="evenodd"/><path stroke="#000000" stroke-width="1.0" stroke-linejoin="round" stroke-linecap="butt" d="m395.53018 210.38058l55.02362 -29.637802" fill-rule="evenodd"/><path fill="#3d85c6" d="m444.03412 182.47113l0 0c0 -4.0790863 3.3067627 -7.3858337 7.3858337 -7.3858337l0 0c1.9588318 0 3.8374634 0.77815247 5.2225647 2.163269c1.3851013 1.3851013 2.163269 3.2637177 2.163269 5.2225647l0 0c0 4.079071 -3.3067627 7.3858185 -7.3858337 7.3858185l0 0c-4.079071 0 -7.3858337 -3.3067474 -7.3858337 -7.3858185z" fill-rule="evenodd"/><path fill="#000000" fill-opacity="0.0" d="m376.90552 121.490814l22.015747 35.55905" fill-rule="evenodd"/><path stroke="#000000" stroke-width="1.0" stroke-linejoin="round" stroke-linecap="butt" d="m376.90552 121.490814l22.015747 35.55905" fill-rule="evenodd"/><path fill="#000000" fill-opacity="0.0" d="m364.20734 185.82939l35.559082 -28.7874" fill-rule="evenodd"/><path stroke="#000000" stroke-width="1.0" stroke-linejoin="round" stroke-linecap="butt" d="m364.20734 185.82939l35.559082 -28.7874" fill-rule="evenodd"/><path fill="#000000" fill-opacity="0.0" d="m442.08923 144.34908l3.4015808 2.5511932" fill-rule="evenodd"/><path stroke="#000000" stroke-width="1.0" stroke-linejoin="round" stroke-linecap="butt" d="m442.08923 144.34908l3.4015808 2.5511932" fill-rule="evenodd"/><path fill="#000000" fill-opacity="0.0" d="m442.937 95.24672l-1.7008057 46.551178" fill-rule="evenodd"/><path stroke="#000000" stroke-width="1.0" stroke-linejoin="round" stroke-linecap="butt" d="m442.937 95.24672l-1.7008057 46.551178" fill-rule="evenodd"/><path fill="#000000" fill-opacity="0.0" d="m523.35956 132.49606l-28.787384 26.236221" fill-rule="evenodd"/><path stroke="#000000" stroke-width="1.0" stroke-linejoin="round" stroke-linecap="butt" d="m523.35956 132.49606l-28.787384 26.236221" fill-rule="evenodd"/><path fill="#3d85c6" d="m370.1286 122.66404l0 0c0 -4.0790787 3.3067627 -7.385826 7.3858337 -7.385826l0 0c1.9588318 0 3.8374634 0.77815247 5.2225647 2.1632614c1.3851013 1.385109 2.163269 3.2637253 2.163269 5.2225647l0 0c0 4.0790787 -3.3067627 7.385826 -7.3858337 7.385826l0 0c-4.079071 0 -7.3858337 -3.3067474 -7.3858337 -7.385826z" fill-rule="evenodd"/><path fill="#6aa84f" d="m433.53543 97.64829l0 0c0 -4.0790787 3.3067627 -7.385826 7.3858337 -7.385826l0 0c1.9588318 0 3.8374634 0.77814484 5.2225647 2.1632614c1.3851013 1.385109 2.163269 3.2637253 2.163269 5.2225647l0 0c0 4.0790787 -3.3067627 7.385826 -7.3858337 7.385826l0 0c-4.079071 0 -7.3858337 -3.3067474 -7.3858337 -7.385826z" fill-rule="evenodd"/><path fill="#3d85c6" d="m355.35696 185.4357l0 0c0 -4.0790863 3.3067322 -7.3858337 7.385803 -7.3858337l0 0c1.9588623 0 3.8374634 0.77815247 5.222595 2.163269c1.3851013 1.3851013 2.1632385 3.2637177 2.1632385 5.2225647l0 0c0 4.079071 -3.3067322 7.3858185 -7.3858337 7.3858185l0 0c-4.079071 0 -7.385803 -3.3067474 -7.385803 -7.3858185z" fill-rule="evenodd"/><path fill="#3d85c6" d="m433.53543 143.53018l0 0c0 -4.079071 3.3067627 -7.3858185 7.3858337 -7.3858185l0 0c1.9588318 0 3.8374634 0.7781372 5.2225647 2.1632538c1.3851013 1.3851166 2.163269 3.2637177 2.163269 5.2225647l0 0c0 4.0790863 -3.3067627 7.3858337 -7.3858337 7.3858337l0 0c-4.079071 0 -7.3858337 -3.3067474 -7.3858337 -7.3858337z" fill-rule="evenodd"/><path fill="#3d85c6" d="m515.3963 132.10236l0 0c0 -4.079071 3.3067627 -7.3858185 7.3858643 -7.3858185l0 0c1.9588013 0 3.8374634 0.77814484 5.222534 2.1632538c1.3851318 1.3851166 2.163269 3.263733 2.163269 5.2225647l0 0c0 4.0790863 -3.3067627 7.3858337 -7.385803 7.3858337l0 0c-4.0791016 0 -7.3858643 -3.3067474 -7.3858643 -7.3858337z" fill-rule="evenodd"/><path fill="#e69138" d="m390.86877 157.41208l0 0c0 -4.0790863 3.3067322 -7.3858337 7.3858337 -7.3858337l0 0c1.9588318 0 3.8374329 0.77815247 5.2225647 2.1632538c1.3851013 1.3851166 2.1632385 3.263733 2.1632385 5.22258l0 0c0 4.079071 -3.3067322 7.3858185 -7.385803 7.3858185l0 0c-4.0791016 0 -7.3858337 -3.3067474 -7.3858337 -7.3858185z" fill-rule="evenodd"/><path fill="#3d85c6" d="m384.90027 210.66142l0 0c0 -4.0790863 3.3067322 -7.3858337 7.3858337 -7.3858337l0 0c1.9588318 0 3.8374329 0.77815247 5.2225647 2.1632538c1.3851013 1.3851166 2.1632385 3.263733 2.1632385 5.22258l0 0c0 4.079071 -3.3067322 7.3858185 -7.385803 7.3858185l0 0c-4.0791016 0 -7.3858337 -3.3067474 -7.3858337 -7.3858185z" fill-rule="evenodd"/><path fill="#a64d79" d="m485.42783 160.9685l0 0c0 -4.0790863 3.3067322 -7.3858337 7.3858337 -7.3858337l0 0c1.9588318 0 3.8374329 0.77815247 5.2225647 2.163269c1.3851013 1.3851013 2.1632385 3.2637177 2.1632385 5.2225647l0 0c0 4.079071 -3.3067322 7.3858185 -7.385803 7.3858185l0 0c-4.0791016 0 -7.3858337 -3.3067474 -7.3858337 -7.3858185z" fill-rule="evenodd"/><path fill="#3d85c6" d="m454.86877 221.41208l0 0c0 -4.0790863 3.3067322 -7.3858337 7.3858337 -7.3858337l0 0c1.9588318 0 3.8374329 0.77815247 5.2225647 2.1632538c1.3851013 1.3851166 2.1632385 3.263733 2.1632385 5.22258l0 0c0 4.079071 -3.3067322 7.3858185 -7.385803 7.3858185l0 0c-4.0791016 0 -7.3858337 -3.3067474 -7.3858337 -7.3858185z" fill-rule="evenodd"/><path fill="#3d85c6" d="m494.57217 216.24934l0 0c0 -4.0790863 3.3067627 -7.3858337 7.3858337 -7.3858337l0 0c1.9588318 0 3.8374634 0.77815247 5.2225647 2.163269c1.3851013 1.3851013 2.163269 3.2637177 2.163269 5.2225647l0 0c0 4.0790863 -3.3067627 7.3858337 -7.3858337 7.3858337l0 0c-4.079071 0 -7.3858337 -3.3067474 -7.3858337 -7.3858337z" fill-rule="evenodd"/><path fill="#000000" fill-opacity="0.0" d="m219.86876 214.24147l-36.40944 5.9212646" fill-rule="evenodd"/><path stroke="#000000" stroke-width="1.0" stroke-linejoin="round" stroke-linecap="butt" d="m219.86876 214.24147l-36.40944 5.9212646" fill-rule="evenodd"/><path fill="#000000" fill-opacity="0.0" d="m112.35696 212.54855l55.02363 -29.637787" fill-rule="evenodd"/><path stroke="#000000" stroke-width="1.0" stroke-linejoin="round" stroke-linecap="butt" d="m112.35696 212.54855l55.02363 -29.637787" fill-rule="evenodd"/><path fill="#a61c00" d="m160.86089 184.63911l0 0c0 -4.0790863 3.3067474 -7.3858337 7.3858337 -7.3858337l0 0c1.958847 0 3.8374634 0.77815247 5.2225647 2.1632538c1.3851166 1.3851166 2.163269 3.263733 2.163269 5.22258l0 0c0 4.079071 -3.3067474 7.3858185 -7.3858337 7.3858185l0 0c-4.0790863 0 -7.3858337 -3.3067474 -7.3858337 -7.3858185z" fill-rule="evenodd"/><path fill="#000000" fill-opacity="0.0" d="m81.03412 187.99738l35.55906 -28.7874" fill-rule="evenodd"/><path stroke="#000000" stroke-width="1.0" stroke-linejoin="round" stroke-linecap="butt" d="m81.03412 187.99738l35.55906 -28.7874" fill-rule="evenodd"/><path fill="#000000" fill-opacity="0.0" d="m158.91602 146.51706l3.4015656 2.551178" fill-rule="evenodd"/><path stroke="#000000" stroke-width="1.0" stroke-linejoin="round" stroke-linecap="butt" d="m158.91602 146.51706l3.4015656 2.551178" fill-rule="evenodd"/><path fill="#000000" fill-opacity="0.0" d="m159.76378 97.414696l-1.7007904 46.551186" fill-rule="evenodd"/><path stroke="#000000" stroke-width="1.0" stroke-linejoin="round" stroke-linecap="butt" d="m159.76378 97.414696l-1.7007904 46.551186" fill-rule="evenodd"/><path fill="#000000" fill-opacity="0.0" d="m240.18636 134.66405l-28.7874 26.236221" fill-rule="evenodd"/><path stroke="#000000" stroke-width="1.0" stroke-linejoin="round" stroke-linecap="butt" d="m240.18636 134.66405l-28.7874 26.236221" fill-rule="evenodd"/><path fill="#3d85c6" d="m86.95538 124.83202l0 0c0 -4.0790787 3.3067474 -7.385826 7.385826 -7.385826l0 0c1.9588394 0 3.8374557 0.77814484 5.2225647 2.1632538c1.385109 1.385109 2.1632614 3.2637253 2.1632614 5.2225723l0 0c0 4.0790787 -3.3067474 7.385826 -7.385826 7.385826l0 0c-4.0790787 0 -7.385826 -3.3067474 -7.385826 -7.385826z" fill-rule="evenodd"/><path fill="#6aa84f" d="m150.3622 99.81628l0 0c0 -4.0790863 3.3067474 -7.3858337 7.3858337 -7.3858337l0 0c1.958847 0 3.8374634 0.77815247 5.2225647 2.1632614c1.3851166 1.385109 2.163269 3.2637253 2.163269 5.2225723l0 0c0 4.0790787 -3.3067474 7.385826 -7.3858337 7.385826l0 0c-4.0790863 0 -7.3858337 -3.3067474 -7.3858337 -7.385826z" fill-rule="evenodd"/><path fill="#3d85c6" d="m72.18372 187.60367l0 0c0 -4.079071 3.3067474 -7.3858185 7.3858337 -7.3858185l0 0c1.9588394 0 3.8374557 0.77815247 5.2225647 2.1632538c1.385109 1.3851166 2.1632614 3.263733 2.1632614 5.2225647l0 0c0 4.0790863 -3.3067474 7.3858337 -7.385826 7.3858337l0 0c-4.0790863 0 -7.3858337 -3.3067474 -7.3858337 -7.3858337z" fill-rule="evenodd"/><path fill="#3d85c6" d="m150.3622 145.69817l0 0c0 -4.0790863 3.3067474 -7.3858337 7.3858337 -7.3858337l0 0c1.958847 0 3.8374634 0.77815247 5.2225647 2.163269c1.3851166 1.3851013 2.163269 3.2637177 2.163269 5.2225647l0 0c0 4.079071 -3.3067474 7.3858185 -7.3858337 7.3858185l0 0c-4.0790863 0 -7.3858337 -3.3067474 -7.3858337 -7.3858185z" fill-rule="evenodd"/><path fill="#3d85c6" d="m232.2231 134.27034l0 0c0 -4.079071 3.3067474 -7.385826 7.3858185 -7.385826l0 0c1.958847 0 3.8374634 0.77814484 5.22258 2.1632614c1.3851013 1.3851166 2.1632538 3.2637177 2.1632538 5.2225647l0 0c0 4.0790863 -3.3067474 7.3858337 -7.3858337 7.3858337l0 0c-4.079071 0 -7.3858185 -3.3067474 -7.3858185 -7.3858337z" fill-rule="evenodd"/><path fill="#e69138" d="m107.69554 159.58005l0 0c0 -4.079071 3.3067474 -7.3858185 7.385826 -7.3858185l0 0c1.9588394 0 3.8374557 0.7781372 5.2225647 2.1632538c1.385109 1.3851166 2.1632614 3.263733 2.1632614 5.2225647l0 0c0 4.0790863 -3.3067474 7.3858337 -7.385826 7.3858337l0 0c-4.0790787 0 -7.385826 -3.3067474 -7.385826 -7.3858337z" fill-rule="evenodd"/><path fill="#674ea7" d="m101.727036 212.82939l0 0c0 -4.079071 3.3067474 -7.3858185 7.385826 -7.3858185l0 0c1.9588394 0 3.8374557 0.7781372 5.2225647 2.1632538c1.3851166 1.3851166 2.1632614 3.263733 2.1632614 5.2225647l0 0c0 4.0790863 -3.3067474 7.3858337 -7.385826 7.3858337l0 0c-4.0790787 0 -7.385826 -3.3067474 -7.385826 -7.3858337z" fill-rule="evenodd"/><path fill="#a64d79" d="m202.2546 163.13649l0 0c0 -4.0790863 3.3067474 -7.3858337 7.3858337 -7.3858337l0 0c1.9588318 0 3.8374481 0.77815247 5.2225647 2.1632538c1.3851013 1.3851166 2.1632538 3.263733 2.1632538 5.22258l0 0c0 4.079071 -3.3067474 7.3858185 -7.3858185 7.3858185l0 0c-4.0790863 0 -7.3858337 -3.3067474 -7.3858337 -7.3858185z" fill-rule="evenodd"/><path fill="#3d85c6" d="m171.69554 223.58005l0 0c0 -4.079071 3.3067474 -7.3858185 7.3858185 -7.3858185l0 0c1.958847 0 3.8374634 0.7781372 5.22258 2.1632538c1.3851013 1.3851166 2.1632538 3.263733 2.1632538 5.2225647l0 0c0 4.0790863 -3.3067474 7.3858337 -7.3858337 7.3858337l0 0c-4.079071 0 -7.3858185 -3.3067474 -7.3858185 -7.3858337z" fill-rule="evenodd"/><path fill="#45818e" d="m211.39896 218.41733l0 0c0 -4.0790863 3.3067474 -7.3858337 7.3858185 -7.3858337l0 0c1.958847 0 3.8374634 0.77815247 5.2225647 2.1632538c1.3851166 1.3851166 2.163269 3.263733 2.163269 5.22258l0 0c0 4.079071 -3.3067474 7.3858185 -7.3858337 7.3858185l0 0c-4.079071 0 -7.3858185 -3.3067474 -7.3858185 -7.3858185z" fill-rule="evenodd"/><path fill="#000000" fill-opacity="0.0" d="m360.34122 9.847769l188.37796 0l0 64.62992l-188.37796 0z" fill-rule="evenodd"/><path fill="#000000" d="m371.0756 36.76777l0 -13.359377l1.765625 0l0 13.359377l-1.765625 0zm4.6832886 0l0 -9.671877l1.46875 0l0 1.375q1.0625 -1.59375 3.078125 -1.59375q0.875 0 1.609375 0.3125q0.734375 0.3125 1.09375 0.828125q0.375 0.5 0.515625 1.203125q0.09375 0.453125 0.09375 1.59375l0 5.953127l-1.640625 0l0 -5.890627q0 -1.0 -0.203125 -1.484375q-0.1875 -0.5 -0.671875 -0.796875q-0.484375 -0.296875 -1.140625 -0.296875q-1.046875 0 -1.8125 0.671875q-0.75 0.65625 -0.75 2.515625l0 5.281252l-1.640625 0zm16.688232 -3.546875l1.609375 0.21875q-0.265625 1.65625 -1.359375 2.609375q-1.078125 0.9375 -2.671875 0.9375q-1.984375 0 -3.1875 -1.296875q-1.203125 -1.296875 -1.203125 -3.718752q0 -1.578125 0.515625 -2.75q0.515625 -1.171875 1.578125 -1.75q1.0625 -0.59375 2.3125 -0.59375q1.578125 0 2.578125 0.796875q1.0 0.796875 1.28125 2.265625l-1.59375 0.234375q-0.234375 -0.96875 -0.8125 -1.453125q-0.578125 -0.5 -1.390625 -0.5q-1.234375 0 -2.015625 0.890625q-0.78125 0.890625 -0.78125 2.8125q0 1.9531269 0.75 2.843752q0.75 0.875 1.953125 0.875q0.96875 0 1.609375 -0.59375q0.65625 -0.59375 0.828125 -1.828125zm3.0 3.546875l0 -9.671877l1.46875 0l0 1.46875q0.5625 -1.03125 1.03125 -1.359375q0.484375 -0.328125 1.0625 -0.328125q0.828125 0 1.6875 0.53125l-0.5625 1.515625q-0.609375 -0.359375 -1.203125 -0.359375q-0.546875 0 -0.96875 0.328125q-0.421875 0.328125 -0.609375 0.890625q-0.28125 0.875 -0.28125 1.921875l0 5.062502l-1.625 0zm12.853302 -3.109375l1.6875 0.203125q-0.40625 1.484375 -1.484375 2.3125q-1.078125 0.8125 -2.765625 0.8125q-2.125 0 -3.375 -1.296875q-1.234375 -1.3125 -1.234375 -3.671875q0 -2.453127 1.25 -3.796877q1.265625 -1.34375 3.265625 -1.34375q1.9375 0 3.15625 1.328125q1.234375 1.3125 1.234375 3.703125q0 0.1562519 0 0.4375019l-7.21875 0q0.09375 1.59375 0.90625 2.453125q0.8125 0.84375 2.015625 0.84375q0.90625 0 1.546875 -0.46875q0.640625 -0.484375 1.015625 -1.515625zm-5.390625 -2.656252l5.40625 0q-0.109375 -1.21875 -0.625 -1.828125q-0.78125 -0.953125 -2.03125 -0.953125q-1.125 0 -1.90625 0.765625q-0.765625 0.75 -0.84375 2.015625zm15.453827 4.578127q-0.921875 0.765625 -1.765625 1.09375q-0.828125 0.3125 -1.796875 0.3125q-1.59375 0 -2.453125 -0.78125q-0.859375 -0.78125 -0.859375 -1.984375q0 -0.71875 0.328125 -1.296875q0.328125 -0.59375 0.84375 -0.9375019q0.53125 -0.359375 1.1875 -0.546875q0.46875 -0.125 1.453125 -0.25q1.984375 -0.234375 2.921875 -0.5625q0.015625 -0.34375 0.015625 -0.421875q0 -1.0 -0.46875 -1.421875q-0.625 -0.546875 -1.875 -0.546875q-1.15625 0 -1.703125 0.40625q-0.546875 0.40625 -0.8125 1.421875l-1.609375 -0.21875q0.21875 -1.015625 0.71875 -1.640625q0.5 -0.640625 1.453125 -0.984375q0.953125 -0.34375 2.1875 -0.34375q1.25 0 2.015625 0.296875q0.78125 0.28125 1.140625 0.734375q0.375 0.4375 0.515625 1.109375q0.078125 0.421875 0.078125 1.515625l0 2.187502q0 2.28125 0.109375 2.890625q0.109375 0.59375 0.40625 1.15625l-1.703125 0q-0.265625 -0.515625 -0.328125 -1.1875zm-0.140625 -3.671877q-0.890625 0.3750019 -2.671875 0.6250019q-1.015625 0.140625 -1.4375 0.328125q-0.421875 0.1875 -0.65625 0.53125q-0.21875 0.34375 -0.21875 0.78125q0 0.65625 0.5 1.09375q0.5 0.4375 1.453125 0.4375q0.9375 0 1.671875 -0.40625q0.75 -0.421875 1.09375 -1.140625q0.265625 -0.5625 0.265625 -1.640625l0 -0.6093769zm3.5476074 1.9687519l1.625 -0.25q0.125 0.96875 0.75 1.5q0.625 0.515625 1.75 0.515625q1.125 0 1.671875 -0.453125q0.546875 -0.46875 0.546875 -1.09375q0 -0.546875 -0.484375 -0.875q-0.328125 -0.21875 -1.671875 -0.546875q-1.8125 -0.46875 -2.515625 -0.7968769q-0.6875 -0.328125 -1.046875 -0.90625q-0.359375 -0.59375 -0.359375 -1.3125q0 -0.640625 0.296875 -1.1875q0.296875 -0.5625 0.8125 -0.921875q0.375 -0.28125 1.03125 -0.46875q0.671875 -0.203125 1.421875 -0.203125q1.140625 0 2.0 0.328125q0.859375 0.328125 1.265625 0.890625q0.421875 0.5625 0.578125 1.5l-1.609375 0.21875q-0.109375 -0.75 -0.640625 -1.171875q-0.515625 -0.421875 -1.46875 -0.421875q-1.140625 0 -1.625 0.375q-0.46875 0.375 -0.46875 0.875q0 0.3125 0.1875 0.578125q0.203125 0.265625 0.640625 0.4375q0.234375 0.09375 1.4375 0.421875q1.75 0.453125 2.4375 0.75q0.6875 0.296875 1.078125 0.8593769q0.390625 0.5625 0.390625 1.40625q0 0.828125 -0.484375 1.546875q-0.46875 0.71875 -1.375 1.125q-0.90625 0.390625 -2.046875 0.390625q-1.875 0 -2.875 -0.78125q-0.984375 -0.78125 -1.25 -2.328125zm9.984375 -8.578127l0 -1.890625l1.640625 0l0 1.890625l-1.640625 0zm0 11.468752l0 -9.671877l1.640625 0l0 9.671877l-1.640625 0zm4.144806 0l0 -9.671877l1.46875 0l0 1.375q1.0625 -1.59375 3.078125 -1.59375q0.875 0 1.609375 0.3125q0.734375 0.3125 1.09375 0.828125q0.375 0.5 0.515625 1.203125q0.09375 0.453125 0.09375 1.59375l0 5.953127l-1.640625 0l0 -5.890627q0 -1.0 -0.203125 -1.484375q-0.1875 -0.5 -0.671875 -0.796875q-0.484375 -0.296875 -1.140625 -0.296875q-1.046875 0 -1.8125 0.671875q-0.75 0.65625 -0.75 2.515625l0 5.281252l-1.640625 0zm10.063232 0.796875l1.59375 0.234375q0.109375 0.75 0.5625 1.078125q0.609375 0.453125 1.671875 0.453125q1.140625 0 1.75 -0.453125q0.625 -0.453125 0.84375 -1.265625q0.125 -0.5 0.109375 -2.109375q-1.0625 1.265625 -2.671875 1.265625q-2.0 0 -3.09375 -1.4375q-1.09375 -1.4375 -1.09375 -3.453127q0 -1.390625 0.5 -2.5625q0.515625 -1.171875 1.453125 -1.796875q0.953125 -0.640625 2.25 -0.640625q1.703125 0 2.8125 1.375l0 -1.15625l1.515625 0l0 8.359377q0 2.265625 -0.46875 3.203125q-0.453125 0.9375 -1.453125 1.484375q-0.984375 0.546875 -2.453125 0.546875q-1.71875 0 -2.796875 -0.78125q-1.0625 -0.765625 -1.03125 -2.34375zm1.359375 -5.812502q0 1.9062519 0.75 2.781252q0.765625 0.875 1.90625 0.875q1.125 0 1.890625 -0.859375q0.765625 -0.875 0.765625 -2.734377q0 -1.78125 -0.796875 -2.671875q-0.78125 -0.90625 -1.890625 -0.90625q-1.09375 0 -1.859375 0.890625q-0.765625 0.875 -0.765625 2.625zm21.137146 1.9062519l1.6875 0.203125q-0.40625 1.484375 -1.484375 2.3125q-1.078125 0.8125 -2.765625 0.8125q-2.125 0 -3.375 -1.296875q-1.234375 -1.3125 -1.234375 -3.671875q0 -2.453127 1.25 -3.796877q1.265625 -1.34375 3.265625 -1.34375q1.9375 0 3.15625 1.328125q1.234375 1.3125 1.234375 3.703125q0 0.1562519 0 0.4375019l-7.21875 0q0.09375 1.59375 0.90625 2.453125q0.8125 0.84375 2.015625 0.84375q0.90625 0 1.546875 -0.46875q0.640625 -0.484375 1.015625 -1.515625zm-5.390625 -2.656252l5.40625 0q-0.109375 -1.21875 -0.625 -1.828125q-0.78125 -0.953125 -2.03125 -0.953125q-1.125 0 -1.90625 0.765625q-0.765625 0.75 -0.84375 2.015625zm9.531952 5.765627l0 -8.406252l-1.453125 0l0 -1.265625l1.453125 0l0 -1.03125q0 -0.96875 0.171875 -1.453125q0.234375 -0.640625 0.828125 -1.03125q0.59375 -0.390625 1.671875 -0.390625q0.6875 0 1.53125 0.15625l-0.25 1.4375q-0.5 -0.09375 -0.953125 -0.09375q-0.75 0 -1.0625 0.328125q-0.3125 0.3125 -0.3125 1.1875l0 0.890625l1.890625 0l0 1.265625l-1.890625 0l0 8.406252l-1.625 0zm4.8460693 0l0 -8.406252l-1.453125 0l0 -1.265625l1.453125 0l0 -1.03125q0 -0.96875 0.171875 -1.453125q0.234375 -0.640625 0.828125 -1.03125q0.59375 -0.390625 1.671875 -0.390625q0.6875 0 1.53125 0.15625l-0.25 1.4375q-0.5 -0.09375 -0.953125 -0.09375q-0.75 0 -1.0625 0.328125q-0.3125 0.3125 -0.3125 1.1875l0 0.890625l1.890625 0l0 1.265625l-1.890625 0l0 8.406252l-1.625 0zm4.792694 -11.468752l0 -1.890625l1.640625 0l0 1.890625l-1.640625 0zm0 11.468752l0 -9.671877l1.640625 0l0 9.671877l-1.640625 0zm10.457306 -3.546875l1.609375 0.21875q-0.265625 1.65625 -1.359375 2.609375q-1.078125 0.9375 -2.671875 0.9375q-1.984375 0 -3.1875 -1.296875q-1.203125 -1.296875 -1.203125 -3.718752q0 -1.578125 0.515625 -2.75q0.515625 -1.171875 1.578125 -1.75q1.0625 -0.59375 2.3125 -0.59375q1.578125 0 2.578125 0.796875q1.0 0.796875 1.28125 2.265625l-1.59375 0.234375q-0.234375 -0.96875 -0.8125 -1.453125q-0.578125 -0.5 -1.390625 -0.5q-1.234375 0 -2.015625 0.890625q-0.78125 0.890625 -0.78125 2.8125q0 1.9531269 0.75 2.843752q0.75 0.875 1.953125 0.875q0.96875 0 1.609375 -0.59375q0.65625 -0.59375 0.828125 -1.828125zm3.015625 -7.921877l0 -1.890625l1.640625 0l0 1.890625l-1.640625 0zm0 11.468752l0 -9.671877l1.640625 0l0 9.671877l-1.640625 0zm10.769836 -3.109375l1.6875 0.203125q-0.40625 1.484375 -1.484375 2.3125q-1.078125 0.8125 -2.765625 0.8125q-2.125 0 -3.375 -1.296875q-1.234375 -1.3125 -1.234375 -3.671875q0 -2.453127 1.25 -3.796877q1.265625 -1.34375 3.265625 -1.34375q1.9375 0 3.15625 1.328125q1.234375 1.3125 1.234375 3.703125q0 0.1562519 0 0.4375019l-7.21875 0q0.09375 1.59375 0.90625 2.453125q0.8125 0.84375 2.015625 0.84375q0.90625 0 1.546875 -0.46875q0.640625 -0.484375 1.015625 -1.515625zm-5.390625 -2.656252l5.40625 0q-0.109375 -1.21875 -0.625 -1.828125q-0.78125 -0.953125 -2.03125 -0.953125q-1.125 0 -1.90625 0.765625q-0.765625 0.75 -0.84375 2.015625zm9.141327 5.765627l0 -9.671877l1.46875 0l0 1.375q1.0625 -1.59375 3.078125 -1.59375q0.875 0 1.609375 0.3125q0.734375 0.3125 1.09375 0.828125q0.375 0.5 0.515625 1.203125q0.09375 0.453125 0.09375 1.59375l0 5.953127l-1.640625 0l0 -5.890627q0 -1.0 -0.203125 -1.484375q-0.1875 -0.5 -0.671875 -0.796875q-0.484375 -0.296875 -1.140625 -0.296875q-1.046875 0 -1.8125 0.671875q-0.75 0.65625 -0.75 2.515625l0 5.281252l-1.640625 0zm16.688232 -3.546875l1.609375 0.21875q-0.265625 1.65625 -1.359375 2.609375q-1.078125 0.9375 -2.671875 0.9375q-1.984375 0 -3.1875 -1.296875q-1.203125 -1.296875 -1.203125 -3.718752q0 -1.578125 0.515625 -2.75q0.515625 -1.171875 1.578125 -1.75q1.0625 -0.59375 2.3125 -0.59375q1.578125 0 2.578125 0.796875q1.0 0.796875 1.28125 2.265625l-1.59375 0.234375q-0.234375 -0.96875 -0.8125 -1.453125q-0.578125 -0.5 -1.390625 -0.5q-1.234375 0 -2.015625 0.890625q-0.78125 0.890625 -0.78125 2.8125q0 1.9531269 0.75 2.843752q0.75 0.875 1.953125 0.875q0.96875 0 1.609375 -0.59375q0.65625 -0.59375 0.828125 -1.828125zm2.9375 7.265625l-0.1875 -1.53125q0.546875 0.140625 0.9375 0.140625q0.546875 0 0.875 -0.1875q0.328125 -0.171875 0.546875 -0.5q0.15625 -0.25 0.5 -1.21875q0.046875 -0.140625 0.140625 -0.40625l-3.671875 -9.687502l1.765625 0l2.015625 5.593752q0.390625 1.078125 0.703125 2.25q0.28125 -1.125 0.671875 -2.203125l2.078125 -5.640627l1.640625 0l-3.6875 9.828127q-0.59375 1.609375 -0.921875 2.203125q-0.4375 0.8125 -1.0 1.1875q-0.5625 0.375 -1.34375 0.375q-0.484375 0 -1.0625 -0.203125z" fill-rule="nonzero"/><path fill="#000000" d="m371.0756 59.167767l0 -13.359375l1.765625 0l0 13.359375l-1.765625 0zm4.6832886 0l0 -9.671875l1.46875 0l0 1.375q1.0625 -1.59375 3.078125 -1.59375q0.875 0 1.609375 0.3125q0.734375 0.3125 1.09375 0.828125q0.375 0.5 0.515625 1.203125q0.09375 0.453125 0.09375 1.59375l0 5.953125l-1.640625 0l0 -5.890625q0 -1.0 -0.203125 -1.484375q-0.1875 -0.5 -0.671875 -0.796875q-0.484375 -0.296875 -1.140625 -0.296875q-1.046875 0 -1.8125 0.671875q-0.75 0.65625 -0.75 2.515625l0 5.28125l-1.640625 0zm16.688232 -3.546875l1.609375 0.21875q-0.265625 1.65625 -1.359375 2.609375q-1.078125 0.9375 -2.671875 0.9375q-1.984375 0 -3.1875 -1.296875q-1.203125 -1.296875 -1.203125 -3.71875q0 -1.578125 0.515625 -2.75q0.515625 -1.171875 1.578125 -1.75q1.0625 -0.59375 2.3125 -0.59375q1.578125 0 2.578125 0.796875q1.0 0.796875 1.28125 2.265625l-1.59375 0.234375q-0.234375 -0.96875 -0.8125 -1.453125q-0.578125 -0.5 -1.390625 -0.5q-1.234375 0 -2.015625 0.890625q-0.78125 0.890625 -0.78125 2.8125q0 1.953125 0.75 2.84375q0.75 0.875 1.953125 0.875q0.96875 0 1.609375 -0.59375q0.65625 -0.59375 0.828125 -1.828125zm3.0 3.546875l0 -9.671875l1.46875 0l0 1.46875q0.5625 -1.03125 1.03125 -1.359375q0.484375 -0.328125 1.0625 -0.328125q0.828125 0 1.6875 0.53125l-0.5625 1.515625q-0.609375 -0.359375 -1.203125 -0.359375q-0.546875 0 -0.96875 0.328125q-0.421875 0.328125 -0.609375 0.890625q-0.28125 0.875 -0.28125 1.921875l0 5.0625l-1.625 0zm12.853302 -3.109375l1.6875 0.203125q-0.40625 1.484375 -1.484375 2.3125q-1.078125 0.8125 -2.765625 0.8125q-2.125 0 -3.375 -1.296875q-1.234375 -1.3125 -1.234375 -3.671875q0 -2.453125 1.25 -3.796875q1.265625 -1.34375 3.265625 -1.34375q1.9375 0 3.15625 1.328125q1.234375 1.3125 1.234375 3.703125q0 0.15625 0 0.4375l-7.21875 0q0.09375 1.59375 0.90625 2.453125q0.8125 0.84375 2.015625 0.84375q0.90625 0 1.546875 -0.46875q0.640625 -0.484375 1.015625 -1.515625zm-5.390625 -2.65625l5.40625 0q-0.109375 -1.21875 -0.625 -1.828125q-0.78125 -0.953125 -2.03125 -0.953125q-1.125 0 -1.90625 0.765625q-0.765625 0.75 -0.84375 2.015625zm15.453827 4.578125q-0.921875 0.765625 -1.765625 1.09375q-0.828125 0.3125 -1.796875 0.3125q-1.59375 0 -2.453125 -0.78125q-0.859375 -0.78125 -0.859375 -1.984375q0 -0.71875 0.328125 -1.296875q0.328125 -0.59375 0.84375 -0.9375q0.53125 -0.359375 1.1875 -0.546875q0.46875 -0.125 1.453125 -0.25q1.984375 -0.234375 2.921875 -0.5625q0.015625 -0.34375 0.015625 -0.421875q0 -1.0 -0.46875 -1.421875q-0.625 -0.546875 -1.875 -0.546875q-1.15625 0 -1.703125 0.40625q-0.546875 0.40625 -0.8125 1.421875l-1.609375 -0.21875q0.21875 -1.015625 0.71875 -1.640625q0.5 -0.640625 1.453125 -0.984375q0.953125 -0.34375 2.1875 -0.34375q1.25 0 2.015625 0.296875q0.78125 0.28125 1.140625 0.734375q0.375 0.4375 0.515625 1.109375q0.078125 0.421875 0.078125 1.515625l0 2.1875q0 2.28125 0.109375 2.890625q0.109375 0.59375 0.40625 1.15625l-1.703125 0q-0.265625 -0.515625 -0.328125 -1.1875zm-0.140625 -3.671875q-0.890625 0.375 -2.671875 0.625q-1.015625 0.140625 -1.4375 0.328125q-0.421875 0.1875 -0.65625 0.53125q-0.21875 0.34375 -0.21875 0.78125q0 0.65625 0.5 1.09375q0.5 0.4375 1.453125 0.4375q0.9375 0 1.671875 -0.40625q0.75 -0.421875 1.09375 -1.140625q0.265625 -0.5625 0.265625 -1.640625l0 -0.609375zm3.5476074 1.96875l1.625 -0.25q0.125 0.96875 0.75 1.5q0.625 0.515625 1.75 0.515625q1.125 0 1.671875 -0.453125q0.546875 -0.46875 0.546875 -1.09375q0 -0.546875 -0.484375 -0.875q-0.328125 -0.21875 -1.671875 -0.546875q-1.8125 -0.46875 -2.515625 -0.796875q-0.6875 -0.328125 -1.046875 -0.90625q-0.359375 -0.59375 -0.359375 -1.3125q0 -0.640625 0.296875 -1.1875q0.296875 -0.5625 0.8125 -0.921875q0.375 -0.28125 1.03125 -0.46875q0.671875 -0.203125 1.421875 -0.203125q1.140625 0 2.0 0.328125q0.859375 0.328125 1.265625 0.890625q0.421875 0.5625 0.578125 1.5l-1.609375 0.21875q-0.109375 -0.75 -0.640625 -1.171875q-0.515625 -0.421875 -1.46875 -0.421875q-1.140625 0 -1.625 0.375q-0.46875 0.375 -0.46875 0.875q0 0.3125 0.1875 0.578125q0.203125 0.265625 0.640625 0.4375q0.234375 0.09375 1.4375 0.421875q1.75 0.453125 2.4375 0.75q0.6875 0.296875 1.078125 0.859375q0.390625 0.5625 0.390625 1.40625q0 0.828125 -0.484375 1.546875q-0.46875 0.71875 -1.375 1.125q-0.90625 0.390625 -2.046875 0.390625q-1.875 0 -2.875 -0.78125q-0.984375 -0.78125 -1.25 -2.328125zm9.984375 -8.578125l0 -1.890625l1.640625 0l0 1.890625l-1.640625 0zm0 11.46875l0 -9.671875l1.640625 0l0 9.671875l-1.640625 0zm4.144806 0l0 -9.671875l1.46875 0l0 1.375q1.0625 -1.59375 3.078125 -1.59375q0.875 0 1.609375 0.3125q0.734375 0.3125 1.09375 0.828125q0.375 0.5 0.515625 1.203125q0.09375 0.453125 0.09375 1.59375l0 5.953125l-1.640625 0l0 -5.890625q0 -1.0 -0.203125 -1.484375q-0.1875 -0.5 -0.671875 -0.796875q-0.484375 -0.296875 -1.140625 -0.296875q-1.046875 0 -1.8125 0.671875q-0.75 0.65625 -0.75 2.515625l0 5.28125l-1.640625 0zm10.063232 0.796875l1.59375 0.234375q0.109375 0.75 0.5625 1.078125q0.609375 0.453125 1.671875 0.453125q1.140625 0 1.75 -0.453125q0.625 -0.453125 0.84375 -1.265625q0.125 -0.5 0.109375 -2.109375q-1.0625 1.265625 -2.671875 1.265625q-2.0 0 -3.09375 -1.4375q-1.09375 -1.4375 -1.09375 -3.453125q0 -1.390625 0.5 -2.5625q0.515625 -1.171875 1.453125 -1.796875q0.953125 -0.640625 2.25 -0.640625q1.703125 0 2.8125 1.375l0 -1.15625l1.515625 0l0 8.359375q0 2.265625 -0.46875 3.203125q-0.453125 0.9375 -1.453125 1.484375q-0.984375 0.546875 -2.453125 0.546875q-1.71875 0 -2.796875 -0.78125q-1.0625 -0.765625 -1.03125 -2.34375zm1.359375 -5.8125q0 1.90625 0.75 2.78125q0.765625 0.875 1.90625 0.875q1.125 0 1.890625 -0.859375q0.765625 -0.875 0.765625 -2.734375q0 -1.78125 -0.796875 -2.671875q-0.78125 -0.90625 -1.890625 -0.90625q-1.09375 0 -1.859375 0.890625q-0.765625 0.875 -0.765625 2.625zm14.809021 5.015625l0 -13.359375l9.015625 0l0 1.578125l-7.25 0l0 4.140625l6.265625 0l0 1.578125l-6.265625 0l0 6.0625l-1.765625 0zm11.083466 0l0 -9.671875l1.46875 0l0 1.46875q0.5625 -1.03125 1.03125 -1.359375q0.484375 -0.328125 1.0625 -0.328125q0.828125 0 1.6875 0.53125l-0.5625 1.515625q-0.609375 -0.359375 -1.203125 -0.359375q-0.546875 0 -0.96875 0.328125q-0.421875 0.328125 -0.609375 0.890625q-0.28125 0.875 -0.28125 1.921875l0 5.0625l-1.625 0zm12.540802 -1.1875q-0.921875 0.765625 -1.765625 1.09375q-0.828125 0.3125 -1.796875 0.3125q-1.59375 0 -2.453125 -0.78125q-0.859375 -0.78125 -0.859375 -1.984375q0 -0.71875 0.328125 -1.296875q0.328125 -0.59375 0.84375 -0.9375q0.53125 -0.359375 1.1875 -0.546875q0.46875 -0.125 1.453125 -0.25q1.984375 -0.234375 2.921875 -0.5625q0.015625 -0.34375 0.015625 -0.421875q0 -1.0 -0.46875 -1.421875q-0.625 -0.546875 -1.875 -0.546875q-1.15625 0 -1.703125 0.40625q-0.546875 0.40625 -0.8125 1.421875l-1.609375 -0.21875q0.21875 -1.015625 0.71875 -1.640625q0.5 -0.640625 1.453125 -0.984375q0.953125 -0.34375 2.1875 -0.34375q1.25 0 2.015625 0.296875q0.78125 0.28125 1.140625 0.734375q0.375 0.4375 0.515625 1.109375q0.078125 0.421875 0.078125 1.515625l0 2.1875q0 2.28125 0.109375 2.890625q0.109375 0.59375 0.40625 1.15625l-1.703125 0q-0.265625 -0.515625 -0.328125 -1.1875zm-0.140625 -3.671875q-0.890625 0.375 -2.671875 0.625q-1.015625 0.140625 -1.4375 0.328125q-0.421875 0.1875 -0.65625 0.53125q-0.21875 0.34375 -0.21875 0.78125q0 0.65625 0.5 1.09375q0.5 0.4375 1.453125 0.4375q0.9375 0 1.671875 -0.40625q0.75 -0.421875 1.09375 -1.140625q0.265625 -0.5625 0.265625 -1.640625l0 -0.609375zm3.8913574 5.65625l1.59375 0.234375q0.109375 0.75 0.5625 1.078125q0.609375 0.453125 1.671875 0.453125q1.140625 0 1.75 -0.453125q0.625 -0.453125 0.84375 -1.265625q0.125 -0.5 0.109375 -2.109375q-1.0625 1.265625 -2.671875 1.265625q-2.0 0 -3.09375 -1.4375q-1.09375 -1.4375 -1.09375 -3.453125q0 -1.390625 0.5 -2.5625q0.515625 -1.171875 1.453125 -1.796875q0.953125 -0.640625 2.25 -0.640625q1.703125 0 2.8125 1.375l0 -1.15625l1.515625 0l0 8.359375q0 2.265625 -0.46875 3.203125q-0.453125 0.9375 -1.453125 1.484375q-0.984375 0.546875 -2.453125 0.546875q-1.71875 0 -2.796875 -0.78125q-1.0625 -0.765625 -1.03125 -2.34375zm1.359375 -5.8125q0 1.90625 0.75 2.78125q0.765625 0.875 1.90625 0.875q1.125 0 1.890625 -0.859375q0.765625 -0.875 0.765625 -2.734375q0 -1.78125 -0.796875 -2.671875q-0.78125 -0.90625 -1.890625 -0.90625q-1.09375 0 -1.859375 0.890625q-0.765625 0.875 -0.765625 2.625zm9.328827 -6.453125l0 -1.890625l1.640625 0l0 1.890625l-1.640625 0zm0 11.46875l0 -9.671875l1.640625 0l0 9.671875l-1.640625 0zm4.0979614 0l0 -13.359375l1.640625 0l0 13.359375l-1.640625 0zm4.191681 -11.46875l0 -1.890625l1.640625 0l0 1.890625l-1.640625 0zm0 11.46875l0 -9.671875l1.640625 0l0 9.671875l-1.640625 0zm7.7229614 -1.46875l0.234375 1.453125q-0.6875 0.140625 -1.234375 0.140625q-0.890625 0 -1.390625 -0.28125q-0.484375 -0.28125 -0.6875 -0.734375q-0.203125 -0.46875 -0.203125 -1.9375l0 -5.578125l-1.203125 0l0 -1.265625l1.203125 0l0 -2.390625l1.625 -0.984375l0 3.375l1.65625 0l0 1.265625l-1.65625 0l0 5.671875q0 0.6875 0.078125 0.890625q0.09375 0.203125 0.28125 0.328125q0.203125 0.109375 0.578125 0.109375q0.265625 0 0.71875 -0.0625zm1.5270386 5.1875l-0.1875 -1.53125q0.546875 0.140625 0.9375 0.140625q0.546875 0 0.875 -0.1875q0.328125 -0.171875 0.546875 -0.5q0.15625 -0.25 0.5 -1.21875q0.046875 -0.140625 0.140625 -0.40625l-3.671875 -9.6875l1.765625 0l2.015625 5.59375q0.390625 1.078125 0.703125 2.25q0.28125 -1.125 0.671875 -2.203125l2.078125 -5.640625l1.640625 0l-3.6875 9.828125q-0.59375 1.609375 -0.921875 2.203125q-0.4375 0.8125 -1.0 1.1875q-0.5625 0.375 -1.34375 0.375q-0.484375 0 -1.0625 -0.203125z" fill-rule="nonzero"/><path fill="#000000" fill-opacity="0.0" d="m360.34122 249.84776l194.58267 0l0 42.015762l-194.58267 0z" fill-rule="evenodd"/><path fill="#000000" d="m370.77872 276.76776l0 -13.359375l4.609375 0q1.546875 0 2.375 0.203125q1.140625 0.25 1.953125 0.953125q1.0625 0.890625 1.578125 2.28125q0.53125 1.390625 0.53125 3.171875q0 1.515625 -0.359375 2.703125q-0.359375 1.171875 -0.921875 1.9375q-0.546875 0.765625 -1.203125 1.21875q-0.65625 0.4375 -1.59375 0.671875q-0.9375 0.21875 -2.140625 0.21875l-4.828125 0zm1.765625 -1.578125l2.859375 0q1.3125 0 2.0625 -0.234375q0.75 -0.25 1.203125 -0.703125q0.625 -0.625 0.96875 -1.6875q0.359375 -1.0625 0.359375 -2.578125q0 -2.09375 -0.6875 -3.21875q-0.6875 -1.125 -1.671875 -1.5q-0.703125 -0.28125 -2.28125 -0.28125l-2.8125 0l0 10.203125zm18.12918 -1.53125l1.6875 0.203125q-0.40625 1.484375 -1.484375 2.3125q-1.078125 0.8125 -2.765625 0.8125q-2.125 0 -3.375 -1.296875q-1.234375 -1.3125 -1.234375 -3.671875q0 -2.453125 1.25 -3.796875q1.265625 -1.34375 3.265625 -1.34375q1.9375 0 3.15625 1.328125q1.234375 1.3125 1.234375 3.703125q0 0.15625 0 0.4375l-7.21875 0q0.09375 1.59375 0.90625 2.453125q0.8125 0.84375 2.015625 0.84375q0.90625 0 1.546875 -0.46875q0.640625 -0.484375 1.015625 -1.515625zm-5.390625 -2.65625l5.40625 0q-0.109375 -1.21875 -0.625 -1.828125q-0.78125 -0.953125 -2.03125 -0.953125q-1.125 0 -1.90625 0.765625q-0.765625 0.75 -0.84375 2.015625zm15.453857 2.21875l1.609375 0.21875q-0.265625 1.65625 -1.359375 2.609375q-1.078125 0.9375 -2.671875 0.9375q-1.984375 0 -3.1875 -1.296875q-1.203125 -1.296875 -1.203125 -3.71875q0 -1.578125 0.515625 -2.75q0.515625 -1.171875 1.578125 -1.75q1.0625 -0.59375 2.3125 -0.59375q1.578125 0 2.578125 0.796875q1.0 0.796875 1.28125 2.265625l-1.59375 0.234375q-0.234375 -0.96875 -0.8125 -1.453125q-0.578125 -0.5 -1.390625 -0.5q-1.234375 0 -2.015625 0.890625q-0.78125 0.890625 -0.78125 2.8125q0 1.953125 0.75 2.84375q0.75 0.875 1.953125 0.875q0.96875 0 1.609375 -0.59375q0.65625 -0.59375 0.828125 -1.828125zm3.0 3.546875l0 -9.671875l1.46875 0l0 1.46875q0.5625 -1.03125 1.03125 -1.359375q0.484375 -0.328125 1.0625 -0.328125q0.828125 0 1.6875 0.53125l-0.5625 1.515625q-0.609375 -0.359375 -1.203125 -0.359375q-0.546875 0 -0.96875 0.328125q-0.421875 0.328125 -0.609375 0.890625q-0.28125 0.875 -0.28125 1.921875l0 5.0625l-1.625 0zm12.853302 -3.109375l1.6875 0.203125q-0.40625 1.484375 -1.484375 2.3125q-1.078125 0.8125 -2.765625 0.8125q-2.125 0 -3.375 -1.296875q-1.234375 -1.3125 -1.234375 -3.671875q0 -2.453125 1.25 -3.796875q1.265625 -1.34375 3.265625 -1.34375q1.9375 0 3.15625 1.328125q1.234375 1.3125 1.234375 3.703125q0 0.15625 0 0.4375l-7.21875 0q0.09375 1.59375 0.90625 2.453125q0.8125 0.84375 2.015625 0.84375q0.90625 0 1.546875 -0.46875q0.640625 -0.484375 1.015625 -1.515625zm-5.390625 -2.65625l5.40625 0q-0.109375 -1.21875 -0.625 -1.828125q-0.78125 -0.953125 -2.03125 -0.953125q-1.125 0 -1.90625 0.765625q-0.765625 0.75 -0.84375 2.015625zm15.453827 4.578125q-0.921875 0.765625 -1.765625 1.09375q-0.828125 0.3125 -1.796875 0.3125q-1.59375 0 -2.453125 -0.78125q-0.859375 -0.78125 -0.859375 -1.984375q0 -0.71875 0.328125 -1.296875q0.328125 -0.59375 0.84375 -0.9375q0.53125 -0.359375 1.1875 -0.546875q0.46875 -0.125 1.453125 -0.25q1.984375 -0.234375 2.921875 -0.5625q0.015625 -0.34375 0.015625 -0.421875q0 -1.0 -0.46875 -1.421875q-0.625 -0.546875 -1.875 -0.546875q-1.15625 0 -1.703125 0.40625q-0.546875 0.40625 -0.8125 1.421875l-1.609375 -0.21875q0.21875 -1.015625 0.71875 -1.640625q0.5 -0.640625 1.453125 -0.984375q0.953125 -0.34375 2.1875 -0.34375q1.25 0 2.015625 0.296875q0.78125 0.28125 1.140625 0.734375q0.375 0.4375 0.515625 1.109375q0.078125 0.421875 0.078125 1.515625l0 2.1875q0 2.28125 0.109375 2.890625q0.109375 0.59375 0.40625 1.15625l-1.703125 0q-0.265625 -0.515625 -0.328125 -1.1875zm-0.140625 -3.671875q-0.890625 0.375 -2.671875 0.625q-1.015625 0.140625 -1.4375 0.328125q-0.421875 0.1875 -0.65625 0.53125q-0.21875 0.34375 -0.21875 0.78125q0 0.65625 0.5 1.09375q0.5 0.4375 1.453125 0.4375q0.9375 0 1.671875 -0.40625q0.75 -0.421875 1.09375 -1.140625q0.265625 -0.5625 0.265625 -1.640625l0 -0.609375zm3.5476074 1.96875l1.625 -0.25q0.125 0.96875 0.75 1.5q0.625 0.515625 1.75 0.515625q1.125 0 1.671875 -0.453125q0.546875 -0.46875 0.546875 -1.09375q0 -0.546875 -0.484375 -0.875q-0.328125 -0.21875 -1.671875 -0.546875q-1.8125 -0.46875 -2.515625 -0.796875q-0.6875 -0.328125 -1.046875 -0.90625q-0.359375 -0.59375 -0.359375 -1.3125q0 -0.640625 0.296875 -1.1875q0.296875 -0.5625 0.8125 -0.921875q0.375 -0.28125 1.03125 -0.46875q0.671875 -0.203125 1.421875 -0.203125q1.140625 0 2.0 0.328125q0.859375 0.328125 1.265625 0.890625q0.421875 0.5625 0.578125 1.5l-1.609375 0.21875q-0.109375 -0.75 -0.640625 -1.171875q-0.515625 -0.421875 -1.46875 -0.421875q-1.140625 0 -1.625 0.375q-0.46875 0.375 -0.46875 0.875q0 0.3125 0.1875 0.578125q0.203125 0.265625 0.640625 0.4375q0.234375 0.09375 1.4375 0.421875q1.75 0.453125 2.4375 0.75q0.6875 0.296875 1.078125 0.859375q0.390625 0.5625 0.390625 1.40625q0 0.828125 -0.484375 1.546875q-0.46875 0.71875 -1.375 1.125q-0.90625 0.390625 -2.046875 0.390625q-1.875 0 -2.875 -0.78125q-0.984375 -0.78125 -1.25 -2.328125zm9.984375 -8.578125l0 -1.890625l1.640625 0l0 1.890625l-1.640625 0zm0 11.46875l0 -9.671875l1.640625 0l0 9.671875l-1.640625 0zm4.144806 0l0 -9.671875l1.46875 0l0 1.375q1.0625 -1.59375 3.078125 -1.59375q0.875 0 1.609375 0.3125q0.734375 0.3125 1.09375 0.828125q0.375 0.5 0.515625 1.203125q0.09375 0.453125 0.09375 1.59375l0 5.953125l-1.640625 0l0 -5.890625q0 -1.0 -0.203125 -1.484375q-0.1875 -0.5 -0.671875 -0.796875q-0.484375 -0.296875 -1.140625 -0.296875q-1.046875 0 -1.8125 0.671875q-0.75 0.65625 -0.75 2.515625l0 5.28125l-1.640625 0zm10.063232 0.796875l1.59375 0.234375q0.109375 0.75 0.5625 1.078125q0.609375 0.453125 1.671875 0.453125q1.140625 0 1.75 -0.453125q0.625 -0.453125 0.84375 -1.265625q0.125 -0.5 0.109375 -2.109375q-1.0625 1.265625 -2.671875 1.265625q-2.0 0 -3.09375 -1.4375q-1.09375 -1.4375 -1.09375 -3.453125q0 -1.390625 0.5 -2.5625q0.515625 -1.171875 1.453125 -1.796875q0.953125 -0.640625 2.25 -0.640625q1.703125 0 2.8125 1.375l0 -1.15625l1.515625 0l0 8.359375q0 2.265625 -0.46875 3.203125q-0.453125 0.9375 -1.453125 1.484375q-0.984375 0.546875 -2.453125 0.546875q-1.71875 0 -2.796875 -0.78125q-1.0625 -0.765625 -1.03125 -2.34375zm1.359375 -5.8125q0 1.90625 0.75 2.78125q0.765625 0.875 1.90625 0.875q1.125 0 1.890625 -0.859375q0.765625 -0.875 0.765625 -2.734375q0 -1.78125 -0.796875 -2.671875q-0.78125 -0.90625 -1.890625 -0.90625q-1.09375 0 -1.859375 0.890625q-0.765625 0.875 -0.765625 2.625zm14.715271 5.015625l0 -13.359375l4.609375 0q1.546875 0 2.375 0.203125q1.140625 0.25 1.953125 0.953125q1.0625 0.890625 1.578125 2.28125q0.53125 1.390625 0.53125 3.171875q0 1.515625 -0.359375 2.703125q-0.359375 1.171875 -0.921875 1.9375q-0.546875 0.765625 -1.203125 1.21875q-0.65625 0.4375 -1.59375 0.671875q-0.9375 0.21875 -2.140625 0.21875l-4.828125 0zm1.765625 -1.578125l2.859375 0q1.3125 0 2.0625 -0.234375q0.75 -0.25 1.203125 -0.703125q0.625 -0.625 0.96875 -1.6875q0.359375 -1.0625 0.359375 -2.578125q0 -2.09375 -0.6875 -3.21875q-0.6875 -1.125 -1.671875 -1.5q-0.703125 -0.28125 -2.28125 -0.28125l-2.8125 0l0 10.203125zm11.504181 -9.890625l0 -1.890625l1.640625 0l0 1.890625l-1.640625 0zm0 11.46875l0 -9.671875l1.640625 0l0 9.671875l-1.640625 0zm6.8323364 0l-3.6875 -9.671875l1.734375 0l2.078125 5.796875q0.328125 0.9375 0.625 1.9375q0.203125 -0.765625 0.609375 -1.828125l2.140625 -5.90625l1.6875 0l-3.65625 9.671875l-1.53125 0zm13.265625 -3.109375l1.6875 0.203125q-0.40625 1.484375 -1.484375 2.3125q-1.078125 0.8125 -2.765625 0.8125q-2.125 0 -3.375 -1.296875q-1.234375 -1.3125 -1.234375 -3.671875q0 -2.453125 1.25 -3.796875q1.265625 -1.34375 3.265625 -1.34375q1.9375 0 3.15625 1.328125q1.234375 1.3125 1.234375 3.703125q0 0.15625 0 0.4375l-7.21875 0q0.09375 1.59375 0.90625 2.453125q0.8125 0.84375 2.015625 0.84375q0.90625 0 1.546875 -0.46875q0.640625 -0.484375 1.015625 -1.515625zm-5.390625 -2.65625l5.40625 0q-0.109375 -1.21875 -0.625 -1.828125q-0.78125 -0.953125 -2.03125 -0.953125q-1.125 0 -1.90625 0.765625q-0.765625 0.75 -0.84375 2.015625zm9.125702 5.765625l0 -9.671875l1.46875 0l0 1.46875q0.5625 -1.03125 1.03125 -1.359375q0.484375 -0.328125 1.0625 -0.328125q0.828125 0 1.6875305 0.53125l-0.5625 1.515625q-0.6094055 -0.359375 -1.2031555 -0.359375q-0.546875 0 -0.96875 0.328125q-0.421875 0.328125 -0.609375 0.890625q-0.28125 0.875 -0.28125 1.921875l0 5.0625l-1.625 0zm5.572052 -2.890625l1.625 -0.25q0.125 0.96875 0.75 1.5q0.625 0.515625 1.75 0.515625q1.125 0 1.671875 -0.453125q0.546875 -0.46875 0.546875 -1.09375q0 -0.546875 -0.484375 -0.875q-0.328125 -0.21875 -1.671875 -0.546875q-1.8125 -0.46875 -2.515625 -0.796875q-0.6875 -0.328125 -1.046875 -0.90625q-0.359375 -0.59375 -0.359375 -1.3125q0 -0.640625 0.296875 -1.1875q0.296875 -0.5625 0.8125 -0.921875q0.375 -0.28125 1.03125 -0.46875q0.671875 -0.203125 1.421875 -0.203125q1.140625 0 2.0 0.328125q0.859375 0.328125 1.265625 0.890625q0.421875 0.5625 0.578125 1.5l-1.609375 0.21875q-0.109375 -0.75 -0.640625 -1.171875q-0.515625 -0.421875 -1.46875 -0.421875q-1.140625 0 -1.625 0.375q-0.46875 0.375 -0.46875 0.875q0 0.3125 0.1875 0.578125q0.203125 0.265625 0.640625 0.4375q0.234375 0.09375 1.4375 0.421875q1.75 0.453125 2.4375 0.75q0.6875 0.296875 1.078125 0.859375q0.390625 0.5625 0.390625 1.40625q0 0.828125 -0.484375 1.546875q-0.46875 0.71875 -1.375 1.125q-0.90625 0.390625 -2.046875 0.390625q-1.875 0 -2.875 -0.78125q-0.984375 -0.78125 -1.25 -2.328125zm9.984375 -8.578125l0 -1.890625l1.640625 0l0 1.890625l-1.640625 0zm0 11.46875l0 -9.671875l1.640625 0l0 9.671875l-1.640625 0zm7.7229614 -1.46875l0.234375 1.453125q-0.6875 0.140625 -1.234375 0.140625q-0.890625 0 -1.390625 -0.28125q-0.484375 -0.28125 -0.6875 -0.734375q-0.203125 -0.46875 -0.203125 -1.9375l0 -5.578125l-1.203125 0l0 -1.265625l1.203125 0l0 -2.390625l1.625 -0.984375l0 3.375l1.65625 0l0 1.265625l-1.65625 0l0 5.671875q0 0.6875 0.078125 0.890625q0.09375 0.203125 0.28125 0.328125q0.203125 0.109375 0.578125 0.109375q0.265625 0 0.71875 -0.0625zm1.5270386 5.1875l-0.1875 -1.53125q0.546875 0.140625 0.9375 0.140625q0.546875 0 0.875 -0.1875q0.328125 -0.171875 0.546875 -0.5q0.15625 -0.25 0.5 -1.21875q0.046875 -0.140625 0.140625 -0.40625l-3.671875 -9.6875l1.765625 0l2.015625 5.59375q0.390625 1.078125 0.703125 2.25q0.28125 -1.125 0.671875 -2.203125l2.078125 -5.640625l1.640625 0l-3.6875 9.828125q-0.59375 1.609375 -0.921875 2.203125q-0.4375 0.8125 -1.0 1.1875q-0.5625 0.375 -1.34375 0.375q-0.484375 0 -1.0625 -0.203125z" fill-rule="nonzero"/><path fill="#000000" fill-opacity="0.0" d="m360.34122 42.16273l-245.41733 0" fill-rule="evenodd"/><path stroke="#000000" stroke-width="1.0" stroke-linejoin="round" stroke-linecap="butt" d="m354.34122 42.16273l-239.41733 0" fill-rule="evenodd"/><path fill="#000000" stroke="#000000" stroke-width="1.0" stroke-linecap="butt" d="m354.34122 43.81446l4.538086 -1.6517296l-4.538086 -1.6517334z" fill-rule="evenodd"/><path fill="#000000" fill-opacity="0.0" d="m800.3412 46.855644l-245.4173 0" fill-rule="evenodd"/><path stroke="#000000" stroke-width="1.0" stroke-linejoin="round" stroke-linecap="butt" d="m794.3412 46.855644l-239.4173 0" fill-rule="evenodd"/><path fill="#000000" stroke="#000000" stroke-width="1.0" stroke-linecap="butt" d="m794.3412 48.507374l4.538147 -1.6517296l-4.538147 -1.6517334z" fill-rule="evenodd"/><path fill="#000000" fill-opacity="0.0" d="m360.34122 270.85565l-245.41733 0" fill-rule="evenodd"/><path stroke="#000000" stroke-width="1.0" stroke-linejoin="round" stroke-linecap="butt" d="m354.34122 270.85565l-239.41733 0" fill-rule="evenodd"/><path fill="#000000" stroke="#000000" stroke-width="1.0" stroke-linecap="butt" d="m354.34122 272.5074l4.538086 -1.6517334l-4.538086 -1.6517334z" fill-rule="evenodd"/><path fill="#000000" fill-opacity="0.0" d="m800.3412 270.85565l-245.4173 0" fill-rule="evenodd"/><path stroke="#000000" stroke-width="1.0" stroke-linejoin="round" stroke-linecap="butt" d="m794.3412 270.85565l-239.4173 0" fill-rule="evenodd"/><path fill="#000000" stroke="#000000" stroke-width="1.0" stroke-linecap="butt" d="m794.3412 272.5074l4.538147 -1.6517334l-4.538147 -1.6517334z" fill-rule="evenodd"/><path fill="#000000" fill-opacity="0.0" d="m424.34122 281.84778l63.338562 0l0 42.015747l-63.338562 0z" fill-rule="evenodd"/><path fill="#000000" d="m438.18497 308.76776l0 -11.78125l-4.40625 0l0 -1.578125l10.578125 0l0 1.578125l-4.40625 0l0 11.78125l-1.765625 0zm7.0939026 -11.46875l0 -1.890625l1.640625 0l0 1.890625l-1.640625 0zm0 11.46875l0 -9.671875l1.640625 0l0 9.671875l-1.640625 0zm4.144806 0l0 -9.671875l1.46875 0l0 1.359375q0.453125 -0.71875 1.203125 -1.140625q0.765625 -0.4375 1.71875 -0.4375q1.078125 0 1.765625 0.453125q0.6875 0.4375 0.96875 1.234375q1.15625 -1.6875 2.984375 -1.6875q1.453125 0 2.21875 0.796875q0.78125 0.796875 0.78125 2.453125l0 6.640625l-1.640625 0l0 -6.09375q0 -0.984375 -0.15625 -1.40625q-0.15625 -0.4375 -0.578125 -0.703125q-0.421875 -0.265625 -0.984375 -0.265625q-1.015625 0 -1.6875 0.6875q-0.671875 0.671875 -0.671875 2.15625l0 5.625l-1.640625 0l0 -6.28125q0 -1.09375 -0.40625 -1.640625q-0.40625 -0.546875 -1.3125 -0.546875q-0.6875 0 -1.28125 0.359375q-0.59375 0.359375 -0.859375 1.0625q-0.25 0.703125 -0.25 2.03125l0 5.015625l-1.640625 0zm22.165802 -3.109375l1.6875 0.203125q-0.40625 1.484375 -1.484375 2.3125q-1.078125 0.8125 -2.765625 0.8125q-2.125 0 -3.375 -1.296875q-1.234375 -1.3125 -1.234375 -3.671875q0 -2.453125 1.25 -3.796875q1.265625 -1.34375 3.265625 -1.34375q1.9375 0 3.15625 1.328125q1.234375 1.3125 1.234375 3.703125q0 0.15625 0 0.4375l-7.21875 0q0.09375 1.59375 0.90625 2.453125q0.8125 0.84375 2.015625 0.84375q0.90625 0 1.546875 -0.46875q0.640625 -0.484375 1.015625 -1.515625zm-5.390625 -2.65625l5.40625 0q-0.109375 -1.21875 -0.625 -1.828125q-0.78125 -0.953125 -2.03125 -0.953125q-1.125 0 -1.90625 0.765625q-0.765625 0.75 -0.84375 2.015625z" fill-rule="nonzero"/><path fill="#000000" fill-opacity="0.0" d="m416.34122 302.85565l-245.41733 0" fill-rule="evenodd"/><path stroke="#000000" stroke-width="1.0" stroke-linejoin="round" stroke-linecap="butt" d="m410.34122 302.85565l-239.41733 0" fill-rule="evenodd"/><path fill="#000000" stroke="#000000" stroke-width="1.0" stroke-linecap="butt" d="m410.34122 304.5074l4.538086 -1.6517334l-4.538086 -1.6517334z" fill-rule="evenodd"/><path fill="#000000" fill-opacity="0.0" d="m736.3412 302.85565l-245.4173 0" fill-rule="evenodd"/><path stroke="#000000" stroke-width="1.0" stroke-linejoin="round" stroke-linecap="butt" d="m730.3412 302.85565l-239.4173 0" fill-rule="evenodd"/><path fill="#000000" stroke="#000000" stroke-width="1.0" stroke-linecap="butt" d="m730.3412 304.5074l4.538147 -1.6517334l-4.538147 -1.6517334z" fill-rule="evenodd"/></g></svg>